<svg version="1.1" xmlns="http://www.w3.org/2000/svg">
<path d="M-4.75 0L200.82 0L200.82 234.18L-4.75 234.18L-4.75 0 Z M125.64 94.04L131.97 119.46C141.65 154.33 147.69 176.12 150.11 184.83C150.43 186.01 151.87 186.44 152.79 185.65C157.53 181.58 160.88 177.94 162.83 174.71C166.2 169.14 164.6 159.45 163.63 153.95C161.42 141.41 141.61 132.44 136.78 131.86C131.59 131.23 110.65 136.36 104.22 148.12C98.4 158.76 103.21 165.15 100.47 169.94C100.42 170.03 102.74 174.33 107.43 182.85C107.56 183.08 107.31 183.34 107.07 183.24C98.49 179.47 103.01 181.46 101.81 180.93C78.52 170.71 62.46 148.84 59.7 123.56C59.61 122.77 59.39 120.8 59.05 117.64C59.05 117.64 59.05 117.64 59.05 117.64C59.66 112.11 64.22 107.86 69.78 107.62C70.48 107.59 72.25 107.52 75.08 107.4C97.29 98.93 111.17 93.63 116.72 91.51C118.75 90.74 118 87.71 115.85 87.97C105.52 89.18 82.93 91.83 71.03 93.23C67.98 93.59 65.68 90.51 66.89 87.69C70.49 79.29 77.91 61.98 81.34 53.96C82.61 51.01 86.83 51.14 87.92 54.16C94.94 73.7 112.49 122.55 140.56 200.72C113.59 166.28 96.73 144.76 89.99 136.15C86.63 131.86 80.9 130.23 75.79 132.1C75.46 132.22 74.63 132.53 73.3 133.01C71.91 134.94 71.03 136.14 70.68 136.63C60.23 151.05 57.29 169.6 62.76 186.56C63.21 187.97 64.35 191.5 66.17 197.15L91.12 156.17C124 103.92 144.54 71.26 152.76 58.19C153.97 56.28 151.56 54.16 149.81 55.6C146.49 58.34 139.87 63.82 134.99 67.84C134.02 68.65 133.9 70.1 134.73 71.05C141.45 78.72 156.08 95.44 161.8 101.97C162.98 103.31 165.13 101.96 164.43 100.31C160.81 91.84 153.44 74.57 149.73 65.86C147.56 60.78 143.56 56.69 138.52 54.41C137.99 54.17 136.67 53.57 134.55 52.61L96.46 50.16L86.34 40.75C85.6 38 85.14 36.29 84.96 35.6C83.04 28.45 88.59 21.48 95.99 21.75C97.87 21.82 94.37 21.69 97.69 21.82C102.03 21.97 105.53 25.44 105.73 29.77C105.79 31.13 105.66 28.24 105.73 29.77C105.93 34.06 104.11 38.19 100.82 40.94C100.06 41.58 98.16 43.17 95.13 45.71 M82.74 108.51L78 105.74L77.18 99.83L82.74 87.16L90.99 75.77L114.82 74.88L122.54 68.54L124.39 61.3C119.46 52.95 116.26 46.27 114.82 41.26C113.37 36.25 113.67 32.91 115.71 31.23C119.91 27.49 123.87 25.96 127.58 26.63C131.29 27.29 134.76 30.16 137.98 35.24C139.2 38.74 138.82 41.65 136.86 43.95C134.89 46.25 131.33 47.95 126.17 49.05L110.14 52.16L107.01 53.99L103.73 57.26L101.45 63.3C103.49 66.37 105.34 68.71 107.01 70.3C108.68 71.9 110.51 73.42 112.5 74.88L126.17 76.44L137.98 79.39L141.76 90.25L146.44 114.3L147.67 117.75L151.79 119.65L155.35 116.01L157.13 110.29L155.35 107.18L129.74 107.18L82.74 108.51Z" id="a2iFusR0fn"></path><path d="M77.18 15.03L151.67 15.03C151.77 15.09 151.83 15.12 151.86 15.14C158.79 19.05 164.19 25.22 167.15 32.61C167.15 32.61 167.15 32.61 167.15 32.61L189.71 181.19C189.72 189.83 187.24 196.6 182.29 201.48C177.34 206.36 170.48 209.48 161.71 210.85L59.05 209.59C50.41 207.38 44.11 203.1 40.17 196.76C36.22 190.41 34.61 182 35.35 171.52L57.95 29.68C58.18 29.24 58.33 28.97 58.39 28.86C62.28 21.68 69.17 16.62 77.18 15.03C77.18 15.03 77.18 15.03 77.18 15.03Z"></path>
</svg>