<svg xmlns="http://www.w3.org/2000/svg">
    <polyline points="
 6901 , 12763 
 6938.4462890625 , 12559.1044921875 
 6978.96435546875 , 12355.751953125 
 7020.20361328125 , 12152.5439453125 
 7061.9755859375 , 11949.4443359375 
 7104.3310546875 , 11746.466796875 
 7147.673828125 , 11543.697265625 
 7197.4599609375 , 11342.4619140625 
 7257.943359375 , 11144.142578125 
 7325.5615234375 , 10948.1396484375 
 7401.3701171875 , 10755.169921875 
 7458.25927734375 , 10578.1162109375 
 7279.94287109375 , 10472.298828125 
 7099.6689453125 , 10369.892578125 
 6987.1298828125 , 10479.642578125 
 6898.42919921875 , 10666.9853515625 
 6797.4228515625 , 10848.044921875 
 6688.6103515625 , 11024.53515625 
 6573.505859375 , 11196.9892578125 
 6452.42529296875 , 11365.3017578125 
 6324.9033203125 , 11528.7822265625 
 6193.7373046875 , 11689.3720703125 
 6063.123046875 , 11850.412109375 
 5932.7255859375 , 12011.62890625 
 5802.65234375 , 12173.107421875 
 5671.7109375 , 12333.880859375 
 5697.95068359375 , 12242.1279296875 
 5794.4599609375 , 12058.60546875 
 5891.23681640625 , 11875.2255859375 
 5987.6162109375 , 11691.634765625 
 6083.9443359375 , 11508.0185546875 
 6181.015625 , 11324.7998046875 
 6283.67724609375 , 11144.6591796875 
 6392.3349609375 , 10968.0712890625 
 6507.31591796875 , 10795.5361328125 
 6629.45458984375 , 10628 
 6760.41796875 , 10467.2890625 
 6903.3291015625 , 10317.14453125 
 6822.4658203125 , 10194.6357421875 
 6651.85107421875 , 10076.81640625 
 6505.44482421875 , 10065.5087890625 
 6387.6083984375 , 10236.0029296875 
 6254.9306640625 , 10395.279296875 
 6114.3994140625 , 10547.7236328125 
 5968.1220703125 , 10694.666015625 
 5816.7802734375 , 10836.390625 
 5660.9287109375 , 10973.142578125 
 5501.00048828125 , 11105.103515625 
 5337.34619140625 , 11232.4169921875 
 5171.85888671875 , 11357.3466796875 
 5006.77099609375 , 11482.806640625 
 4841.8447265625 , 11608.478515625 
 4677.06201171875 , 11734.33984375 
 4512.33349609375 , 11860.271484375 
 4347.9560546875 , 11986.6591796875 
 4461.9462890625 , 11845.5068359375 
 4598.60107421875 , 11689.55859375 
 4735.48095703125 , 11533.8095703125 
 4872.4697265625 , 11378.154296875 
 5009.521484375 , 11222.5556640625 
 5146.82373046875 , 11067.1787109375 
 5284.8642578125 , 10912.45703125 
 5425.91015625 , 10760.484375 
 5574.2275390625 , 10615.609375 
 5726.73876953125 , 10475.138671875 
 5883.0849609375 , 10338.951171875 
 6043.78857421875 , 10207.94140625 
 6210.26904296875 , 10084.3837890625 
 6387.14404296875 , 9976.541015625 
 6364.94921875 , 9858.580078125 
 6205.67724609375 , 9725.837890625 
 6051.232421875 , 9587.498046875 
 5899.01123046875 , 9446.7080078125 
 5777.98876953125 , 9540.52734375 
 5653.390625 , 9706.18359375 
 5518.57421875 , 9863.6982421875 
 5377.84228515625 , 10015.9638671875 
 5232.810546875 , 10164.1435546875 
 5084.15966796875 , 10308.6953125 
 4932.15234375 , 10449.7119140625 
 4776.76513671875 , 10586.9951171875 
 4617.64111328125 , 10719.92578125 
 4454.0654296875 , 10847.328125 
 4288.26513671875 , 10971.8427734375 
 4123.1962890625 , 11097.3271484375 
 3958.360107421875 , 11223.1171875 
 3793.7158203125 , 11349.16015625 
 3628.892578125 , 11474.96484375 
 3463.795654296875 , 11600.4140625 
 3298.49658203125 , 11725.595703125 
 3154.802978515625 , 11827.5849609375 
 3290.473388671875 , 11670.7861328125 
 3427.101806640625 , 11514.8134765625 
 3563.9892578125 , 11359.0712890625 
 3701.05224609375 , 11203.48046875 
 3838.243896484375 , 11048.005859375 
 3975.56591796875 , 10892.6435546875 
 4112.12890625 , 10736.6171875 
 4248.2177734375 , 10580.1787109375 
 4387.69775390625 , 10426.7666015625 
 4532.1201171875 , 10277.9951171875 
 4680.49267578125 , 10133.1572265625 
 4832.36083984375 , 9991.9921875 
 4987.5869140625 , 9854.525390625 
 5146.27587890625 , 9721.0751953125 
 5308.953125 , 9592.51953125 
 5476.77197265625 , 9470.775390625 
 5652.65478515625 , 9361.1201171875 
 5697.26953125 , 9239.1953125 
 5558.57373046875 , 9085.0634765625 
 5423.46484375 , 8927.783203125 
 5288.72412109375 , 8771.201171875 
 5168.03173828125 , 8939.37109375 
 5037.5107421875 , 9100.462890625 
 4901.421875 , 9256.89453125 
 4761.0166015625 , 9409.46484375 
 4615.9541015625 , 9557.615234375 
 4467.18310546875 , 9702.041015625 
 4315.5634765625 , 9843.4794921875 
 4161.4150390625 , 9982.154296875 
 4004.721923828125 , 10117.951171875 
 3845.10791015625 , 10250.29296875 
 3681.51513671875 , 10377.677734375 
 3514.7939453125 , 10500.9423828125 
 3349.49072265625 , 10626.1220703125 
 3184.4296875 , 10751.6142578125 
 3019.524658203125 , 10877.3125 
 2854.664794921875 , 11003.0732421875 
 2689.863037109375 , 11128.9072265625 
 2525.036865234375 , 11254.71484375 
 2360.1796875 , 11380.474609375 
 2195.265625 , 11506.1669921875 
 2249.321044921875 , 11423.0341796875 
 2385.85986328125 , 11266.9853515625 
 2522.541748046875 , 11111.0625 
 2659.357421875 , 10955.25390625 
 2796.218017578125 , 10799.48828125 
 2933.13525390625 , 10643.76953125 
 3070.13427734375 , 10488.125 
 3207.174072265625 , 10332.517578125 
 3344.33544921875 , 10177.01171875 
 3481.693603515625 , 10021.685546875 
 3621.146484375 , 9868.2451171875 
 3765.222900390625 , 9719.1376953125 
 3912.94970703125 , 9573.640625 
 4063.7841796875 , 9431.3701171875 
 4217.47216796875 , 9292.181640625 
 4373.97216796875 , 9156.1689453125 
 4533.43310546875 , 9023.6337890625 
 4696.296875 , 8895.31640625 
 4863.51123046875 , 8772.7294921875 
 5037.24755859375 , 8659.638671875 
 5104.958984375 , 8522.8759765625 
 4986.45263671875 , 8352.732421875 
 4870.82421875 , 8180.6181640625 
 4757.44775390625 , 8007.00732421875 
 4641.349609375 , 8146.7744140625 
 4514.35546875 , 8310.6435546875 
 4379.39599609375 , 8468.041015625 
 4239.1748046875 , 8620.7802734375 
 4094.965576171875 , 8769.763671875 
 3947.445068359375 , 8915.4677734375 
 3796.97802734375 , 9058.130859375 
 3643.728271484375 , 9197.794921875 
 3487.75244140625 , 9334.4189453125 
 3328.92626953125 , 9467.7080078125 
 3167.009521484375 , 9597.2275390625 
 3001.68310546875 , 9722.359375 
 2835.523681640625 , 9846.3994140625 
 2669.451904296875 , 9970.5556640625 
 2503.451416015625 , 10094.80078125 
 2337.520751953125 , 10219.146484375 
 2171.624267578125 , 10343.537109375 
 2005.6658935546875 , 10467.841796875 
 1839.504150390625 , 10591.8740234375 
 1673.0780029296875 , 10715.5546875 
 1506.1671142578125 , 10838.5810546875 
 1431.0010986328125 , 10872.169921875 
 1570.514892578125 , 10718.7802734375 
 1709.4871826171875 , 10564.89453125 
 1848.25732421875 , 10410.8232421875 
 1986.8826904296875 , 10256.6259765625 
 2125.372314453125 , 10102.3037109375 
 2263.732421875 , 9947.8671875 
 2401.934326171875 , 9793.28515625 
 2539.818359375 , 9638.4296875 
 2676.408447265625 , 9482.4287109375 
 2814.26806640625 , 9327.5537109375 
 2955.919677734375 , 9176.1328125 
 3101.09765625 , 9028.099609375 
 3249.508056640625 , 8883.294921875 
 3400.81494140625 , 8741.5263671875 
 3554.74462890625 , 8602.6015625 
 3711.6259765625 , 8467.0322265625 
 3871.55615234375 , 8335.06640625 
 4034.69873046875 , 8207.095703125 
 4201.5595703125 , 8084.02294921875 
 4373.40283203125 , 7968.02783203125 
 4553.85400390625 , 7866.13818359375 
 4590.47216796875 , 7720.04296875 
 4492.0595703125 , 7537.54443359375 
 4397.00732421875 , 7353.26708984375 
 4305.9208984375 , 7166.99951171875 
 4214.009765625 , 6990.58935546875 
 4090.6875 , 7157.0078125 
 3963.396728515625 , 7320.654296875 
 3828.89453125 , 7478.44677734375 
 3689.504150390625 , 7631.94921875 
 3546.6123046875 , 7782.1943359375 
 3401.1083984375 , 7929.9169921875 
 3253.946044921875 , 8075.9931640625 
 3104.803466796875 , 8220.033203125 
 2952.955078125 , 8361.2236328125 
 2797.85791015625 , 8498.8408203125 
 2639.46142578125 , 8632.640625 
 2478.2041015625 , 8762.98046875 
 2314.784423828125 , 8890.6044921875 
 2149.869384765625 , 9016.291015625 
 1984.81787109375 , 9141.7978515625 
 1819.8653564453125 , 9267.4306640625 
 1654.94873046875 , 9393.123046875 
 1490.0703125 , 9518.8603515625 
 1325.27099609375 , 9644.6982421875 
 1160.4864501953125 , 9770.5537109375 
 995.6774291992188 , 9896.3818359375 
 830.817626953125 , 10022.1376953125 
 665.8269653320312 , 10147.7255859375 
 500.6578674316406 , 10273.0771484375 
 463.4429931640625 , 10277.8603515625 
 600.5870971679688 , 10122.33984375 
 737.79150390625 , 9966.8798828125 
 874.9854125976562 , 9811.4033203125 
 1012.0974731445312 , 9655.85546875 
 1149.29296875 , 9500.3818359375 
 1286.5677490234375 , 9344.984375 
 1423.65087890625 , 9189.4091796875 
 1560.516357421875 , 9033.6474609375 
 1697.0892333984375 , 8877.6328125 
 1832.9581298828125 , 8720.998046875 
 1968.13720703125 , 8563.7783203125 
 2107.056884765625 , 8409.84765625 
 2249.129638671875 , 8258.8271484375 
 2393.945556640625 , 8110.42822265625 
 2541.25634765625 , 7964.50927734375 
 2690.970947265625 , 7821.05419921875 
 2843.089599609375 , 7680.15673828125 
 2997.723388671875 , 7542.02099609375 
 3155.170654296875 , 7407.1015625 
 3315.451416015625 , 7275.5625 
 3478.708984375 , 7147.7431640625 
 3645.447509765625 , 7024.5009765625 
 3816.659423828125 , 6907.5615234375 
 3994.4951171875 , 6801.0517578125 
 4087.619140625 , 6667.60791015625 
 4013.424560546875 , 6473.99267578125 
 3942.9306640625 , 6278.9951171875 
 3874.852294921875 , 6083.14208984375 
 3759.500244140625 , 6185.384765625 
 3626.133056640625 , 6344.11474609375 
 3485.755615234375 , 6496.70751953125 
 3340.713623046875 , 6644.875 
 3192.123291015625 , 6789.49072265625 
 3040.60400390625 , 6931.037109375 
 2886.5166015625 , 7069.78076171875 
 2730.034423828125 , 7205.8134765625 
 2571.223388671875 , 7339.13134765625 
 2410.05712890625 , 7469.5869140625 
 2246.381103515625 , 7596.87353515625 
 2079.92529296875 , 7720.501953125 
 1910.2144775390625 , 7839.6259765625 
 1738.9696044921875 , 7956.5400390625 
 1568.4034423828125 , 8074.4423828125 
 1398.21923828125 , 8192.896484375 
 1228.068359375 , 8311.40234375 
 1057.8511962890625 , 8429.8134765625 
 887.5474243164062 , 8548.0927734375 
 717.1160888671875 , 8666.1923828125 
 546.505615234375 , 8784.0302734375 
 375.5506286621094 , 8901.3701171875 
 203.89044189453125 , 9017.669921875 
 73.44575500488281 , 9088.5380859375 
 217.0088348388672 , 8938.9208984375 
 360.8847961425781 , 8789.6142578125 
 504.93603515625 , 8640.4716796875 
 649.1239013671875 , 8491.4619140625 
 793.3782958984375 , 8342.5126953125 
 937.5176391601562 , 8193.4638671875 
 1081.47021484375 , 8044.21923828125 
 1225.2022705078125 , 7894.7705078125 
 1368.59765625 , 7744.99755859375 
 1511.257568359375 , 7594.52587890625 
 1653.9058837890625 , 7444.05078125 
 1800.29443359375 , 7297.20654296875 
 1949.9298095703125 , 7153.67626953125 
 2102.44189453125 , 7013.2021484375 
 2257.577392578125 , 6875.6279296875 
 2415.181884765625 , 6740.8935546875 
 2575.171142578125 , 6608.99853515625 
 2737.5224609375 , 6480.02197265625 
 2902.27392578125 , 6354.12646484375 
 3069.86181640625 , 6232.03369140625 
 3240.96728515625 , 6114.9296875 
 3415.635986328125 , 6003.2119140625 
 3595.0576171875 , 5899.3408203125 
 3782.902587890625 , 5811.953125 
 3734.680908203125 , 5612.0673828125 
 3682.978271484375 , 5411.26806640625 
 3633.834228515625 , 5209.826171875 
 3503.181884765625 , 5289.05810546875 
 3354.90966796875 , 5433.99365234375 
 3200.67724609375 , 5572.55615234375 
 3040.33837890625 , 5704.0126953125 
 2876.18310546875 , 5830.67724609375 
 2709.98828125 , 5954.6630859375 
 2541.37646484375 , 6075.3466796875 
 2370.177490234375 , 6192.322265625 
 2196.364013671875 , 6305.36767578125 
 2019.8974609375 , 6414.2509765625 
 1840.795654296875 , 6518.70068359375 
 1659.760498046875 , 6619.787109375 
 1478.97998046875 , 6721.3505859375 
 1298.3162841796875 , 6823.10986328125 
 1117.72509765625 , 6924.99951171875 
 937.166748046875 , 7026.955078125 
 756.6156616210938 , 7128.916015625 
 576.0684814453125 , 7230.85400390625 
 395.4996032714844 , 7332.783203125 
 214.8262939453125 , 7434.53076171875 
 250.02818298339844 , 7377.8193359375 
 406.67822265625 , 7241.97509765625 
 563.8917236328125 , 7106.7802734375 
 721.2797241210938 , 6971.7763671875 
 878.7523803710938 , 6836.87939453125 
 1036.149658203125 , 6701.90869140625 
 1193.3629150390625 , 6566.70849609375 
 1350.318359375 , 6431.20703125 
 1506.1485595703125 , 6294.43310546875 
 1662.2581787109375 , 6157.96728515625 
 1822.39892578125 , 6026.26708984375 
 1985.802490234375 , 5898.6279296875 
 2152.002197265625 , 5774.6611328125 
 2320.76123046875 , 5654.18603515625 
 2491.962890625 , 5537.22021484375 
 2665.642333984375 , 5423.9541015625 
 2841.97119140625 , 5314.861328125 
 3021.306640625 , 5210.802734375 
 3204.371337890625 , 5113.45947265625 
 3392.590576171875 , 5026.572265625 
 3578.81494140625 , 4954.17626953125 
 3540.84375 , 4750.33984375 
 3506.570068359375 , 4545.890625 
 3347.205810546875 , 4635.10107421875 
 3179.904052734375 , 4757.5654296875 
 3008.461181640625 , 4874.18359375 
 2834.180908203125 , 4986.5146484375 
 2657.437744140625 , 5094.91845703125 
 2478.10791015625 , 5199.00146484375 
 2295.460693359375 , 5297.13427734375 
 2108.69970703125 , 5387.20751953125 
 1922.0535888671875 , 5477.51513671875 
 1735.5013427734375 , 5568.02734375 
 1549.00244140625 , 5658.65185546875 
 1362.5401611328125 , 5749.3515625 
 1176.1182861328125 , 5840.134765625 
 989.7493896484375 , 5931.00927734375 
 853.1377563476562 , 5987.35546875 
 1017.49267578125 , 5860.93212890625 
 1182.3575439453125 , 5735.17578125 
 1347.412109375 , 5609.67138671875 
 1512.44873046875 , 5484.14208984375 
 1677.3726806640625 , 5358.46826171875 
 1842.060546875 , 5232.4921875 
 2005.92529296875 , 5105.42431640625 
 2172.658447265625 , 4982.1796875 
 2343.22705078125 , 4864.291015625 
 2517.033203125 , 4751.23193359375 
 2693.80322265625 , 4642.849609375 
 2873.45849609375 , 4539.3515625 
 3056.167236328125 , 4441.32861328125 
 3242.339111328125 , 4350.08056640625 
 3431.152587890625 , 4264.50537109375 
 3441.84423828125 , 4072.45703125 
 3420.32177734375 , 3866.22705078125 
 3402.45849609375 , 3659.6435546875 
 3388.185791015625 , 3452.787841796875 
 3377.4990234375 , 3245.72216796875 
 3370.413330078125 , 3038.496826171875 
 3367.013671875 , 2831.174072265625 
 3367.4140625 , 2623.8251953125 
 3371.795654296875 , 2416.52685546875 
 3380.406494140625 , 2209.35302734375 
 3393.57470703125 , 2002.4276123046875 
 3411.5576171875 , 1795.8697509765625 
 3434.047119140625 , 1589.7440185546875 
 3461.0693359375 , 1384.1708984375 
 3492.37890625 , 1179.1943359375 
 3527.87939453125 , 974.9072875976562 
 3567.621337890625 , 771.4110107421875 
 3611.812255859375 , 568.8255615234375 
 3660.94091796875 , 367.384765625 
 3714.470703125 , 167.06912231445312 
 3799.0556640625 , 11.205343246459961 
 3847.457275390625 , 164.2512969970703 
 3794.13232421875 , 364.61895751953125 
 3743.70751953125 , 565.7416381835938 
 3697.455810546875 , 767.8681640625 
 3655.371337890625 , 970.90234375 
 3617.420166015625 , 1174.7371826171875 
 3583.634765625 , 1379.3170166015625 
 3554.03662109375 , 1584.53515625 
 3528.72802734375 , 1790.336669921875 
 3507.570068359375 , 1996.599853515625 
 3490.70166015625 , 2203.261962890625 
 3478.945068359375 , 2410.2763671875 
 3472.14013671875 , 2617.510498046875 
 3469.30712890625 , 2824.83251953125 
 3469.235595703125 , 3032.181884765625 
 3471.715576171875 , 3239.51318359375 
 3478.809814453125 , 3446.73828125 
 3492.5712890625 , 3653.62353515625 
 3512.8212890625 , 3859.97412109375 
 3537.1025390625 , 4065.8984375 
 3613.407470703125 , 4215.2958984375 
 3800.595703125 , 4126.76953125 
 3992.619384765625 , 4048.65234375 
 4188.7802734375 , 3981.50927734375 
 4387.27783203125 , 3921.611572265625 
 4587.40478515625 , 3867.372314453125 
 4788.80224609375 , 3818.046630859375 
 4991.2763671875 , 3773.353515625 
 5194.71875 , 3733.34423828125 
 5399.095703125 , 3698.399658203125 
 5604.38818359375 , 3669.298583984375 
 5810.31298828125 , 3645.064208984375 
 6016.08984375 , 3619.568359375 
 6221.79296875 , 3593.44921875 
 6427.45458984375 , 3567.0419921875 
 6633.08154296875 , 3540.430908203125 
 6838.703125 , 3513.67333984375 
 7044.31201171875 , 3486.876220703125 
 7203.88720703125 , 3476.03759765625 
 7008.56201171875 , 3545.587158203125 
 6812.2724609375 , 3612.398681640625 
 6615.79296875 , 3678.666015625 
 6419.259765625 , 3744.76171875 
 6222.70068359375 , 3810.773193359375 
 6026.1630859375 , 3876.845458984375 
 5829.50634765625 , 3942.5712890625 
 5632.58349609375 , 4007.516845703125 
 5435.146484375 , 4070.84814453125 
 5236.63916015625 , 4130.75927734375 
 5036.3466796875 , 4184.34326171875 
 4834.17333984375 , 4230.3076171875 
 4631.0029296875 , 4271.7392578125 
 4427.08251953125 , 4309.2646484375 
 4222.0859375 , 4340.3271484375 
 4015.865234375 , 4361.69580078125 
 3808.695068359375 , 4369.05029296875 
 3614.777587890625 , 4400.33740234375 
 3622.080322265625 , 4594.650390625 
 3662.781494140625 , 4797.962890625 
 3752.251953125 , 4893.26416015625 
 3936.763427734375 , 4798.7548828125 
 4127.64306640625 , 4717.82666015625 
 4322.1484375 , 4646.0322265625 
 4518.89697265625 , 4580.5751953125 
 4717.2119140625 , 4520.06201171875 
 4916.75390625 , 4463.72216796875 
 5117.3173828125 , 4411.11181640625 
 5318.76806640625 , 4361.9970703125 
 5521.0146484375 , 4316.31591796875 
 5724.0361328125 , 4274.15087890625 
 5927.791015625 , 4235.7236328125 
 6132.28466796875 , 4201.4609375 
 6337.52734375 , 4172.0625 
 6543.5498046875 , 4148.63720703125 
 6749.509765625 , 4124.68310546875 
 6955.24169921875 , 4098.806640625 
 7160.89501953125 , 4072.374755859375 
 7366.53466796875 , 4045.738525390625 
 7572.1494140625 , 4018.980224609375 
 7777.7548828125 , 3992.12890625 
 7983.37451171875 , 3965.4619140625 
 8189.01416015625 , 3938.873046875 
 8394.666015625 , 3912.381591796875 
 8600.26953125 , 3885.497314453125 
 8601.025390625 , 3910.925048828125 
 8404.853515625 , 3978.0908203125 
 8208.4609375 , 4044.6240234375 
 8012.0283203125 , 4110.9814453125 
 7815.55322265625 , 4177.2744140625 
 7619.06201171875 , 4243.50048828125 
 7422.5771484375 , 4309.748046875 
 7226.10693359375 , 4376.0361328125 
 7029.63671875 , 4442.32373046875 
 6833.166015625 , 4508.61181640625 
 6636.6865234375 , 4574.86474609375 
 6440.18017578125 , 4641.02783203125 
 6242.89990234375 , 4704.85400390625 
 6044.15283203125 , 4763.939453125 
 5844.21484375 , 4818.869140625 
 5643.265625 , 4869.99853515625 
 5441.43994140625 , 4917.5234375 
 5238.80810546875 , 4961.49462890625 
 5035.42333984375 , 5001.82568359375 
 4831.302734375 , 5038.2763671875 
 4626.458984375 , 5070.37548828125 
 4420.87548828125 , 5097.3203125 
 4214.5341796875 , 5117.64599609375 
 4007.49462890625 , 5128.51708984375 
 3800.205810546875 , 5125.13037109375 
 3771.628662109375 , 5264.12060546875 
 3826.34228515625 , 5464.11328125 
 3884.222900390625 , 5663.22021484375 
 4004.21142578125 , 5700.3955078125 
 4187.82861328125 , 5604.287109375 
 4377.78125 , 5521.18115234375 
 4570.87890625 , 5445.6572265625 
 4766.240234375 , 5376.20703125 
 4963.30810546875 , 5311.7392578125 
 5161.15087890625 , 5249.68017578125 
 5360.8564453125 , 5193.90478515625 
 5561.2060546875 , 5140.490234375 
 5762.26171875 , 5089.779296875 
 5963.99462890625 , 5041.83935546875 
 6166.38330078125 , 4996.765625 
 6369.421875 , 4954.69287109375 
 6573.08349609375 , 4915.79833984375 
 6777.36376953125 , 4880.28515625 
 6982.26123046875 , 4848.47900390625 
 7187.74609375 , 4820.7431640625 
 7393.7802734375 , 4797.439453125 
 7599.6416015625 , 4772.64013671875 
 7805.39208984375 , 4746.94970703125 
 8011.1025390625 , 4720.9990234375 
 8216.8017578125 , 4694.8662109375 
 8422.482421875 , 4668.6025390625 
 8628.150390625 , 4642.23095703125 
 8833.8056640625 , 4615.72705078125 
 9039.4453125 , 4589.13818359375 
 9245.078125 , 4562.48828125 
 9450.6806640625 , 4535.64404296875 
 9656.25 , 4508.57421875 
 9861.7724609375 , 4481.08203125 
 9937.4443359375 , 4488.359375 
 9741.3359375 , 4555.71435546875 
 9544.9365234375 , 4622.2177734375 
 9348.486328125 , 4688.57275390625 
 9152.0078125 , 4754.8349609375 
 8955.5361328125 , 4821.09521484375 
 8759.0576171875 , 4887.35791015625 
 8562.572265625 , 4953.5927734375 
 8366.046875 , 5019.716796875 
 8169.52099609375 , 5085.84033203125 
 7972.9951171875 , 5151.9638671875 
 7776.4697265625 , 5218.08740234375 
 7579.98583984375 , 5284.32421875 
 7383.5205078125 , 5350.6201171875 
 7187.01806640625 , 5416.80224609375 
 6989.39599609375 , 5479.56591796875 
 6790.64111328125 , 5538.63037109375 
 6590.9091796875 , 5594.33740234375 
 6390.3349609375 , 5646.90478515625 
 6189.001953125 , 5696.4638671875 
 5986.96142578125 , 5743.060546875 
 5784.24560546875 , 5786.6669921875 
 5580.89990234375 , 5827.1962890625 
 5376.92822265625 , 5864.4677734375 
 5172.34130859375 , 5898.1962890625 
 4967.1259765625 , 5927.87451171875 
 4761.3056640625 , 5952.98388671875 
 4554.92333984375 , 5972.80419921875 
 4347.9677734375 , 5985.4365234375 
 4140.7041015625 , 5984.888671875 
 4006.026123046875 , 6029.9111328125 
 4075.819580078125 , 6225.14892578125 
 4149.64306640625 , 6418.91162109375 
 4227.732421875 , 6610.982421875 
 4368.697265625 , 6607.3544921875 
 4551.802734375 , 6510.2373046875 
 4741.1142578125 , 6425.69287109375 
 4933.6171875 , 6348.66943359375 
 5128.31298828125 , 6277.369140625 
 5324.73876953125 , 6210.94677734375 
 5522.34033203125 , 6148.14208984375 
 5720.9189453125 , 6088.4775390625 
 5920.36962890625 , 6031.80712890625 
 6120.61767578125 , 5978.0205078125 
 6321.61279296875 , 5927.08154296875 
 6523.30224609375 , 5878.9423828125 
 6725.64111328125 , 5833.65673828125 
 6928.6064453125 , 5791.2392578125 
 7132.17919921875 , 5751.8232421875 
 7336.32568359375 , 5715.52392578125 
 7541.03173828125 , 5682.57666015625 
 7746.2998046875 , 5653.25146484375 
 7952.09033203125 , 5627.93896484375 
 8158.01318359375 , 5603.7021484375 
 8363.5927734375 , 5576.68408203125 
 8569.126953125 , 5549.26416015625 
 8774.62890625 , 5521.62353515625 
 8980.095703125 , 5493.8203125 
 9185.5556640625 , 5465.87548828125 
 9390.9951171875 , 5437.76025390625 
 9596.44921875 , 5409.77978515625 
 9801.9189453125 , 5381.90234375 
 10007.400390625 , 5354.109375 
 10212.89453125 , 5326.4306640625 
 10418.4169921875 , 5298.92626953125 
 10623.9658203125 , 5271.72998046875 
 10708.4541015625 , 5277.1259765625 
 10512.826171875 , 5345.85595703125 
 10316.88671875 , 5413.70751953125 
 10120.8720703125 , 5481.3349609375 
 9924.828125 , 5548.8603515625 
 9728.75390625 , 5616.3173828125 
 9532.6533203125 , 5683.66796875 
 9336.529296875 , 5750.9580078125 
 9140.369140625 , 5818.154296875 
 8944.1650390625 , 5885.2275390625 
 8747.9189453125 , 5952.18603515625 
 8551.671875 , 6019.14306640625 
 8355.6396484375 , 6086.7099609375 
 8159.8095703125 , 6154.86865234375 
 7964.17919921875 , 6223.5751953125 
 7768.27490234375 , 6291.51513671875 
 7571.01513671875 , 6355.38427734375 
 7372.625 , 6415.68994140625 
 7173.2998046875 , 6472.80029296875 
 6973.150390625 , 6526.974609375 
 6772.2724609375 , 6578.3720703125 
 6570.73095703125 , 6627.080078125 
 6368.56298828125 , 6673.11767578125 
 6165.783203125 , 6716.44091796875 
 5962.4228515625 , 6756.9306640625 
 5758.4921875 , 6794.388671875 
 5553.97900390625 , 6828.517578125 
 5348.86083984375 , 6858.96533203125 
 5143.27587890625 , 6885.79052734375 
 4936.84912109375 , 6905.23779296875 
 4729.6826171875 , 6913.28369140625 
 4522.3271484375 , 6914.3896484375 
 4383.40869140625 , 6958.462890625 
 4473.6728515625 , 7145.11669921875 
 4569.20458984375 , 7329.15234375 
 4667.20556640625 , 7511.865234375 
 4770.00830078125 , 7691.89990234375 
 4948.47265625 , 7598.56494140625 
 5134.2666015625 , 7506.52294921875 
 5324.01123046875 , 7422.96435546875 
 5516.44091796875 , 7345.76904296875 
 5710.63330078125 , 7273.078125 
 5906.23291015625 , 7204.265625 
 6103.00927734375 , 7138.873046875 
 6300.78271484375 , 7076.6142578125 
 6499.46923828125 , 7017.28173828125 
 6698.95654296875 , 6960.76318359375 
 6899.1962890625 , 6907.00048828125 
 7100.1943359375 , 6855.99169921875 
 7301.853515625 , 6807.8271484375 
 7504.232421875 , 6762.61669921875 
 7707.271484375 , 6720.59033203125 
 7911.01953125 , 6682.07421875 
 8115.45556640625 , 6647.5302734375 
 8320.642578125 , 6617.66845703125 
 8525.60546875 , 6586.4365234375 
 8730.3056640625 , 6553.37744140625 
 8934.9541015625 , 6519.97705078125 
 9139.546875 , 6486.34375 
 9344.1279296875 , 6452.52587890625 
 9548.67578125 , 6418.55224609375 
 9753.220703125 , 6384.4677734375 
 9957.748046875 , 6350.40869140625 
 10162.2880859375 , 6316.4931640625 
 10366.8876953125 , 6282.7119140625 
 10571.4814453125 , 6249.1171875 
 10776.1494140625 , 6215.796875 
 10980.9765625 , 6183.60400390625 
 10800.6787109375 , 6258.080078125 
 10606.5986328125 , 6331.0498046875 
 10412.5302734375 , 6404.04833984375 
 10218.6162109375 , 6477.49072265625 
 10024.6103515625 , 6550.67626953125 
 9830.5693359375 , 6623.7734375 
 9636.5078125 , 6696.7890625 
 9442.3798828125 , 6769.6787109375 
 9248.2607421875 , 6842.54248046875 
 9054.263671875 , 6915.7294921875 
 8860.2666015625 , 6988.953125 
 8666.3076171875 , 7062.24169921875 
 8472.3603515625 , 7135.62890625 
 8278.48828125 , 7209.1513671875 
 8084.4375 , 7282.2353515625 
 7888.78173828125 , 7350.8603515625 
 7691.95458984375 , 7416.087890625 
 7494.236328125 , 7478.50927734375 
 7295.71875 , 7538.37548828125 
 7096.43505859375 , 7595.6748046875 
 6896.37744140625 , 7650.14501953125 
 6695.4267578125 , 7701.25 
 6493.7939453125 , 7749.57861328125 
 6291.51513671875 , 7795.216796875 
 6088.5693359375 , 7837.6484375 
 5884.85205078125 , 7876.28125 
 5680.326171875 , 7910.3779296875 
 5474.9853515625 , 7939.134765625 
 5268.857421875 , 7961.6123046875 
 5062.1171875 , 7977.2587890625 
 4996.97607421875 , 8060.35546875 
 5113.25048828125 , 8232.03125 
 5232.2373046875 , 8401.8349609375 
 5378.234375 , 8430.8212890625 
 5558.70361328125 , 8328.9404296875 
 5745.4013671875 , 8238.720703125 
 5935.27734375 , 8155.44189453125 
 6128.03515625 , 8079.05517578125 
 6322.662109375 , 8007.5634765625 
 6518.6650390625 , 7939.9658203125 
 6715.85693359375 , 7875.802734375 
 6914.0283203125 , 7814.8212890625 
 7113.11962890625 , 7756.85400390625 
 7313.02783203125 , 7701.85791015625 
 7513.755859375 , 7649.8662109375 
 7715.2666015625 , 7601.02880859375 
 7917.5810546875 , 7555.60791015625 
 8120.7255859375 , 7514.04736328125 
 8324.734375 , 7477.08642578125 
 8529.5908203125 , 7444.970703125 
 8734.17578125 , 7411.33984375 
 8938.669921875 , 7376.9541015625 
 9143.083984375 , 7342.2255859375 
 9347.4892578125 , 7307.3046875 
 9551.845703125 , 7272.27392578125 
 9756.1865234375 , 7237.11181640625 
 9960.53125 , 7201.84130859375 
 10164.845703125 , 7166.52490234375 
 10369.1533203125 , 7131.07861328125 
 10573.44921875 , 7095.63037109375 
 10777.8330078125 , 7060.69140625 
 10982.4794921875 , 7027.38037109375 
 10867.1494140625 , 7085.2841796875 
 10674.0615234375 , 7160.8720703125 
 10480.78125 , 7235.91455078125 
 10287.35546875 , 7310.66162109375 
 10093.849609375 , 7385.15283203125 
 9900.28515625 , 7459.52294921875 
 9706.67578125 , 7533.73193359375 
 9513.0029296875 , 7607.75048828125 
 9319.2763671875 , 7681.6962890625 
 9125.5302734375 , 7755.5419921875 
 8931.9892578125 , 7829.96875 
 8738.98828125 , 7905.7587890625 
 8545.9208984375 , 7981.3837890625 
 8351.65625 , 8053.8828125 
 8156.2119140625 , 8123.1005859375 
 7959.66357421875 , 8189.166015625 
 7762.126953125 , 8252.1611328125 
 7563.62939453125 , 8312.1318359375 
 7364.2431640625 , 8369.0458984375 
 7163.9931640625 , 8422.85546875 
 6962.9189453125 , 8473.431640625 
 6760.99609375 , 8520.5849609375 
 6558.26025390625 , 8564.037109375 
 6354.69189453125 , 8603.3837890625 
 6150.2470703125 , 8638.0595703125 
 5944.97314453125 , 8667.193359375 
 5738.82958984375 , 8689.4990234375 
 5531.93359375 , 8702.8095703125 
 5546.92822265625 , 8808.794921875 
 5680.8056640625 , 8967.1142578125 
 5818.04150390625 , 9122.521484375 
 5983.9501953125 , 9081.66796875 
 6170.91748046875 , 8992.1982421875 
 6363.53759765625 , 8915.4931640625 
 6559.06298828125 , 8846.505859375 
 6756.484375 , 8783.083984375 
 6955.26904296875 , 8724.1650390625 
 7155.16796875 , 8669.12109375 
 7356.0419921875 , 8617.6337890625 
 7557.7314453125 , 8569.5830078125 
 7760.22509765625 , 8524.9697265625 
 7963.4677734375 , 8483.9580078125 
 8167.48193359375 , 8446.86328125 
 8372.23828125 , 8414.2509765625 
 8577.775390625 , 8386.9873046875 
 8783.8125 , 8363.5654296875 
 8989.6005859375 , 8338.2509765625 
 9195.3212890625 , 8312.1962890625 
 9400.98828125 , 8285.83203125 
 9606.642578125 , 8259.298828125 
 9812.2822265625 , 8232.767578125 
 10017.9189453125 , 8206.126953125 
 10223.544921875 , 8179.4052734375 
 10429.1962890625 , 8153.04736328125 
 10634.939453125 , 8127.201171875 
 10840.8212890625 , 8102.61083984375 
 10662.87109375 , 8171.1611328125 
 10466.6259765625 , 8238.080078125 
 10270.1669921875 , 8304.41015625 
 10073.728515625 , 8370.767578125 
 9877.2900390625 , 8437.125 
 9680.8359375 , 8503.4873046875 
 9484.3974609375 , 8569.8447265625 
 9287.9404296875 , 8636.1708984375 
 9091.44921875 , 8702.3740234375 
 8894.8779296875 , 8768.419921875 
 8698.228515625 , 8834.1357421875 
 8501.37109375 , 8899.234375 
 8303.40234375 , 8960.931640625 
 8104.0263671875 , 9017.8427734375 
 7903.51171875 , 9070.6640625 
 7702.07861328125 , 9119.7724609375 
 7499.7841796875 , 9165.365234375 
 7296.76904296875 , 9207.4453125 
 7093.0048828125 , 9245.857421875 
 6888.53125 , 9280.2470703125 
 6683.33251953125 , 9309.927734375 
 6477.32421875 , 9333.587890625 
 6270.544921875 , 9348.560546875 
 6063.234375 , 9351 
 6163.48779296875 , 9475.7744140625 
 6313.044921875 , 9619.375 
 6479.7646484375 , 9675.2392578125 
 6663.580078125 , 9579.50390625 
 6855.01318359375 , 9499.947265625 
 7050.3251953125 , 9430.3701171875 
 7247.787109375 , 9367.1005859375 
 7446.767578125 , 9308.8193359375 
 7646.962890625 , 9254.8408203125 
 7848.18359375 , 9204.8203125 
 8050.322265625 , 9158.6494140625 
 8253.3251953125 , 9116.3916015625 
 8457.15234375 , 9078.4306640625 
 8661.8525390625 , 9045.3212890625 
 8867.4013671875 , 9018.248046875 
 9073.5498046875 , 8995.84765625 
 9279.287109375 , 8970.1416015625 
 9484.9140625 , 8943.4560546875 
 9690.5419921875 , 8916.6328125 
 9896.15625 , 8889.98828125 
 10101.798828125 , 8863.3623046875 
 10307.416015625 , 8836.7001953125 
 10513.0400390625 , 8809.888671875 
 10718.6025390625 , 8782.740234375 
 10839.2392578125 , 8779.6044921875 
 10643.265625 , 8847.3974609375 
 10446.9013671875 , 8913.9365234375 
 10250.4013671875 , 8980.177734375 
 10053.857421875 , 9046.2216796875 
 9857.26171875 , 9112.1845703125 
 9660.673828125 , 9178.09765625 
 9464.19140625 , 9244.326171875 
 9267.7529296875 , 9310.7412109375 
 9071.4130859375 , 9377.3681640625 
 8875.2158203125 , 9444.4833984375 
 8677.7783203125 , 9507.8212890625 
 8478.751953125 , 9565.974609375 
 8278.458984375 , 9619.556640625 
 8077.0654296875 , 9668.91796875 
 7874.73095703125 , 9714.21484375 
 7671.5224609375 , 9755.412109375 
 7467.47021484375 , 9792.2802734375 
 7262.62744140625 , 9824.3310546875 
 7056.97216796875 , 9850.76171875 
 6850.53076171875 , 9870.0673828125 
 6643.6044921875 , 9883.3740234375 
 6760.1435546875 , 9998.1279296875 
 6925.80029296875 , 10122.8173828125 
 7095.8857421875 , 10111.3095703125 
 7280.1943359375 , 10016.8642578125 
 7473.3662109375 , 9941.552734375 
 7669.96923828125 , 9875.75 
 7868.6884765625 , 9816.5107421875 
 8068.89111328125 , 9762.6123046875 
 8270.330078125 , 9713.5126953125 
 8472.896484375 , 9669.1845703125 
 8676.482421875 , 9629.9169921875 
 8881.111328125 , 9596.4482421875 
 9086.728515625 , 9569.84375 
 9292.5869140625 , 9544.947265625 
 9498.3388671875 , 9519.361328125 
 9704.0244140625 , 9493.1875 
 9909.6845703125 , 9466.6484375 
 10115.2939453125 , 9439.8349609375 
 10320.919921875 , 9413.1162109375 
 10526.65625 , 9387.30078125 
 10634.3583984375 , 9388.740234375 
 10438.453125 , 9456.68359375 
 10242.0107421875 , 9523.0771484375 
 10045.4990234375 , 9589.2177734375 
 9848.9873046875 , 9655.3583984375 
 9652.4140625 , 9721.384765625 
 9455.8603515625 , 9787.3984375 
 9259.1982421875 , 9853.123046875 
 9062.3720703125 , 9918.3427734375 
 8865.044921875 , 9982.03125 
 8666.06640625 , 10040.2626953125 
 8465.0517578125 , 10091.11328125 
 8263.0576171875 , 10137.951171875 
 8059.98779296875 , 10179.8349609375 
 7855.849609375 , 10216.166015625 
 7650.6455078125 , 10245.79296875 
 7444.33349609375 , 10266.4267578125 
 7237.15625 , 10273.91015625 
 7248.74560546875 , 10344.857421875 
 7427.14501953125 , 10450.4990234375 
 7611.888671875 , 10413.8486328125 
 7809.333984375 , 10350.76953125 
 8010.90087890625 , 10302.3076171875 
 8214.4140625 , 10262.59765625 
 8419.130859375 , 10229.8017578125 
 8624.7724609375 , 10203.349609375 
 8831.1962890625 , 10183.658203125 
 9038.240234375 , 10172.5205078125 
 9245.4296875 , 10164.3017578125 
 9452.6689453125 , 10157.9013671875 
 9659.9287109375 , 10151.47265625 
 9867.1767578125 , 10144.8974609375 
 10074.3935546875 , 10137.87109375 
 10281.6162109375 , 10130.4638671875 
 10433.2529296875 , 10137.15625 
 10231.47265625 , 10184.896484375 
 10029.408203125 , 10231.3642578125 
 9827.353515625 , 10277.96875 
 9625.38671875 , 10324.8828125 
 9423.521484375 , 10372.2607421875 
 9221.8447265625 , 10420.4248046875 
 9019.32421875 , 10464.86328125 
 8815.7001953125 , 10504.017578125 
 8611.0048828125 , 10537.0166015625 
 8405.3349609375 , 10563.2822265625 
 8198.9013671875 , 10582.646484375 
 7991.9521484375 , 10595.4296875 
 7784.7705078125 , 10603.6318359375 
 7908.3095703125 , 10668.583984375 
 8105.98046875 , 10664.427734375 
 8310.5419921875 , 10631.560546875 
 8517.267578125 , 10615.7548828125 
 8724.5107421875 , 10610.0498046875 
 8931.8291015625 , 10613.568359375 
 9138.7763671875 , 10626.0185546875 
 9345.056640625 , 10646.9541015625 
 9550.947265625 , 10671.6298828125 
 9756.974609375 , 10694.943359375 
 9963.1083984375 , 10717.5703125 
 10169.0537109375 , 10741.4931640625 
 10166.2373046875 , 10767.2861328125 
 9959.6259765625 , 10784.6474609375 
 9753.0419921875 , 10802.333984375 
 9546.455078125 , 10820.220703125 
 9339.875 , 10838.0986328125 
 9133.16796875 , 10854.0927734375 
 8925.87890625 , 10858.837890625 
 8718.537109375 , 10858.1142578125 
 8511.3896484375 , 10849.8115234375 
 8524.6923828125 , 10902.216796875 
 8699.2041015625 , 11014.119140625 
 8881.5390625 , 11111.458984375 
 9014.0712890625 , 11255.6435546875 
 9167.4677734375 , 11395.16015625 
 9319.7880859375 , 11535.8603515625 
 9472.341796875 , 11676.2822265625 
 9571.7216796875 , 11780.580078125 
 9394.080078125 , 11673.66015625 
 9216.5712890625 , 11566.5166015625 
 9039.5927734375 , 11458.4404296875 
 8865.5166015625 , 11345.837890625 
 8696.6083984375 , 11225.568359375 
 8533.19140625 , 11098.3447265625 
 8344.087890625 , 11013.67578125 
 8351.9521484375 , 11160.8671875 
 8409.154296875 , 11360.1396484375 
 8455.49609375 , 11562.2275390625 
 8492.701171875 , 11766.185546875 
 8520.8720703125 , 11971.615234375 
 8547.0498046875 , 12177.3017578125 
 8573.560546875 , 12382.9580078125 
 8599.0625 , 12588.736328125 
 8567.8564453125 , 12574.14453125 
 8500.8115234375 , 12377.9189453125 
 8435.0771484375 , 12181.26171875 
 8370.1943359375 , 11984.326171875 
 8306.3466796875 , 11787.0498046875 
 8247.5859375 , 11588.25 
 8204.5205078125 , 11385.4580078125 
 8169.8046875 , 11181.029296875 
 8149.84716796875 , 10974.8193359375 
 7998.93017578125 , 10860.560546875 
 7813.0166015625 , 10768.7080078125 
 7634.7119140625 , 10695.8115234375 
 7594.21533203125 , 10899.1259765625 
 7544.8173828125 , 11100.4853515625 
 7487.76171875 , 11299.81640625 
 7424.2763671875 , 11497.203125 
 7352.7333984375 , 11691.7861328125 
 7272.8623046875 , 11883.1435546875 
 7192.92236328125 , 12074.4638671875 
 7113.00830078125 , 12265.8056640625 
 7033.17333984375 , 12457.1494140625 
 6953.3505859375 , 12648.544921875 
 "/>
</svg>
