<svg xmlns="http://www.w3.org/2000/svg">
    <polyline points="
 3030 , 11798 
 2987.39892578125 , 11732.6083984375 
 2978.101806640625 , 11652.4619140625 
 2974.662841796875 , 11571.7880859375 
 2973.0224609375 , 11491.0537109375 
 2972.148193359375 , 11410.3076171875 
 2971.64990234375 , 11329.5576171875 
 2971.37451171875 , 11248.8076171875 
 2971.174072265625 , 11168.056640625 
 2971.0390625 , 11087.3046875 
 2970.83203125 , 11006.5546875 
 2970.59619140625 , 10925.8037109375 
 2970.266845703125 , 10845.052734375 
 2969.78955078125 , 10764.302734375 
 2969.068603515625 , 10683.5546875 
 2967.97802734375 , 10602.8115234375 
 2965.980224609375 , 10522.0859375 
 2957.36083984375 , 10442.4912109375 
 2882.73974609375 , 10411.9794921875 
 2807.9599609375 , 10381.697265625 
 2738.404541015625 , 10340.8115234375 
 2675.111572265625 , 10290.7607421875 
 2618.7587890625 , 10232.998046875 
 2569.8701171875 , 10168.7890625 
 2528.901123046875 , 10099.2568359375 
 2496.30712890625 , 10025.42578125 
 2472.51904296875 , 9948.306640625 
 2451.55126953125 , 9870.34765625 
 2385.471435546875 , 9845.853515625 
 2304.74267578125 , 9843.95703125 
 2224.003662109375 , 9842.552734375 
 2143.260498046875 , 9841.4140625 
 2062.514892578125 , 9840.46484375 
 1981.767578125 , 9839.6806640625 
 1901.0194091796875 , 9838.9775390625 
 1820.270263671875 , 9838.396484375 
 1739.520263671875 , 9837.9375 
 1658.7698974609375 , 9837.5615234375 
 1578.01953125 , 9837.1865234375 
 1497.2694091796875 , 9836.78125 
 1416.51953125 , 9836.3017578125 
 1335.7703857421875 , 9835.6865234375 
 1255.0240478515625 , 9834.8154296875 
 1174.2886962890625 , 9833.259765625 
 1093.6561279296875 , 9829.1650390625 
 1024.0924072265625 , 9794.46875 
 994.772216796875 , 9720.1181640625 
 993.356689453125 , 9639.6865234375 
 1025.9569091796875 , 9567 
 1093.82861328125 , 9525.607421875 
 1174.1546630859375 , 9518.1982421875 
 1254.873046875 , 9515.9599609375 
 1335.6158447265625 , 9514.7744140625 
 1416.3629150390625 , 9514.013671875 
 1497.1124267578125 , 9513.4326171875 
 1577.8623046875 , 9512.958984375 
 1658.6121826171875 , 9512.556640625 
 1739.3626708984375 , 9512.1533203125 
 1820.1126708984375 , 9511.7802734375 
 1900.8634033203125 , 9511.3857421875 
 1981.6131591796875 , 9510.90234375 
 2062.36181640625 , 9510.294921875 
 2143.109619140625 , 9509.515625 
 2223.853515625 , 9508.451171875 
 2304.589111328125 , 9506.873046875 
 2385.28955078125 , 9504.0888671875 
 2447.011962890625 , 9474.4658203125 
 2450.293212890625 , 9393.8173828125 
 2447.885498046875 , 9313.1162109375 
 2420.188232421875 , 9248.0517578125 
 2339.5634765625 , 9243.8720703125 
 2258.829345703125 , 9242.2216796875 
 2178.0830078125 , 9241.306640625 
 2097.333984375 , 9240.73828125 
 2016.5838623046875 , 9240.376953125 
 1935.8330078125 , 9240.1611328125 
 1855.08154296875 , 9240.083984375 
 1774.330078125 , 9240.0166015625 
 1693.5791015625 , 9239.9775390625 
 1612.82763671875 , 9239.9482421875 
 1532.0765380859375 , 9239.904296875 
 1451.325439453125 , 9239.7744140625 
 1370.5745849609375 , 9239.513671875 
 1289.82470703125 , 9239.037109375 
 1209.0802001953125 , 9238.0263671875 
 1128.370849609375 , 9235.5595703125 
 1049.4407958984375 , 9221.6962890625 
 1001.113525390625 , 9159.7470703125 
 990.9989624023438 , 9079.9013671875 
 1005.7730712890625 , 9001.201171875 
 1058.7928466796875 , 8941.8369140625 
 1137.8372802734375 , 8928.767578125 
 1218.5369873046875 , 8925.9677734375 
 1299.27392578125 , 8924.4501953125 
 1380.01806640625 , 8923.384765625 
 1460.764404296875 , 8922.521484375 
 1541.512451171875 , 8921.7734375 
 1622.2603759765625 , 8921.099609375 
 1703.0091552734375 , 8920.4306640625 
 1783.757568359375 , 8919.7490234375 
 1864.505126953125 , 8918.994140625 
 1945.251708984375 , 8918.126953125 
 2025.9964599609375 , 8917.12890625 
 2106.739990234375 , 8915.986328125 
 2187.48095703125 , 8914.68359375 
 2268.21728515625 , 8913.1396484375 
 2348.945068359375 , 8911.2265625 
 2429.630859375 , 8908.072265625 
 2448.709716796875 , 8836.0869140625 
 2450.807861328125 , 8755.375 
 2446.2626953125 , 8674.8291015625 
 2374.7412109375 , 8654.2470703125 
 2294.023193359375 , 8652.0537109375 
 2213.2783203125 , 8651.080078125 
 2132.5283203125 , 8650.5712890625 
 2051.777099609375 , 8650.27734375 
 1971.0263671875 , 8650.119140625 
 1890.2744140625 , 8650.0693359375 
 1809.5234375 , 8650.0244140625 
 1728.7724609375 , 8649.986328125 
 1648.0205078125 , 8649.9560546875 
 1567.26953125 , 8649.9267578125 
 1486.518798828125 , 8649.814453125 
 1405.767578125 , 8649.59765625 
 1325.016845703125 , 8649.1806640625 
 1244.2703857421875 , 8648.34765625 
 1163.542724609375 , 8646.4892578125 
 1083.1396484375 , 8639.8056640625 
 1017.6851196289062 , 8595.927734375 
 991.6448974609375 , 8520.3662109375 
 994.959228515625 , 8440.0185546875 
 1032.3192138671875 , 8369.767578125 
 1103.22216796875 , 8333.8515625 
 1183.704833984375 , 8327.826171875 
 1264.4300537109375 , 8325.7861328125 
 1345.1729736328125 , 8324.6689453125 
 1425.920654296875 , 8323.939453125 
 1506.6708984375 , 8323.373046875 
 1587.4202880859375 , 8322.912109375 
 1668.170166015625 , 8322.5087890625 
 1748.920166015625 , 8322.10546875 
 1829.671630859375 , 8321.73828125 
 1910.42138671875 , 8321.3349609375 
 1991.1710205078125 , 8320.837890625 
 2071.92041015625 , 8320.21484375 
 2152.667236328125 , 8319.41015625 
 2233.410400390625 , 8318.2978515625 
 2314.145263671875 , 8316.63671875 
 2394.833984375 , 8313.568359375 
 2447.76708984375 , 8274.921875 
 2450.025146484375 , 8194.2255859375 
 2447.076171875 , 8113.54345703125 
 2408.243408203125 , 8056.544921875 
 2327.619140625 , 8052.427734375 
 2246.877685546875 , 8051.15576171875 
 2166.129638671875 , 8050.56591796875 
 2085.37939453125 , 8050.2802734375 
 2004.6279296875 , 8050.12451171875 
 1923.8759765625 , 8050.06005859375 
 1843.125 , 8050.03125 
 1762.3740234375 , 8050.001953125 
 1681.6220703125 , 8049.97216796875 
 1600.87109375 , 8049.9423828125 
 1520.1202392578125 , 8049.88330078125 
 1439.368896484375 , 8049.73193359375 
 1358.6182861328125 , 8049.43408203125 
 1277.869384765625 , 8048.8857421875 
 1197.126708984375 , 8047.7197265625 
 1116.4398193359375 , 8044.654296875 
 1039.3739013671875 , 8024.681640625 
 997.2802124023438 , 7958.18359375 
 991.108154296875 , 7877.86474609375 
 1011.2823486328125 , 7800.50048828125 
 1069.754638671875 , 7746.939453125 
 1149.8623046875 , 7738.1806640625 
 1230.572509765625 , 7735.70068359375 
 1311.3111572265625 , 7734.2724609375 
 1392.0550537109375 , 7733.24609375 
 1472.802978515625 , 7732.40966796875 
 1553.5509033203125 , 7731.6689453125 
 1634.299072265625 , 7731 
 1715.0482177734375 , 7730.3310546875 
 1795.7967529296875 , 7729.64306640625 
 1876.5435791015625 , 7728.875 
 1957.2896728515625 , 7727.98974609375 
 2038.035400390625 , 7726.96533203125 
 2118.77783203125 , 7725.8056640625 
 2199.51708984375 , 7724.46435546875 
 2280.254150390625 , 7722.88671875 
 2360.97998046875 , 7720.88427734375 
 2440.039794921875 , 7714.11181640625 
 2449.163330078125 , 7634.10791015625 
 2450.07373046875 , 7553.3740234375 
 2442.193115234375 , 7473.330078125 
 2362.630615234375 , 7464.5078125 
 2281.90478515625 , 7462.49609375 
 2201.161376953125 , 7461.435546875 
 2120.41259765625 , 7460.81591796875 
 2039.6617431640625 , 7460.4248046875 
 1958.9111328125 , 7460.18994140625 
 1878.160400390625 , 7460.0634765625 
 1797.4091796875 , 7460.0126953125 
 1716.658203125 , 7459.97314453125 
 1635.90625 , 7459.9267578125 
 1555.1549072265625 , 7459.87548828125 
 1474.403076171875 , 7459.71142578125 
 1393.6551513671875 , 7459.4072265625 
 1312.905029296875 , 7458.861328125 
 1232.1593017578125 , 7457.83642578125 
 1151.442626953125 , 7455.572265625 
 1071.3621826171875 , 7446.60791015625 
 1011.1908569335938 , 7395.5634765625 
 990.5709228515625 , 7318.1787109375 
 997.9901733398438 , 7238.16650390625 
 1041.5001220703125 , 7171.68310546875 
 1115.345947265625 , 7142.2060546875 
 1195.9339599609375 , 7137.404296875 
 1276.6646728515625 , 7135.57470703125 
 1357.406494140625 , 7134.533203125 
 1438.1556396484375 , 7133.84423828125 
 1518.906982421875 , 7133.29736328125 
 1599.6544189453125 , 7132.8505859375 
 1680.4053955078125 , 7132.447265625 
 1761.1563720703125 , 7132.0439453125 
 1841.906494140625 , 7131.68408203125 
 1922.6566162109375 , 7131.265625 
 2003.4046630859375 , 7130.75146484375 
 2084.154296875 , 7130.10693359375 
 2164.901611328125 , 7129.24169921875 
 2245.643310546875 , 7128.07568359375 
 2326.374267578125 , 7126.28125 
 2407.044189453125 , 7122.7548828125 
 2447.70263671875 , 7072.47900390625 
 2449.998291015625 , 6991.7734375 
 2448.374267578125 , 6911.05322265625 
 2397.25341796875 , 6866.6767578125 
 2316.547607421875 , 6864.02783203125 
 2235.80810546875 , 6862.5859375 
 2155.064208984375 , 6861.62060546875 
 2074.315673828125 , 6860.97216796875 
 1993.56396484375 , 6860.5224609375 
 1912.8143310546875 , 6860.22802734375 
 1832.063720703125 , 6860.06201171875 
 1751.3125 , 6860.0048828125 
 1670.560546875 , 6859.97314453125 
 1589.80859375 , 6859.943359375 
 1509.0592041015625 , 6859.88671875 
 1428.306396484375 , 6859.7373046875 
 1347.5548095703125 , 6859.45654296875 
 1266.807861328125 , 6858.892578125 
 1186.064208984375 , 6857.71875 
 1105.3814697265625 , 6854.56005859375 
 1030.550048828125 , 6830.25830078125 
 995.4362182617188 , 6758.6201171875 
 990.40087890625 , 6678.38525390625 
 1016.9009399414062 , 6603.10107421875 
 1080.2135009765625 , 6558.0966796875 
 1160.3963623046875 , 6549.1572265625 
 1241.083740234375 , 6546.02978515625 
 1321.8197021484375 , 6544.53515625 
 1402.5655517578125 , 6543.7119140625 
 1483.31689453125 , 6543.17724609375 
 1564.068115234375 , 6542.8037109375 
 1644.8173828125 , 6542.470703125 
 1725.568603515625 , 6542.1376953125 
 1806.3199462890625 , 6541.77587890625 
 1887.0689697265625 , 6541.35009765625 
 1967.8187255859375 , 6540.83349609375 
 2048.56884765625 , 6540.201171875 
 2129.313720703125 , 6539.40087890625 
 2210.058837890625 , 6538.3525390625 
 2290.79833984375 , 6536.919921875 
 2371.514892578125 , 6534.61083984375 
 2442.53125 , 6515.38330078125 
 2450.075927734375 , 6435.083984375 
 2449.69091796875 , 6354.353515625 
 2431.6669921875 , 6279.71484375 
 2351.164794921875 , 6274.19775390625 
 2270.43359375 , 6272.37646484375 
 2189.68798828125 , 6271.3779296875 
 2108.94091796875 , 6270.7861328125 
 2028.1905517578125 , 6270.4052734375 
 1947.439453125 , 6270.17578125 
 1866.689208984375 , 6270.05419921875 
 1785.9375 , 6270.00927734375 
 1705.18505859375 , 6269.9990234375 
 1624.435546875 , 6269.9912109375 
 1543.68359375 , 6269.94580078125 
 1462.9320068359375 , 6269.8203125 
 1382.182861328125 , 6269.517578125 
 1301.4337158203125 , 6268.8603515625 
 1220.69482421875 , 6267.45458984375 
 1140.0162353515625 , 6264.1650390625 
 1060.1358642578125 , 6253.3349609375 
 1006.22412109375 , 6198.091796875 
 992.8104858398438 , 6118.6513671875 
 1000.3407592773438 , 6038.6943359375 
 1048.7318115234375 , 5976.1015625 
 1124.4241943359375 , 5951.2646484375 
 1205.0567626953125 , 5947.12451171875 
 1285.78857421875 , 5945.43505859375 
 1366.5343017578125 , 5944.44482421875 
 1447.2822265625 , 5943.763671875 
 1528.03173828125 , 5943.2412109375 
 1608.78125 , 5942.80517578125 
 1689.5322265625 , 5942.40185546875 
 1770.2821044921875 , 5941.99853515625 
 1851.0333251953125 , 5941.64404296875 
 1931.7833251953125 , 5941.21630859375 
 2012.5313720703125 , 5940.6904296875 
 2093.2802734375 , 5940.02001953125 
 2174.027587890625 , 5939.14208984375 
 2254.76904296875 , 5937.91357421875 
 2335.4970703125 , 5936.0087890625 
 2416.139404296875 , 5932.02587890625 
 2448.3330078125 , 5873.3837890625 
 2449.96142578125 , 5792.66015625 
 2445.697509765625 , 5712.10400390625 
 2384.927734375 , 5674.966796875 
 2304.23291015625 , 5672.10888671875 
 2223.489501953125 , 5671.033203125 
 2142.739990234375 , 5670.53173828125 
 2061.988525390625 , 5670.2568359375 
 1981.23828125 , 5670.1123046875 
 1900.486328125 , 5670.052734375 
 1819.734375 , 5670.02490234375 
 1738.984130859375 , 5670.01318359375 
 1658.2322998046875 , 5670.12109375 
 1577.48046875 , 5670.22900390625 
 1496.730224609375 , 5670.30712890625 
 1415.978515625 , 5670.30908203125 
 1335.2293701171875 , 5670.19091796875 
 1254.478271484375 , 5669.76611328125 
 1173.73486328125 , 5668.6337890625 
 1093.101806640625 , 5664.6806640625 
 1022.7681274414062 , 5630.3955078125 
 993.543701171875 , 5556.14599609375 
 991.9993896484375 , 5475.66064453125 
 1025.02587890625 , 5403.31884765625 
 1093.5015869140625 , 5362.3515625 
 1173.67431640625 , 5353.88671875 
 1254.3941650390625 , 5351.76220703125 
 1335.1412353515625 , 5350.85107421875 
 1415.8905029296875 , 5350.41357421875 
 1496.6427001953125 , 5350.1865234375 
 1577.39453125 , 5350.07421875 
 1658.14453125 , 5350.04296875 
 1738.896484375 , 5350.01220703125 
 1819.64794921875 , 5349.97998046875 
 1900.3984375 , 5349.908203125 
 1981.1510009765625 , 5349.75146484375 
 2061.900634765625 , 5349.4755859375 
 2142.64990234375 , 5349.03369140625 
 2223.398681640625 , 5348.296875 
 2304.138671875 , 5347.041015625 
 2384.847412109375 , 5344.50390625 
 2445.48388671875 , 5312.43408203125 
 2450.624267578125 , 5231.8994140625 
 2448.8251953125 , 5151.1884765625 
 2418.5556640625 , 5087.86376953125 
 2337.9228515625 , 5083.8037109375 
 2257.1875 , 5082.181640625 
 2176.440673828125 , 5081.26611328125 
 2095.693115234375 , 5080.71484375 
 2014.94091796875 , 5080.3583984375 
 1934.189453125 , 5080.1474609375 
 1853.43994140625 , 5080.03955078125 
 1772.6875 , 5080.0048828125 
 1691.937744140625 , 5079.990234375 
 1611.185546875 , 5079.958984375 
 1530.4342041015625 , 5079.88623046875 
 1449.683349609375 , 5079.734375 
 1368.931640625 , 5079.4541015625 
 1288.18310546875 , 5078.88720703125 
 1207.44189453125 , 5077.72607421875 
 1126.7509765625 , 5074.72607421875 
 1049.2615966796875 , 5055.9794921875 
 1001.1846923828125 , 4992.9580078125 
 990.1034545898438 , 4913.4384765625 
 1005.9288940429688 , 4834.84521484375 
 1062.1571044921875 , 4779.1513671875 
 1139.7677001953125 , 4758.2880859375 
 1220.4493408203125 , 4755.10888671875 
 1301.1837158203125 , 4753.484375 
 1381.9273681640625 , 4752.35400390625 
 1462.6728515625 , 4751.4990234375 
 1543.4224853515625 , 4750.880859375 
 1624.1727294921875 , 4750.42822265625 
 1704.9222412109375 , 4750.1494140625 
 1785.673828125 , 4750.02197265625 
 1866.4248046875 , 4749.98681640625 
 1947.17578125 , 4749.94189453125 
 2027.9268798828125 , 4749.833984375 
 2108.679931640625 , 4749.6181640625 
 2189.42919921875 , 4749.2333984375 
 2270.1767578125 , 4748.4755859375 
 2350.910400390625 , 4746.85302734375 
 2431.345703125 , 4740.73876953125 
 2449.458984375 , 4668.44189453125 
 2449.275146484375 , 4587.697265625 
 2443.5029296875 , 4507.2373046875 
 2366.444091796875 , 4495.91455078125 
 2285.727294921875 , 4493.59814453125 
 2204.989013671875 , 4492.1171875 
 2124.244873046875 , 4491.025390625 
 2043.499755859375 , 4490.154296875 
 1962.7489013671875 , 4489.427734375 
 1882.0015869140625 , 4488.80712890625 
 1801.2530517578125 , 4488.26318359375 
 1720.5 , 4487.81396484375 
 1639.7508544921875 , 4487.43310546875 
 1559.001708984375 , 4487.05224609375 
 1478.2532958984375 , 4486.619140625 
 1397.49951171875 , 4486.10107421875 
 1316.7557373046875 , 4485.42822265625 
 1236.012451171875 , 4484.37548828125 
 1155.2855224609375 , 4482.34033203125 
 1074.9559326171875 , 4475.0927734375 
 1012.5089721679688 , 4427.345703125 
 992.0181274414062 , 4349.9541015625 
 995.8878173828125 , 4269.5908203125 
 1037.13525390625 , 4201.91455078125 
 1109.8497314453125 , 4169.04052734375 
 1190.3504638671875 , 4163.25634765625 
 1271.0794677734375 , 4161.51416015625 
 1351.8302001953125 , 4160.73486328125 
 1432.581298828125 , 4160.34521484375 
 1513.3282470703125 , 4160.15966796875 
 1594.08203125 , 4160.06787109375 
 1674.83203125 , 4160.03662109375 
 1755.58203125 , 4160.00537109375 
 1836.33740234375 , 4159.97314453125 
 1917.0859375 , 4159.8857421875 
 1997.83642578125 , 4159.708984375 
 2078.58984375 , 4159.40771484375 
 2159.337158203125 , 4158.90576171875 
 2240.0849609375 , 4158.08984375 
 2320.822265625 , 4156.66943359375 
 2401.5078125 , 4153.55224609375 
 2447.45751953125 , 4105.8701171875 
 2450.74951171875 , 4025.2109375 
 2447.49853515625 , 3944.555419921875 
 2401.927978515625 , 3896.5 
 2321.240234375 , 3893.36767578125 
 2240.50048828125 , 3891.941650390625 
 2159.756103515625 , 3891.1201171875 
 2079.00390625 , 3890.609375 
 1998.255615234375 , 3890.30419921875 
 1917.505615234375 , 3890.1220703125 
 1836.75390625 , 3890.029296875 
 1756.000244140625 , 3889.999755859375 
 1675.250244140625 , 3889.998046875 
 1594.501953125 , 3889.972900390625 
 1513.74560546875 , 3889.913330078125 
 1432.994873046875 , 3889.729248046875 
 1352.2459716796875 , 3889.3095703125 
 1271.499267578125 , 3888.4140625 
 1190.7723388671875 , 3886.467529296875 
 1110.1888427734375 , 3881.54541015625 
 1033.5462646484375 , 3859.6689453125 
 998.1234130859375 , 3789.018798828125 
 995.1318359375 , 3708.400146484375 
 1013.9912719726562 , 3631.8388671875 
 1076.0281982421875 , 3582.15185546875 
 1155.695068359375 , 3570.075927734375 
 1236.357177734375 , 3566.3916015625 
 1317.0880126953125 , 3564.71875 
 1397.8331298828125 , 3563.820556640625 
 1478.583984375 , 3563.257568359375 
 1559.3338623046875 , 3562.8671875 
 1640.0831298828125 , 3562.534912109375 
 1720.8363037109375 , 3562.202392578125 
 1801.5843505859375 , 3561.801025390625 
 1882.33544921875 , 3561.277099609375 
 1963.08544921875 , 3560.6943359375 
 2043.833740234375 , 3560.024658203125 
 2124.57958984375 , 3559.227783203125 
 2205.32763671875 , 3558.232421875 
 2286.0634765625 , 3556.847412109375 
 2366.7822265625 , 3554.602783203125 
 2443.90478515625 , 3542.705810546875 
 2450.298095703125 , 3462.398681640625 
 2448.163818359375 , 3381.688720703125 
 2427.667236328125 , 3309.894775390625 
 2347.05908203125 , 3305.35107421875 
 2266.339111328125 , 3303.201416015625 
 2185.601318359375 , 3301.735107421875 
 2104.85595703125 , 3300.640625 
 2024.1126708984375 , 3299.780517578125 
 1943.3643798828125 , 3299.11279296875 
 1862.613525390625 , 3298.568115234375 
 1781.8629150390625 , 3298.134033203125 
 1701.11328125 , 3297.732421875 
 1620.3603515625 , 3297.331298828125 
 1539.611328125 , 3296.930419921875 
 1458.8643798828125 , 3296.436767578125 
 1378.1131591796875 , 3295.834228515625 
 1297.367431640625 , 3295.000244140625 
 1216.62548828125 , 3293.694580078125 
 1135.91943359375 , 3291.010986328125 
 1056.7220458984375 , 3278.114990234375 
 1004.6578979492188 , 3218.813232421875 
 991.0902709960938 , 3139.612060546875 
 1004.1443481445312 , 3060.544189453125 
 1054.1982421875 , 2998.68359375 
 1131.59521484375 , 2979.763671875 
 1212.269287109375 , 2976.37255859375 
 1293.0018310546875 , 2974.697021484375 
 1373.7474365234375 , 2973.577880859375 
 1454.492431640625 , 2972.71435546875 
 1535.2413330078125 , 2971.97314453125 
 1615.989501953125 , 2971.31494140625 
 1696.737060546875 , 2970.686767578125 
 1777.484619140625 , 2970.05859375 
 1858.23486328125 , 2969.46923828125 
 1938.9827880859375 , 2968.88427734375 
 2019.730712890625 , 2968.299072265625 
 2100.482421875 , 2967.7138671875 
 2181.23046875 , 2967.128662109375 
 2261.978271484375 , 2966.543701171875 
 2342.72607421875 , 2965.95849609375 
 2423.47802734375 , 2965.373291015625 
 2488.67529296875 , 2939.1689453125 
 2526.610595703125 , 2867.885009765625 
 2569.672119140625 , 2799.617919921875 
 2620.165283203125 , 2736.66357421875 
 2677.7822265625 , 2680.1591796875 
 2741.909912109375 , 2631.16748046875 
 2811.647705078125 , 2590.55908203125 
 2885.72607421875 , 2558.5048828125 
 2954.923095703125 , 2521.6572265625 
 2961.992431640625 , 2441.3134765625 
 2964.35205078125 , 2360.59912109375 
 2965.791259765625 , 2279.8583984375 
 2966.82958984375 , 2199.1162109375 
 2967.65625 , 2118.368408203125 
 2968.359375 , 2037.620361328125 
 2968.980224609375 , 1956.8720703125 
 2969.54931640625 , 1876.12353515625 
 2970.1064453125 , 1795.37255859375 
 2970.73681640625 , 1714.625 
 2971.366943359375 , 1633.87744140625 
 2972.029052734375 , 1553.125732421875 
 2972.76220703125 , 1472.380126953125 
 2973.59765625 , 1391.634765625 
 2974.656494140625 , 1310.884033203125 
 2976.162109375 , 1230.1510009765625 
 2978.896240234375 , 1149.4500732421875 
 2989.412841796875 , 1069.6556396484375 
 3042.27490234375 , 1010.400146484375 
 3119.545166015625 , 990.070068359375 
 3198.69970703125 , 1002.9015502929688 
 3259.113525390625 , 1054.353759765625 
 3279.38623046875 , 1131.5655517578125 
 3282.974365234375 , 1212.225341796875 
 3284.545654296875 , 1292.965087890625 
 3285.496826171875 , 1373.7081298828125 
 3286.156982421875 , 1454.4569091796875 
 3286.66455078125 , 1535.207763671875 
 3287.09912109375 , 1615.959228515625 
 3287.48388671875 , 1696.708251953125 
 3287.86865234375 , 1777.4613037109375 
 3288.214599609375 , 1858.2122802734375 
 3288.56884765625 , 1938.9615478515625 
 3288.986083984375 , 2019.7108154296875 
 3289.4951171875 , 2100.4619140625 
 3290.138427734375 , 2181.208984375 
 3290.97998046875 , 2261.95703125 
 3292.218505859375 , 2342.697998046875 
 3294.262451171875 , 2423.420166015625 
 3299.938720703125 , 2503.924560546875 
 3374.400146484375 , 2518.805419921875 
 3455.14208984375 , 2519.260986328125 
 3535.732421875 , 2514.847412109375 
 3554.446044921875 , 2443.72265625 
 3556.940673828125 , 2363.013427734375 
 3558.427490234375 , 2282.275146484375 
 3559.458740234375 , 2201.531982421875 
 3560.2158203125 , 2120.784912109375 
 3560.8134765625 , 2040.0340576171875 
 3561.29541015625 , 1959.284912109375 
 3561.691650390625 , 1878.5345458984375 
 3562.0283203125 , 1797.7794189453125 
 3562.343505859375 , 1717.030029296875 
 3562.658935546875 , 1636.2806396484375 
 3562.974365234375 , 1555.52734375 
 3563.393310546875 , 1474.7799072265625 
 3563.974365234375 , 1394.0341796875 
 3564.92138671875 , 1313.2830810546875 
 3566.668212890625 , 1232.5552978515625 
 3570.500244140625 , 1151.89990234375 
 3583.21484375 , 1072.3604736328125 
 3634.748046875 , 1011.9172973632812 
 3711.91357421875 , 990.86572265625 
 3791.38916015625 , 1001.3187866210938 
 3853.8095703125 , 1049.7730712890625 
 3868.9697265625 , 1128.726318359375 
 3873.195068359375 , 1209.3575439453125 
 3875.05908203125 , 1290.09228515625 
 3876.04541015625 , 1370.8353271484375 
 3876.630615234375 , 1451.58056640625 
 3877.04150390625 , 1532.3370361328125 
 3877.3515625 , 1613.08642578125 
 3877.6533203125 , 1693.8326416015625 
 3877.947509765625 , 1774.5860595703125 
 3878.297119140625 , 1855.3369140625 
 3878.71240234375 , 1936.0843505859375 
 3879.210205078125 , 2016.836669921875 
 3879.8134765625 , 2097.582275390625 
 3880.565673828125 , 2178.329345703125 
 3881.52490234375 , 2259.077880859375 
 3882.82958984375 , 2339.81982421875 
 3884.782470703125 , 2420.54443359375 
 3889.42724609375 , 2501.13330078125 
 3963.859375 , 2519.46337890625 
 4044.579833984375 , 2520.81787109375 
 4125.07861328125 , 2515.213623046875 
 4154.5166015625 , 2452.197509765625 
 4156.9658203125 , 2371.48681640625 
 4158.20458984375 , 2290.744384765625 
 4158.94677734375 , 2209.995849609375 
 4159.4130859375 , 2129.24951171875 
 4159.7021484375 , 2048.495849609375 
 4159.876953125 , 1967.74609375 
 4159.96875 , 1886.99609375 
 4160 , 1806.24609375 
 4160.029296875 , 1725.4921875 
 4160.05908203125 , 1644.7421875 
 4160.11474609375 , 1563.9925537109375 
 4160.25244140625 , 1483.2393798828125 
 4160.5283203125 , 1402.48974609375 
 4161.04638671875 , 1321.7408447265625 
 4162.1044921875 , 1240.9947509765625 
 4164.6435546875 , 1160.2872314453125 
 4176.56787109375 , 1080.7650146484375 
 4223.3603515625 , 1016.2579345703125 
 4298.88232421875 , 990.7772216796875 
 4378.70751953125 , 998.8028564453125 
 4442.81640625 , 1045.626708984375 
 4468.40234375 , 1120.95263671875 
 4472.5966796875 , 1201.58251953125 
 4474.32080078125 , 1282.317626953125 
 4475.333984375 , 1363.060546875 
 4476.0244140625 , 1443.8060302734375 
 4476.5712890625 , 1524.5596923828125 
 4477.02783203125 , 1605.3070068359375 
 4477.4208984375 , 1686.05615234375 
 4477.81396484375 , 1766.80908203125 
 4478.171875 , 1847.56005859375 
 4478.51806640625 , 1928.309326171875 
 4478.92431640625 , 2009.05859375 
 4479.41943359375 , 2089.809814453125 
 4480.04443359375 , 2170.55712890625 
 4480.8544921875 , 2251.305419921875 
 4482.02197265625 , 2332.0458984375 
 4483.9091796875 , 2412.7744140625 
 4488.3935546875 , 2493.385498046875 
 4553.775390625 , 2518.40380859375 
 4634.50830078125 , 2519.81689453125 
 4715.193359375 , 2517.099853515625 
 4745.3408203125 , 2454.73779296875 
 4747.82568359375 , 2374.030029296875 
 4748.8798828125 , 2293.28857421875 
 4749.41796875 , 2212.534912109375 
 4749.7197265625 , 2131.78759765625 
 4749.8818359375 , 2051.03515625 
 4749.96044921875 , 1970.28076171875 
 4749.990234375 , 1889.53125 
 4750.02880859375 , 1808.780029296875 
 4750.16064453125 , 1728.029296875 
 4750.43310546875 , 1647.2767333984375 
 4750.85888671875 , 1566.5302734375 
 4751.43798828125 , 1485.7789306640625 
 4752.21728515625 , 1405.0328369140625 
 4753.2392578125 , 1324.2896728515625 
 4754.6630859375 , 1243.5467529296875 
 4757.00048828125 , 1162.830078125 
 4770.623046875 , 1083.5582275390625 
 4815.03564453125 , 1018.1959228515625 
 4889.9716796875 , 990.5720825195312 
 4969.63232421875 , 999.12451171875 
 5036.392578125 , 1042.8411865234375 
 5059.8857421875 , 1118.0657958984375 
 5063.37451171875 , 1198.7340087890625 
 5065.07763671875 , 1279.4677734375 
 5066.216796875 , 1360.211669921875 
 5067.08837890625 , 1440.95556640625 
 5067.84619140625 , 1521.7049560546875 
 5068.52587890625 , 1602.4549560546875 
 5069.16064453125 , 1683.2025146484375 
 5069.79541015625 , 1763.9539794921875 
 5070.45361328125 , 1844.7010498046875 
 5071.1943359375 , 1925.447509765625 
 5072.04638671875 , 2006.1954345703125 
 5073.02001953125 , 2086.941162109375 
 5074.1181640625 , 2167.68359375 
 5075.37158203125 , 2248.428466796875 
 5076.84326171875 , 2329.1650390625 
 5078.6474609375 , 2409.892578125 
 5081.392578125 , 2490.59619140625 
 5144.544921875 , 2519.011962890625 
 5225.259765625 , 2520.636474609375 
 5305.85400390625 , 2516.177490234375 
 5344.0517578125 , 2461.400390625 
 5346.767578125 , 2380.699462890625 
 5348.095703125 , 2299.962646484375 
 5348.87890625 , 2219.21044921875 
 5349.37109375 , 2138.46484375 
 5349.6796875 , 2057.714599609375 
 5349.865234375 , 1976.9609375 
 5349.96533203125 , 1896.2109375 
 5349.99658203125 , 1815.4609375 
 5350.02587890625 , 1734.70703125 
 5350.0556640625 , 1653.95703125 
 5350.1005859375 , 1573.2073974609375 
 5350.228515625 , 1492.4542236328125 
 5350.4853515625 , 1411.70458984375 
 5350.9736328125 , 1330.955322265625 
 5351.9423828125 , 1250.208984375 
 5354.19921875 , 1169.4930419921875 
 5363.521484375 , 1089.4564208984375 
 5406.7646484375 , 1022.3950805664062 
 5480.078125 , 991.4898071289062 
 5560.0888671875 , 997.3460693359375 
 5627.0224609375 , 1040.3416748046875 
 5657.90576171875 , 1113.5390625 
 5662.76513671875 , 1194.12158203125 
 5664.52490234375 , 1274.8543701171875 
 5665.49658203125 , 1355.5963134765625 
 5666.1357421875 , 1436.3450927734375 
 5666.63623046875 , 1517.0965576171875 
 5667.05615234375 , 1597.845947265625 
 5667.423828125 , 1678.5950927734375 
 5667.7919921875 , 1759.34423828125 
 5668.14599609375 , 1840.09765625 
 5668.501953125 , 1920.8446044921875 
 5668.93310546875 , 2001.5936279296875 
 5669.46826171875 , 2082.349365234375 
 5670.14892578125 , 2163.09326171875 
 5671.02099609375 , 2243.84130859375 
 5672.24609375 , 2324.585205078125 
 5674.1318359375 , 2405.313232421875 
 5678.04736328125 , 2485.957275390625 
 5736.42431640625 , 2518.15771484375 
 5817.15869140625 , 2519.45849609375 
 5897.84423828125 , 2516.732666015625 
 5933.58935546875 , 2461.69140625 
 5936.52587890625 , 2380.999267578125 
 5938.15771484375 , 2300.26611328125 
 5939.2626953125 , 2219.5205078125 
 5940.08056640625 , 2138.773193359375 
 5940.70361328125 , 2058.02587890625 
 5941.205078125 , 1977.2744140625 
 5941.6171875 , 1896.5225830078125 
 5941.955078125 , 1815.7733154296875 
 5942.31298828125 , 1735.0218505859375 
 5942.6748046875 , 1654.2725830078125 
 5943.03662109375 , 1573.5206298828125 
 5943.470703125 , 1492.7679443359375 
 5943.998046875 , 1412.019287109375 
 5944.70068359375 , 1331.273193359375 
 5945.82470703125 , 1250.52880859375 
 5948.0546875 , 1169.8096923828125 
 5956.26708984375 , 1089.6055908203125 
 6000.51806640625 , 1023.5184326171875 
 6073.60205078125 , 991.3029174804688 
 6153.53369140625 , 995.8390502929688 
 6221.3916015625 , 1037.6715087890625 
 6248.36865234375 , 1111.6317138671875 
 6252.14599609375 , 1192.2840576171875 
 6253.8916015625 , 1273.01611328125 
 6254.984375 , 1353.760986328125 
 6255.77392578125 , 1434.507568359375 
 6256.39404296875 , 1515.255615234375 
 6256.919921875 , 1596.0068359375 
 6257.3603515625 , 1676.755615234375 
 6257.80078125 , 1757.50439453125 
 6258.19873046875 , 1838.257568359375 
 6258.5947265625 , 1919.006591796875 
 6259.0712890625 , 1999.7545166015625 
 6259.650390625 , 2080.5048828125 
 6260.3623046875 , 2161.252685546875 
 6261.26708984375 , 2241.9990234375 
 6262.48291015625 , 2322.743408203125 
 6264.2578125 , 2403.4716796875 
 6267.697265625 , 2484.14306640625 
 6326.732421875 , 2518.658935546875 
 6407.4169921875 , 2521.22314453125 
 6488.0380859375 , 2517.283447265625 
 6533.2431640625 , 2469.33984375 
 6536.13671875 , 2388.644775390625 
 6537.775390625 , 2307.909912109375 
 6538.91650390625 , 2227.162841796875 
 6539.77734375 , 2146.42041015625 
 6540.4658203125 , 2065.6708984375 
 6541.025390625 , 1984.9195556640625 
 6541.48583984375 , 1904.1707763671875 
 6541.8681640625 , 1823.421630859375 
 6542.19384765625 , 1742.6697998046875 
 6542.49853515625 , 1661.92041015625 
 6542.82763671875 , 1581.1715087890625 
 6543.19580078125 , 1500.4149169921875 
 6543.70849609375 , 1419.66845703125 
 6544.4814453125 , 1338.9224853515625 
 6545.83544921875 , 1258.18310546875 
 6548.51611328125 , 1177.4755859375 
 6555.3671875 , 1097.0479736328125 
 6588.9873046875 , 1026.37744140625 
 6661.2490234375 , 992.2449340820312 
 6741.52880859375 , 995.0084838867188 
 6811.1904296875 , 1033.3367919921875 
 6846.73583984375 , 1104.4739990234375 
 6852.52685546875 , 1184.978271484375 
 6854.43017578125 , 1265.700439453125 
 6855.4482421875 , 1346.4476318359375 
 6856.1044921875 , 1427.191162109375 
 6856.61083984375 , 1507.9423828125 
 6857.03173828125 , 1588.689697265625 
 6857.39306640625 , 1669.4466552734375 
 6857.7548828125 , 1750.19580078125 
 6858.1083984375 , 1830.9439697265625 
 6858.45703125 , 1911.6962890625 
 6858.87890625 , 1992.44091796875 
 6859.40185546875 , 2073.189453125 
 6860.0673828125 , 2153.93798828125 
 6860.9326171875 , 2234.689453125 
 6862.0947265625 , 2315.4296875 
 6863.87841796875 , 2396.166259765625 
 6867.3515625 , 2476.832763671875 
 6917.28515625 , 2517.71337890625 
 6998.00390625 , 2519.49169921875 
 7078.724609375 , 2517.36865234375 
 7123.5078125 , 2470.969970703125 
 7126.728515625 , 2390.288330078125 
 7128.353515625 , 2309.55419921875 
 7129.3876953125 , 2228.81591796875 
 7130.154296875 , 2148.070068359375 
 7130.73828125 , 2067.311279296875 
 7131.2021484375 , 1986.560791015625 
 7131.55712890625 , 1905.8115234375 
 7131.91162109375 , 1825.062255859375 
 7132.2763671875 , 1744.310791015625 
 7132.6435546875 , 1663.5616455078125 
 7133.01123046875 , 1582.8046875 
 7133.44287109375 , 1502.054443359375 
 7133.96240234375 , 1421.3121337890625 
 7134.64306640625 , 1340.5623779296875 
 7135.71044921875 , 1259.8172607421875 
 7137.7421875 , 1179.0953369140625 
 7144.2841796875 , 1098.6689453125 
 7183.23779296875 , 1029.371337890625 
 7254.49951171875 , 993.7791137695312 
 7334.7392578125 , 993.999267578125 
 7404.01220703125 , 1032.8623046875 
 7439.9169921875 , 1104.0821533203125 
 7446.41064453125 , 1184.517333984375 
 7448.296875 , 1265.24365234375 
 7449.14453125 , 1345.9840087890625 
 7449.5712890625 , 1426.7391357421875 
 7449.798828125 , 1507.4884033203125 
 7449.92041015625 , 1588.234375 
 7449.9501953125 , 1668.984375 
 7449.9794921875 , 1749.7421875 
 7450.00927734375 , 1830.48828125 
 7450.05078125 , 1911.2421875 
 7450.1611328125 , 1991.988525390625 
 7450.36865234375 , 2072.74267578125 
 7450.7138671875 , 2153.489013671875 
 7451.25390625 , 2234.250732421875 
 7452.099609375 , 2314.992431640625 
 7453.5830078125 , 2395.728271484375 
 7456.8837890625 , 2476.40283203125 
 7509.25439453125 , 2517.063720703125 
 7589.9375 , 2519.900634765625 
 7670.62744140625 , 2517.16259765625 
 7718.9951171875 , 2471.18115234375 
 7723.0126953125 , 2390.541259765625 
 7724.94140625 , 2309.814697265625 
 7726.21142578125 , 2229.0732421875 
 7727.15771484375 , 2148.32763671875 
 7727.9404296875 , 2067.56982421875 
 7728.61279296875 , 1986.8232421875 
 7729.1875 , 1906.0751953125 
 7729.7626953125 , 1825.3272705078125 
 7730.37158203125 , 1744.58056640625 
 7731.00439453125 , 1663.8331298828125 
 7731.63720703125 , 1583.0777587890625 
 7732.33447265625 , 1502.3262939453125 
 7733.11474609375 , 1421.5849609375 
 7734.04052734375 , 1340.83642578125 
 7735.271484375 , 1260.1019287109375 
 7737.21142578125 , 1179.3701171875 
 7741.80029296875 , 1098.765380859375 
 7777.26025390625 , 1029.12451171875 
 7849.01708984375 , 993.9194946289062 
 7929.12890625 , 993.73388671875 
 7999.77001953125 , 1030.6552734375 
 8034.71337890625 , 1102.1737060546875 
 8043.7265625 , 1182.186279296875 
 8045.72802734375 , 1262.9150390625 
 8047.02490234375 , 1343.65869140625 
 8047.99609375 , 1424.4027099609375 
 8048.71435546875 , 1505.1451416015625 
 8049.2626953125 , 1585.8985595703125 
 8049.642578125 , 1666.646728515625 
 8049.87890625 , 1747.4051513671875 
 8049.984375 , 1828.1484375 
 8050.033203125 , 1908.89453125 
 8050.07958984375 , 1989.64453125 
 8050.15673828125 , 2070.40087890625 
 8050.34912109375 , 2151.148681640625 
 8050.7001953125 , 2231.908203125 
 8051.31298828125 , 2312.652587890625 
 8052.56884765625 , 2393.392578125 
 8055.8994140625 , 2474.060546875 
 8104.12548828125 , 2518.414794921875 
 8184.8515625 , 2519.782470703125 
 8265.572265625 , 2517.439453125 
 8313.2998046875 , 2474.095703125 
 8316.6494140625 , 2393.419921875 
 8318.306640625 , 2312.686767578125 
 8319.3525390625 , 2231.948486328125 
 8320.1259765625 , 2151.20263671875 
 8320.71875 , 2070.4404296875 
 8321.1875 , 1989.6953125 
 8321.54296875 , 1908.9443359375 
 8321.8984375 , 1828.195068359375 
 8322.2802734375 , 1747.443359375 
 8322.673828125 , 1666.6943359375 
 8323.06640625 , 1585.9453125 
 8323.54296875 , 1505.1951904296875 
 8324.1162109375 , 1424.445068359375 
 8324.869140625 , 1343.700439453125 
 8325.9990234375 , 1262.957275390625 
 8328.04296875 , 1182.232666015625 
 8333.9033203125 , 1101.735595703125 
 8369.591796875 , 1030.77099609375 
 8440.001953125 , 993.847412109375 
 8520.3212890625 , 993.2289428710938 
 8591.2333984375 , 1028.9539794921875 
 8628.9755859375 , 1099.2974853515625 
 8636.2275390625 , 1179.63623046875 
 8638.2197265625 , 1260.369384765625 
 8639.10546875 , 1341.1092529296875 
 8639.556640625 , 1421.8641357421875 
 8639.7919921875 , 1502.6134033203125 
 8639.9150390625 , 1583.36328125 
 8639.9482421875 , 1664.109375 
 8639.9775390625 , 1744.8671875 
 8640.0078125 , 1825.61328125 
 8640.0439453125 , 1906.3673095703125 
 8640.1494140625 , 1987.113525390625 
 8640.349609375 , 2067.86767578125 
 8640.6865234375 , 2148.614013671875 
 8641.21484375 , 2229.375732421875 
 8642.033203125 , 2310.117919921875 
 8643.4619140625 , 2390.854736328125 
 8646.55078125 , 2471.537353515625 
 8694.240234375 , 2517.260498046875 
 8774.8896484375 , 2520.7294921875 
 8855.5947265625 , 2518.333984375 
 8909.08984375 , 2480.4521484375 
 8911.595703125 , 2399.73828125 
 8913.3525390625 , 2319.010498046875 
 8914.7998046875 , 2238.27294921875 
 8916.0263671875 , 2157.5283203125 
 8917.111328125 , 2076.7880859375 
 8918.068359375 , 1996.0374755859375 
 8918.9013671875 , 1915.2918701171875 
 8919.630859375 , 1834.5452880859375 
 8920.2685546875 , 1753.798583984375 
 8920.8671875 , 1673.05078125 
 8921.4658203125 , 1592.3031005859375 
 8922.0908203125 , 1511.5438232421875 
 8922.7900390625 , 1430.796875 
 8923.7236328125 , 1350.0540771484375 
 8925.10546875 , 1269.3184814453125 
 8927.5732421875 , 1188.6102294921875 
 8933.1923828125 , 1108.072509765625 
 8957.86328125 , 1032.6202392578125 
 9028.5673828125 , 995.265380859375 
 9108.8369140625 , 993.0440063476562 
 9181.4072265625 , 1025.0638427734375 
 9222.1611328125 , 1092.51171875 
 9230.845703125 , 1172.728759765625 
 9233.9033203125 , 1253.42578125 
 9235.3701171875 , 1334.15869140625 
 9236.1982421875 , 1414.90625 
 9236.70703125 , 1495.6571044921875 
 9237.107421875 , 1576.400146484375 
 9237.4228515625 , 1657.1495361328125 
 9237.73828125 , 1737.90673828125 
 9238.0576171875 , 1818.653564453125 
 9238.396484375 , 1899.40283203125 
 9238.8125 , 1980.1524658203125 
 9239.3193359375 , 2060.89990234375 
 9239.955078125 , 2141.65380859375 
 9240.7939453125 , 2222.405029296875 
 9241.90234375 , 2303.14892578125 
 9243.56640625 , 2383.878662109375 
 9246.58984375 , 2464.570556640625 
 9285.0234375 , 2516.9482421875 
 9365.7265625 , 2519.474609375 
 9446.44921875 , 2518.02880859375 
 9502.6025390625 , 2483.220458984375 
 9506.390625 , 2402.568115234375 
 9508.15234375 , 2321.833740234375 
 9509.2509765625 , 2241.096435546875 
 9510.0458984375 , 2160.350830078125 
 9510.6533203125 , 2079.596435546875 
 9511.134765625 , 1998.8436279296875 
 9511.5029296875 , 1918.0926513671875 
 9511.857421875 , 1837.3433837890625 
 9512.23046875 , 1756.591796875 
 9512.615234375 , 1675.8426513671875 
 9513 , 1595.0936279296875 
 9513.4580078125 , 1514.34228515625 
 9514.009765625 , 1433.5931396484375 
 9514.7255859375 , 1352.84423828125 
 9515.7783203125 , 1272.1002197265625 
 9517.6435546875 , 1191.377197265625 
 9522.60546875 , 1110.7982177734375 
 9553.4921875 , 1037.7366943359375 
 9621.3984375 , 996.0011596679688 
 9701.33984375 , 991.3246459960938 
 9774.5478515625 , 1023.2437744140625 
 9815.8564453125 , 1090.3719482421875 
 9822.048828125 , 1170.8433837890625 
 9824.2958984375 , 1251.5675048828125 
 9825.6484375 , 1332.3040771484375 
 9826.63671875 , 1413.047119140625 
 9827.4453125 , 1493.7933349609375 
 9828.15234375 , 1574.53759765625 
 9828.7939453125 , 1655.285888671875 
 9829.423828125 , 1736.041259765625 
 9830.0546875 , 1816.7857666015625 
 9830.7099609375 , 1897.5330810546875 
 9831.38671875 , 1978.2857666015625 
 9832.1162109375 , 2059.032470703125 
 9832.8935546875 , 2139.77685546875 
 9833.708984375 , 2220.521240234375 
 9834.59375 , 2301.2744140625 
 9835.560546875 , 2382.01708984375 
 9836.6513671875 , 2462.758544921875 
 9853.6455078125 , 2532.17333984375 
 9930.8544921875 , 2555.75244140625 
 10004.7509765625 , 2588.17333984375 
 10074.1298828125 , 2629.4111328125 
 10138.39453125 , 2678.233642578125 
 10196.84375 , 2733.89306640625 
 10248.4541015625 , 2795.931396484375 
 10291.7138671875 , 2864.042236328125 
 10328.564453125 , 2935.895263671875 
 10393.8603515625 , 2963.189208984375 
 10474.599609375 , 2964.35888671875 
 10555.34375 , 2965.37939453125 
 10636.0888671875 , 2966.31005859375 
 10716.837890625 , 2967.164794921875 
 10797.580078125 , 2967.97412109375 
 10878.333984375 , 2968.74072265625 
 10959.080078125 , 2969.4384765625 
 11039.8251953125 , 2970.1171875 
 11120.572265625 , 2970.7548828125 
 11201.3193359375 , 2971.392578125 
 11282.06640625 , 2972.072265625 
 11362.8232421875 , 2972.842041015625 
 11443.5654296875 , 2973.761962890625 
 11524.3076171875 , 2974.950439453125 
 11605.0380859375 , 2976.841552734375 
 11685.658203125 , 2981.11865234375 
 11759.8671875 , 3008.7197265625 
 11802.4453125 , 3075.7529296875 
 11806.4560546875 , 3155.90185546875 
 11778.66796875 , 3230.804443359375 
 11715.3974609375 , 3279.451416015625 
 11635.7998046875 , 3290.984619140625 
 11555.09765625 , 3293.6845703125 
 11474.3564453125 , 3295.013916015625 
 11393.603515625 , 3295.860595703125 
 11312.8564453125 , 3296.478271484375 
 11232.1064453125 , 3296.984619140625 
 11151.357421875 , 3297.411376953125 
 11070.609375 , 3297.838134765625 
 10989.859375 , 3298.26025390625 
 10909.103515625 , 3298.74658203125 
 10828.357421875 , 3299.356689453125 
 10747.61328125 , 3300.1318359375 
 10666.86328125 , 3301.133544921875 
 10586.1259765625 , 3302.4345703125 
 10505.39453125 , 3304.257568359375 
 10424.7001953125 , 3307.314208984375 
 10374.509765625 , 3349.321533203125 
 10369.9287109375 , 3429.917236328125 
 10371.4013671875 , 3510.627685546875 
 10420.7578125 , 3553.099853515625 
 10501.44921875 , 3556.138916015625 
 10582.185546875 , 3557.769287109375 
 10662.9345703125 , 3558.90869140625 
 10743.671875 , 3559.77734375 
 10824.421875 , 3560.489501953125 
 10905.1669921875 , 3561.0927734375 
 10985.9150390625 , 3561.635986328125 
 11066.66796875 , 3562.111328125 
 11147.4169921875 , 3562.448486328125 
 11228.166015625 , 3562.78564453125 
 11308.9228515625 , 3563.17529296875 
 11389.666015625 , 3563.68017578125 
 11470.4091796875 , 3564.496337890625 
 11551.1474609375 , 3565.953857421875 
 11631.84375 , 3569.0966796875 
 11711.9560546875 , 3578.494384765625 
 11777.9482421875 , 3621.7900390625 
 11808.208984375 , 3695.2783203125 
 11803.35546875 , 3775.340087890625 
 11759.109375 , 3841.514404296875 
 11688.6962890625 , 3877.66015625 
 11608.150390625 , 3882.900390625 
 11527.4189453125 , 3884.6923828125 
 11446.6787109375 , 3885.64013671875 
 11365.92578125 , 3886.29541015625 
 11285.1787109375 , 3886.799072265625 
 11204.427734375 , 3887.22216796875 
 11123.6787109375 , 3887.61865234375 
 11042.93359375 , 3888.01513671875 
 10962.1845703125 , 3888.41455078125 
 10881.435546875 , 3888.903564453125 
 10800.685546875 , 3889.509033203125 
 10719.9306640625 , 3890.267822265625 
 10639.1875 , 3891.238037109375 
 10558.443359375 , 3892.58984375 
 10477.724609375 , 3894.612548828125 
 10397.1103515625 , 3899.025146484375 
 10371.5068359375 , 3966.561279296875 
 10369.88671875 , 4047.286865234375 
 10375.46484375 , 4127.7763671875 
 10440.580078125 , 4154.79150390625 
 10521.291015625 , 4157.18310546875 
 10602.0283203125 , 4158.37451171875 
 10682.7744140625 , 4159.09130859375 
 10763.533203125 , 4159.52001953125 
 10844.28515625 , 4159.78271484375 
 10925.03125 , 4159.9267578125 
 11005.78125 , 4159.98583984375 
 11086.53125 , 4160.01806640625 
 11167.28125 , 4160.0498046875 
 11248.0283203125 , 4160.08642578125 
 11328.7890625 , 4160.22021484375 
 11409.53515625 , 4160.50341796875 
 11490.283203125 , 4161.0380859375 
 11571.025390625 , 4162.19921875 
 11651.7158203125 , 4165.18017578125 
 11730.1708984375 , 4181.48193359375 
 11790.0009765625 , 4233.9462890625 
 11809.9638671875 , 4311.2255859375 
 11795.2109375 , 4389.986328125 
 11744.5751953125 , 4451.46630859375 
 11667.1796875 , 4470.357421875 
 11586.5068359375 , 4473.7509765625 
 11505.765625 , 4475.44189453125 
 11425.0224609375 , 4476.568359375 
 11344.2783203125 , 4477.45947265625 
 11263.53125 , 4478.21484375 
 11182.7841796875 , 4478.884765625 
 11102.037109375 , 4479.5478515625 
 11021.2841796875 , 4480.197265625 
 10940.5361328125 , 4480.81787109375 
 10859.7890625 , 4481.43798828125 
 10779.0390625 , 4482.1748046875 
 10698.2919921875 , 4483.05126953125 
 10617.55078125 , 4484.17578125 
 10536.8076171875 , 4485.71484375 
 10456.109375 , 4488.3984375 
 10378.8056640625 , 4502.5029296875 
 10370.94140625 , 4582.708984375 
 10370.1083984375 , 4663.4443359375 
 10383.7685546875 , 4739.4482421875 
 10464.033203125 , 4746.73095703125 
 10544.7685546875 , 4748.4443359375 
 10625.5166015625 , 4749.2138671875 
 10706.265625 , 4749.619140625 
 10787.013671875 , 4749.83740234375 
 10867.7578125 , 4749.92236328125 
 10948.5078125 , 4749.97216796875 
 11029.2666015625 , 4750.02587890625 
 11110.015625 , 4750.1640625 
 11190.7666015625 , 4750.46875 
 11271.5126953125 , 4750.94140625 
 11352.2587890625 , 4751.5966796875 
 11433.0087890625 , 4752.494140625 
 11513.751953125 , 4753.7138671875 
 11594.484375 , 4755.4775390625 
 11675.03125 , 4760.296875 
 11750.7880859375 , 4786.734375 
 11799.90234375 , 4848.8056640625 
 11809.6875 , 4928.48291015625 
 11784.62109375 , 5004.232421875 
 11724.6513671875 , 5057.16015625 
 11645.80859375 , 5071.32666015625 
 11565.11328125 , 5074.0107421875 
 11484.373046875 , 5075.26123046875 
 11403.623046875 , 5076.0205078125 
 11322.8681640625 , 5076.57666015625 
 11242.115234375 , 5077.03369140625 
 11161.3662109375 , 5077.4296875 
 11080.6171875 , 5077.8251953125 
 10999.8662109375 , 5078.1767578125 
 10919.1162109375 , 5078.4921875 
 10838.3642578125 , 5078.81982421875 
 10757.615234375 , 5079.25927734375 
 10676.8671875 , 5079.8505859375 
 10596.115234375 , 5080.68798828125 
 10515.3828125 , 5082.10888671875 
 10434.7001953125 , 5085.33447265625 
 10375.705078125 , 5122.53369140625 
 10369.9580078125 , 5203.02587890625 
 10371.5703125 , 5283.73681640625 
 10406.3369140625 , 5342.64599609375 
 10486.9833984375 , 5346.3935546875 
 10567.72265625 , 5347.9609375 
 10648.4638671875 , 5348.82470703125 
 10729.21875 , 5349.373046875 
 10809.97265625 , 5349.69384765625 
 10890.71875 , 5349.87939453125 
 10971.46875 , 5349.9716796875 
 11052.21875 , 5350.0048828125 
 11132.96875 , 5350.03662109375 
 11213.7265625 , 5350.068359375 
 11294.4736328125 , 5350.16259765625 
 11375.2265625 , 5350.37060546875 
 11455.9716796875 , 5350.76904296875 
 11536.7216796875 , 5351.58935546875 
 11617.4462890625 , 5353.49609375 
 11697.8359375 , 5360.3642578125 
 11768.5517578125 , 5397.30224609375 
 11806.3974609375 , 5467.154296875 
 11805.982421875 , 5547.40283203125 
 11769.5859375 , 5618.20849609375 
 11702.1416015625 , 5661.90087890625 
 11623.4140625 , 5670 
 11542.6640625 , 5670 
 11461.9140625 , 5670 
 11381.1640625 , 5670 
 11300.4140625 , 5670 
 11219.6640625 , 5670 
 11138.90625 , 5670 
 11058.15625 , 5670 
 10977.404296875 , 5670.02294921875 
 10896.654296875 , 5670.05322265625 
 10815.90625 , 5670.10009765625 
 10735.15625 , 5670.240234375 
 10654.4072265625 , 5670.52978515625 
 10573.6494140625 , 5671.08056640625 
 10492.908203125 , 5672.32080078125 
 10412.28515625 , 5676.37890625 
 10372.9697265625 , 5732.95458984375 
 10369.978515625 , 5813.63037109375 
 10372.1845703125 , 5894.32568359375 
 10424.5771484375 , 5933.54736328125 
 10505.26171875 , 5936.6484375 
 10585.99609375 , 5938.3037109375 
 10666.7392578125 , 5939.44384765625 
 10747.4814453125 , 5940.248046875 
 10828.2275390625 , 5940.8740234375 
 10908.986328125 , 5941.349609375 
 10989.7353515625 , 5941.75048828125 
 11070.486328125 , 5942.15478515625 
 11151.2353515625 , 5942.56396484375 
 11231.984375 , 5942.9736328125 
 11312.7275390625 , 5943.4580078125 
 11393.4853515625 , 5944.05517578125 
 11474.234375 , 5944.8486328125 
 11554.9736328125 , 5946.10693359375 
 11635.6796875 , 5948.58935546875 
 11715.6884765625 , 5958.08642578125 
 11780.23046875 , 6004.70166015625 
 11810.158203125 , 6078.697265625 
 11801.3515625 , 6158.21240234375 
 11756.8134765625 , 6224.5732421875 
 11685.0517578125 , 6258.12890625 
 11604.4794921875 , 6263.01025390625 
 11523.74609375 , 6264.7421875 
 11442.9990234375 , 6265.671875 
 11362.2490234375 , 6266.318359375 
 11281.501953125 , 6266.81689453125 
 11200.748046875 , 6267.236328125 
 11119.9990234375 , 6267.63232421875 
 11039.248046875 , 6268.03125 
 10958.4990234375 , 6268.47216796875 
 10877.744140625 , 6268.93408203125 
 10796.998046875 , 6269.55029296875 
 10716.2529296875 , 6270.32080078125 
 10635.5068359375 , 6271.3173828125 
 10554.7724609375 , 6272.6845703125 
 10474.0478515625 , 6274.77197265625 
 10393.44921875 , 6279.48583984375 
 10370.736328125 , 6350.05126953125 
 10370.0078125 , 6430.77099609375 
 10378.1884765625 , 6510.9794921875 
 10448.3740234375 , 6535.51611328125 
 10529.07421875 , 6538.19677734375 
 10609.8271484375 , 6539.47802734375 
 10690.5703125 , 6540.263671875 
 10771.3154296875 , 6540.81396484375 
 10852.072265625 , 6541.234375 
 10932.8212890625 , 6541.546875 
 11013.5703125 , 6541.85888671875 
 11094.326171875 , 6542.19287109375 
 11175.0751953125 , 6542.54443359375 
 11255.82421875 , 6542.89599609375 
 11336.5732421875 , 6543.34716796875 
 11417.3232421875 , 6543.9482421875 
 11498.0693359375 , 6544.947265625 
 11578.798828125 , 6546.78076171875 
 11659.44921875 , 6550.76904296875 
 11738.9306640625 , 6563.77392578125 
 11794.0458984375 , 6620.06201171875 
 11809.96484375 , 6698.20068359375 
 11792.89453125 , 6776.41064453125 
 11737.576171875 , 6833.71435546875 
 11663.1484375 , 6860 
 11582.3984375 , 6860 
 11501.6484375 , 6860 
 11420.8984375 , 6860 
 11340.1484375 , 6860 
 11259.3984375 , 6860 
 11178.640625 , 6860 
 11097.890625 , 6860 
 11017.142578125 , 6860.015625 
 10936.392578125 , 6860.0634765625 
 10855.642578125 , 6860.111328125 
 10774.89453125 , 6860.27197265625 
 10694.1337890625 , 6860.5791015625 
 10613.3876953125 , 6861.1201171875 
 10532.640625 , 6862.19091796875 
 10451.9365234375 , 6864.67626953125 
 10378.681640625 , 6886.693359375 
 10370.1904296875 , 6966.60986328125 
 10370.939453125 , 7047.3515625 
 10387.9189453125 , 7120.1748046875 
 10468.451171875 , 7125.5234375 
 10549.173828125 , 7127.65234375 
 10629.9140625 , 7128.96484375 
 10710.6572265625 , 7129.90380859375 
 10791.4091796875 , 7130.61865234375 
 10872.158203125 , 7131.1669921875 
 10952.9072265625 , 7131.56787109375 
 11033.65625 , 7131.96875 
 11114.408203125 , 7132.37744140625 
 11195.1572265625 , 7132.78662109375 
 11275.9072265625 , 7133.22607421875 
 11356.658203125 , 7133.7646484375 
 11437.408203125 , 7134.46533203125 
 11518.1494140625 , 7135.45556640625 
 11598.8818359375 , 7137.2060546875 
 11679.4951171875 , 7141.61328125 
 11754.259765625 , 7168.70947265625 
 11800.4951171875 , 7233.40087890625 
 11809.2724609375 , 7313.1220703125 
 11782.34765625 , 7388.15966796875 
 11719.572265625 , 7437.5458984375 
 11640.3525390625 , 7450.76171875 
 11559.65625 , 7453.61669921875 
 11478.9169921875 , 7454.98388671875 
 11398.169921875 , 7455.84130859375 
 11317.416015625 , 7456.45947265625 
 11236.6689453125 , 7456.96240234375 
 11155.919921875 , 7457.3779296875 
 11075.1708984375 , 7457.79345703125 
 10994.4140625 , 7458.18408203125 
 10913.6669921875 , 7458.58544921875 
 10832.9189453125 , 7459.080078125 
 10752.1708984375 , 7459.70263671875 
 10671.419921875 , 7460.5029296875 
 10590.6806640625 , 7461.62353515625 
 10509.9443359375 , 7463.24658203125 
 10429.24609375 , 7466.21875 
 10373.0390625 , 7501.1025390625 
 10370.6943359375 , 7581.796875 
 10373.142578125 , 7662.501953125 
 10410.8349609375 , 7718.3984375 
 10491.4443359375 , 7722.97216796875 
 10572.1650390625 , 7725.0126953125 
 10652.9033203125 , 7726.3251953125 
 10733.6474609375 , 7727.3076171875 
 10814.39453125 , 7728.115234375 
 10895.1455078125 , 7728.79833984375 
 10975.900390625 , 7729.4130859375 
 11056.6513671875 , 7730.03076171875 
 11137.3984375 , 7730.7080078125 
 11218.1455078125 , 7731.3857421875 
 11298.88671875 , 7732.1025390625 
 11379.634765625 , 7732.90673828125 
 11460.38671875 , 7733.85791015625 
 11541.125 , 7735.09326171875 
 11621.853515625 , 7737.0654296875 
 11702.4453125 , 7741.7998046875 
 11771.978515625 , 7777.80712890625 
 11806.87109375 , 7849.53125 
 11805.3369140625 , 7929.7578125 
 11767.63671875 , 7999.88720703125 
 11701.7587890625 , 8045.01953125 
 11621.009765625 , 8045.38916015625 
 11540.2607421875 , 8045.75927734375 
 11459.51171875 , 8046.12890625 
 11378.76171875 , 8046.4990234375 
 11298.0048828125 , 8046.86865234375 
 11217.255859375 , 8047.23828125 
 11136.5068359375 , 8047.6083984375 
 11055.7578125 , 8047.97802734375 
 10975.0048828125 , 8048.2939453125 
 10894.255859375 , 8048.60595703125 
 10813.5009765625 , 8048.96923828125 
 10732.7568359375 , 8049.44677734375 
 10652.0068359375 , 8050.09375 
 10571.2587890625 , 8051.05615234375 
 10490.5302734375 , 8052.80224609375 
 10409.955078125 , 8057.67138671875 
 10373.76171875 , 8117.4609375 
 10370.1904296875 , 8198.119140625 
 10372.4453125 , 8278.7998046875 
 10429.0361328125 , 8313.814453125 
 10509.72265625 , 8316.7783203125 
 10590.4599609375 , 8318.390625 
 10671.2060546875 , 8319.5009765625 
 10751.95703125 , 8320.29296875 
 10832.7001953125 , 8320.9091796875 
 10913.447265625 , 8321.3740234375 
 10994.1962890625 , 8321.7734375 
 11074.947265625 , 8322.1767578125 
 11155.6962890625 , 8322.5869140625 
 11236.453125 , 8322.99609375 
 11317.1953125 , 8323.486328125 
 11397.9453125 , 8324.08984375 
 11478.689453125 , 8324.90234375 
 11559.43359375 , 8326.205078125 
 11640.134765625 , 8328.80859375 
 11719.9140625 , 8339.525390625 
 11782.8994140625 , 8388.287109375 
 11810.6640625 , 8463.12890625 
 11799.7783203125 , 8542.3837890625 
 11753.4462890625 , 8607.5048828125 
 11680.62109375 , 8638.6279296875 
 11600.00390625 , 8643.126953125 
 11519.27734375 , 8644.7880859375 
 11438.5302734375 , 8645.6962890625 
 11357.7861328125 , 8646.33203125 
 11277.03515625 , 8646.82421875 
 11196.287109375 , 8647.240234375 
 11115.5302734375 , 8647.6328125 
 11034.779296875 , 8648.0263671875 
 10954.0302734375 , 8648.4296875 
 10873.28125 , 8648.8330078125 
 10792.537109375 , 8649.384765625 
 10711.791015625 , 8650.1025390625 
 10631.0380859375 , 8651.0439453125 
 10550.2978515625 , 8652.357421875 
 10469.580078125 , 8654.4775390625 
 10389.025390625 , 8659.6767578125 
 10370.38671875 , 8731.32421875 
 10371.265625 , 8812.0537109375 
 10379.1328125 , 8892.3369140625 
 10450.0029296875 , 8915.5703125 
 10530.70703125 , 8918.205078125 
 10611.4501953125 , 8919.474609375 
 10692.1953125 , 8920.255859375 
 10772.9443359375 , 8920.806640625 
 10853.689453125 , 8921.2265625 
 10934.4462890625 , 8921.537109375 
 11015.1953125 , 8921.8466796875 
 11095.94140625 , 8922.2119140625 
 11176.6904296875 , 8922.6298828125 
 11257.439453125 , 8923.0478515625 
 11338.1875 , 8923.5478515625 
 11418.9453125 , 8924.150390625 
 11499.6884765625 , 8924.9873046875 
 11580.4306640625 , 8926.2392578125 
 11661.1435546875 , 8928.775390625 
 11740.318359375 , 8941.298828125 
 11793.8525390625 , 9000.326171875 
 11809.9375 , 9078.6533203125 
 11792.3525390625 , 9156.7861328125 
 11737.3515625 , 9214.3310546875 
 11662.6416015625 , 9235.1943359375 
 11581.892578125 , 9235.5634765625 
 11501.1435546875 , 9235.93359375 
 11420.38671875 , 9236.3037109375 
 11339.6376953125 , 9236.673828125 
 11258.888671875 , 9237.04296875 
 11178.1396484375 , 9237.4130859375 
 11097.3896484375 , 9237.783203125 
 11016.6396484375 , 9238.12890625 
 10935.8818359375 , 9238.4423828125 
 10855.1328125 , 9238.7548828125 
 10774.38671875 , 9239.171875 
 10693.6337890625 , 9239.7119140625 
 10612.8935546875 , 9240.4921875 
 10532.1533203125 , 9241.744140625 
 10451.4345703125 , 9244.3369140625 
 10379.4716796875 , 9266.2578125 
 10371.32421875 , 9346.498046875 
 10370.3525390625 , 9427.23046875 
 10387.5830078125 , 9500.1328125 
 10468.11328125 , 9505.53125 
 10548.8349609375 , 9507.66015625 
 10629.5751953125 , 9508.9716796875 
 10710.3212890625 , 9509.9091796875 
 10791.072265625 , 9510.6220703125 
 10871.814453125 , 9511.16796875 
 10952.5634765625 , 9511.5673828125 
 11033.3125 , 9511.966796875 
 11114.072265625 , 9512.3759765625 
 11194.8212890625 , 9512.78515625 
 11275.5634765625 , 9513.2236328125 
 11356.314453125 , 9513.76171875 
 11437.064453125 , 9514.4619140625 
 11517.8056640625 , 9515.4501953125 
 11598.5458984375 , 9517.1953125 
 11679.16015625 , 9521.5810546875 
 11754.2236328125 , 9548.125 
 11800.734375 , 9612.2314453125 
 11806.3232421875 , 9692.29296875 
 11782.220703125 , 9768.365234375 
 11719.13671875 , 9817.34375 
 11639.9794921875 , 9830.7587890625 
 11559.2822265625 , 9833.611328125 
 11478.544921875 , 9834.9765625 
 11397.8037109375 , 9835.833984375 
 11317.052734375 , 9836.451171875 
 11236.3017578125 , 9836.9541015625 
 11155.552734375 , 9837.3671875 
 11074.8037109375 , 9837.78125 
 10994.0556640625 , 9838.173828125 
 10913.306640625 , 9838.544921875 
 10832.5576171875 , 9838.916015625 
 10751.80078125 , 9839.287109375 
 10671.0517578125 , 9839.658203125 
 10590.302734375 , 9840.029296875 
 10509.5537109375 , 9840.400390625 
 10428.8037109375 , 9840.771484375 
 10367.91015625 , 9869.8583984375 
 10348.8857421875 , 9948.3251953125 
 10324.865234375 , 10025.3173828125 
 10289.48828125 , 10097.8408203125 
 10245.412109375 , 10165.4462890625 
 10194.083984375 , 10227.728515625 
 10136.2373046875 , 10284.0126953125 
 10072.1650390625 , 10333.07421875 
 10002.0029296875 , 10372.919921875 
 9928.0185546875 , 10405.203125 
 9853.08984375 , 10431.3876953125 
 9835.7431640625 , 10509.416015625 
 9831.958984375 , 10590.072265625 
 9830.3896484375 , 10670.806640625 
 9829.56640625 , 10751.55859375 
 9829.0751953125 , 10832.30078125 
 9828.7021484375 , 10913.056640625 
 9828.3623046875 , 10993.8056640625 
 9828.0224609375 , 11074.5546875 
 9827.6162109375 , 11155.306640625 
 9827.2041015625 , 11236.0634765625 
 9826.7587890625 , 11316.80859375 
 9826.2236328125 , 11397.5556640625 
 9825.5146484375 , 11478.302734375 
 9824.423828125 , 11559.044921875 
 9822.2119140625 , 11639.76171875 
 9813.4228515625 , 11719.8740234375 
 9765.5390625 , 11783.5400390625 
 9692.6396484375 , 11816.6357421875 
 9612.5771484375 , 11815.5966796875 
 9544.96875 , 11774.119140625 
 9522.2998046875 , 11698.294921875 
 9518.4130859375 , 11617.6357421875 
 9516.134765625 , 11536.9189453125 
 9514.5146484375 , 11456.1875 
 9513.2177734375 , 11375.4453125 
 9512.171875 , 11294.705078125 
 9511.2724609375 , 11213.9619140625 
 9510.482421875 , 11133.216796875 
 9509.779296875 , 11052.46484375 
 9509.1337890625 , 10971.7177734375 
 9508.4873046875 , 10890.970703125 
 9507.841796875 , 10810.22265625 
 9507.1962890625 , 10729.4755859375 
 9506.5498046875 , 10648.728515625 
 9505.9033203125 , 10567.97265625 
 9505.2578125 , 10487.2255859375 
 9456.4765625 , 10455 
 9375.7265625 , 10455 
 9294.9765625 , 10455 
 9244.751953125 , 10485.76953125 
 9244.1005859375 , 10566.5244140625 
 9243.44921875 , 10647.271484375 
 9242.7978515625 , 10728.01953125 
 9242.1474609375 , 10808.7666015625 
 9241.49609375 , 10889.513671875 
 9240.8447265625 , 10970.2607421875 
 9240.193359375 , 11051.0166015625 
 9239.5283203125 , 11131.7646484375 
 9238.8564453125 , 11212.51171875 
 9238.169921875 , 11293.2568359375 
 9237.3984375 , 11374.00390625 
 9236.4658203125 , 11454.748046875 
 9235.2216796875 , 11535.5 
 9233.056640625 , 11616.2138671875 
 9226.787109375 , 11696.673828125 
 9190.5546875 , 11767.5517578125 
 9122.80078125 , 11809.810546875 
 9042.984375 , 11817.90234375 
 8967.8955078125 , 11791.7900390625 
 8930.3896484375 , 11721.8701171875 
 8925.28515625 , 11641.3173828125 
 8923.236328125 , 11560.59765625 
 8921.96875 , 11479.859375 
 8921.123046875 , 11399.1083984375 
 8920.58984375 , 11318.365234375 
 8920.2451171875 , 11237.607421875 
 8920.0576171875 , 11156.8583984375 
 8919.998046875 , 11076.10546875 
 8919.9228515625 , 10995.35546875 
 8919.8369140625 , 10914.60546875 
 8919.5830078125 , 10833.8515625 
 8919.150390625 , 10753.09375 
 8918.4228515625 , 10672.3505859375 
 8917.15625 , 10591.6103515625 
 8914.45703125 , 10510.896484375 
 8878.2138671875 , 10454.064453125 
 8797.6533203125 , 10449.375 
 8716.935546875 , 10450.958984375 
 8648.4111328125 , 10475.7265625 
 8643.7431640625 , 10556.32421875 
 8642.0380859375 , 10637.056640625 
 8641.12890625 , 10717.80078125 
 8640.576171875 , 10798.552734375 
 8640.263671875 , 10879.2890625 
 8640.1103515625 , 10960.046875 
 8640.03515625 , 11040.796875 
 8639.9736328125 , 11121.56640625 
 8639.9228515625 , 11202.31640625 
 8639.84765625 , 11283.064453125 
 8639.6318359375 , 11363.8125 
 8639.2158203125 , 11444.5576171875 
 8638.443359375 , 11525.3125 
 8636.712890625 , 11606.04296875 
 8631.3984375 , 11686.580078125 
 8600.7734375 , 11760.19140625 
 8536.310546875 , 11806.9931640625 
 8456.888671875 , 11819.1279296875 
 8380.193359375 , 11798.4794921875 
 8335.876953125 , 11732.5068359375 
 8330.462890625 , 11652.0712890625 
 8328.208984375 , 11571.35546875 
 8326.484375 , 11490.619140625 
 8325.05078125 , 11409.880859375 
 8323.8154296875 , 11329.140625 
 8322.76171875 , 11248.3994140625 
 8321.8740234375 , 11167.65234375 
 8321.0693359375 , 11086.90625 
 8320.291015625 , 11006.162109375 
 8319.515625 , 10925.416015625 
 8318.7412109375 , 10844.669921875 
 8317.9658203125 , 10763.9228515625 
 8317.1904296875 , 10683.1611328125 
 8316.4150390625 , 10602.4150390625 
 8315.6396484375 , 10521.6689453125 
 8300.921875 , 10455 
 8220.171875 , 10455 
 8139.421875 , 10455 
 8058.671875 , 10455 
 8054.37841796875 , 10532.080078125 
 8053.72705078125 , 10612.8271484375 
 8053.076171875 , 10693.5751953125 
 8052.4248046875 , 10774.322265625 
 8051.7734375 , 10855.0693359375 
 8051.1220703125 , 10935.8330078125 
 8050.47119140625 , 11016.580078125 
 8049.767578125 , 11097.3212890625 
 8048.9267578125 , 11178.0673828125 
 8048.02392578125 , 11258.8125 
 8046.9697265625 , 11339.5634765625 
 8045.7314453125 , 11420.29296875 
 8044.22900390625 , 11501.0302734375 
 8042.27783203125 , 11581.765625 
 8039.3564453125 , 11662.46484375 
 8023.1123046875 , 11740.095703125 
 7965.06298828125 , 11795.0673828125 
 7888.3779296875 , 11818.296875 
 7808.70556640625 , 11809.3095703125 
 7751.5546875 , 11755.5 
 7736.73828125 , 11676.787109375 
 7733.986328125 , 11596.0830078125 
 7732.45751953125 , 11515.3447265625 
 7731.4599609375 , 11434.603515625 
 7730.7939453125 , 11353.859375 
 7730.37109375 , 11273.115234375 
 7730.12841796875 , 11192.3662109375 
 7730.021484375 , 11111.609375 
 7729.9560546875 , 11030.86328125 
 7729.880859375 , 10950.11328125 
 7729.71142578125 , 10869.34765625 
 7729.3798828125 , 10788.5927734375 
 7728.78759765625 , 10707.8544921875 
 7727.8154296875 , 10627.09765625 
 7725.95068359375 , 10546.3759765625 
 7719.78271484375 , 10465.951171875 
 7643.1865234375 , 10450.81640625 
 7562.4306640625 , 10450.1923828125 
 7481.916015625 , 10455.287109375 
 7455.04833984375 , 10520.771484375 
 7452.63330078125 , 10601.484375 
 7451.451171875 , 10682.220703125 
 7450.783203125 , 10762.9853515625 
 7450.37109375 , 10843.732421875 
 7450.14208984375 , 10924.484375 
 7450.06689453125 , 11005.234375 
 7449.99609375 , 11085.978515625 
 7449.96044921875 , 11166.728515625 
 7449.9248046875 , 11247.478515625 
 7449.8046875 , 11328.228515625 
 7449.51953125 , 11408.9853515625 
 7448.83056640625 , 11489.732421875 
 7447.3271484375 , 11570.4599609375 
 7443.61767578125 , 11651.1181640625 
 7430.36474609375 , 11730.533203125 
 7379.52099609375 , 11791.6689453125 
 7303.6640625 , 11817.50390625 
 7223.57373046875 , 11813.013671875 
 7159.56103515625 , 11767.564453125 
 7143.2607421875 , 11688.8515625 
 7138.18603515625 , 11608.267578125 
 7135.62060546875 , 11527.5556640625 
 7133.9990234375 , 11446.8251953125 
 7132.8427734375 , 11366.0791015625 
 7131.93017578125 , 11285.341796875 
 7131.1240234375 , 11204.595703125 
 7130.39404296875 , 11123.841796875 
 7129.70458984375 , 11043.0751953125 
 7129.05859375 , 10962.3271484375 
 7128.41259765625 , 10881.580078125 
 7127.7666015625 , 10800.8330078125 
 7127.12060546875 , 10720.0849609375 
 7126.474609375 , 10639.337890625 
 7125.82861328125 , 10558.5908203125 
 7125.1826171875 , 10477.8427734375 
 7067.09375 , 10455 
 6986.34375 , 10455 
 6905.59375 , 10455 
 6864.67626953125 , 10495.1591796875 
 6864.02490234375 , 10575.9228515625 
 6863.37353515625 , 10656.669921875 
 6862.72265625 , 10737.4169921875 
 6862.0712890625 , 10818.1650390625 
 6861.419921875 , 10898.912109375 
 6860.76904296875 , 10979.6591796875 
 6860.11767578125 , 11060.40625 
 6859.4248046875 , 11141.1611328125 
 6858.72314453125 , 11221.908203125 
 6857.98583984375 , 11302.6494140625 
 6857.13720703125 , 11383.3935546875 
 6856.10107421875 , 11464.12890625 
 6854.68701171875 , 11544.8662109375 
 6852.208984375 , 11625.591796875 
 6844.625 , 11705.912109375 
 6804.50341796875 , 11774.666015625 
 6734.15966796875 , 11812.4892578125 
 6653.9921875 , 11816.6826171875 
 6581.45556640625 , 11785.4951171875 
 6549.69091796875 , 11712.376953125 
 6544.58740234375 , 11631.818359375 
 6542.57861328125 , 11551.0888671875 
 6541.46240234375 , 11470.34765625 
 6540.80126953125 , 11389.5927734375 
 6540.38525390625 , 11308.857421875 
 6540.14453125 , 11228.078125 
 6540.0673828125 , 11147.328125 
 6539.990234375 , 11066.583984375 
 6539.9150390625 , 10985.833984375 
 6539.81201171875 , 10905.076171875 
 6539.54296875 , 10824.328125 
 6539.0908203125 , 10743.58203125 
 6538.306640625 , 10662.8291015625 
 6536.9482421875 , 10582.0908203125 
 6533.91259765625 , 10501.4140625 
 6488.7705078125 , 10452.9765625 
 6408.13134765625 , 10449.279296875 
 6327.4130859375 , 10451.5810546875 
 6267.33984375 , 10485.2080078125 
 6263.4580078125 , 10565.83984375 
 6261.89404296875 , 10646.5732421875 
 6261.02978515625 , 10727.3193359375 
 6260.52685546875 , 10808.0712890625 
 6260.2314453125 , 10888.8203125 
 6260.099609375 , 10969.578125 
 6260.02392578125 , 11050.328125 
 6259.9892578125 , 11131.07421875 
 6259.951171875 , 11211.83203125 
 6259.84814453125 , 11292.572265625 
 6259.60205078125 , 11373.3212890625 
 6259.0576171875 , 11454.087890625 
 6257.9423828125 , 11534.830078125 
 6255.45068359375 , 11615.544921875 
 6248.55126953125 , 11695.9541015625 
 6216.48828125 , 11768.451171875 
 6148.4716796875 , 11810.1796875 
 6068.80029296875 , 11819.89453125 
 5993.4951171875 , 11793.7841796875 
 5958.2978515625 , 11724.078125 
 5950.66357421875 , 11643.732421875 
 5947.3720703125 , 11563.05078125 
 5945.49365234375 , 11482.3115234375 
 5944.22119140625 , 11401.564453125 
 5943.267578125 , 11320.8173828125 
 5942.455078125 , 11240.0712890625 
 5941.705078125 , 11159.3251953125 
 5940.986328125 , 11078.5810546875 
 5940.21142578125 , 10997.833984375 
 5939.43603515625 , 10917.087890625 
 5938.6611328125 , 10836.341796875 
 5937.8857421875 , 10755.595703125 
 5937.1103515625 , 10674.849609375 
 5936.33544921875 , 10594.1025390625 
 5935.56005859375 , 10513.3564453125 
 5912.59375 , 10455 
 5831.84375 , 10455 
 5751.09375 , 10455 
 5674.96240234375 , 10459.66015625 
 5674.31103515625 , 10540.408203125 
 5673.66015625 , 10621.1552734375 
 5673.0087890625 , 10701.90234375 
 5672.357421875 , 10782.650390625 
 5671.70654296875 , 10863.3974609375 
 5671.05517578125 , 10944.14453125 
 5670.404296875 , 11024.892578125 
 5669.7333984375 , 11105.6474609375 
 5669.03173828125 , 11186.3935546875 
 5668.32958984375 , 11267.15625 
 5667.5361328125 , 11347.896484375 
 5666.60595703125 , 11428.6328125 
 5665.39208984375 , 11509.380859375 
 5663.509765625 , 11590.115234375 
 5659.41748046875 , 11670.7392578125 
 5636.92919921875 , 11747.2509765625 
 5577.2744140625 , 11800.2763671875 
 5499.57177734375 , 11819.6884765625 
 5421.47216796875 , 11802.7900390625 
 5367.5302734375 , 11745.015625 
 5357.2216796875 , 11665.3017578125 
 5354.5498046875 , 11584.583984375 
 5353.10205078125 , 11503.8486328125 
 5352.17822265625 , 11423.107421875 
 5351.61962890625 , 11342.361328125 
 5351.26904296875 , 11261.6015625 
 5351.07763671875 , 11180.8603515625 
 5351.0087890625 , 11100.109375 
 5350.80322265625 , 11019.3671875 
 5350.560546875 , 10938.6171875 
 5350.20361328125 , 10857.8564453125 
 5349.671875 , 10777.119140625 
 5348.91259765625 , 10696.3662109375 
 5347.72412109375 , 10615.623046875 
 5345.54638671875 , 10534.8916015625 
 5331.76416015625 , 10458.6494140625 
 5251.72802734375 , 10449.6259765625 
 5170.990234375 , 10449.76171875 
 5090.87890625 , 10458.4658203125 
 5075.3779296875 , 10533.1044921875 
 5072.9404296875 , 10613.814453125 
 5071.443359375 , 10694.55859375 
 5070.36865234375 , 10775.2998046875 
 5069.5615234375 , 10856.0419921875 
 5068.92138671875 , 10936.794921875 
 5068.44775390625 , 11017.5478515625 
 5067.9931640625 , 11098.3095703125 
 5067.5810546875 , 11179.05859375 
 5067.16845703125 , 11259.8076171875 
 5066.71630859375 , 11340.5654296875 
 5066.16796875 , 11421.3134765625 
 5065.43701171875 , 11502.0595703125 
 5064.26806640625 , 11582.80078125 
 5061.73974609375 , 11663.5048828125 
 5047.00537109375 , 11741.970703125 
 4989.3232421875 , 11797.5029296875 
 4911.82177734375 , 11817.8505859375 
 4832.4599609375 , 11809.58203125 
 4776.1669921875 , 11755.0283203125 
 4762.8173828125 , 11675.576171875 
 4758.3173828125 , 11594.96875 
 4756.01318359375 , 11514.2392578125 
 4754.58349609375 , 11433.51171875 
 4753.57763671875 , 11352.7705078125 
 4752.7412109375 , 11272.0234375 
 4752.0087890625 , 11191.2763671875 
 4751.27685546875 , 11110.5302734375 
 4750.51806640625 , 11029.7861328125 
 4749.74267578125 , 10949.0400390625 
 4748.9677734375 , 10868.29296875 
 4748.1923828125 , 10787.546875 
 4747.4169921875 , 10706.78515625 
 4746.64208984375 , 10626.0390625 
 4745.86669921875 , 10545.29296875 
 4745.091796875 , 10464.546875 
 4673.796875 , 10455 
 4593.046875 , 10455 
 4512.296875 , 10455 
 4484.56884765625 , 10508.4560546875 
 4483.91748046875 , 10589.203125 
 4483.2666015625 , 10669.951171875 
 4482.615234375 , 10750.6982421875 
 4481.96435546875 , 10831.4453125 
 4481.31298828125 , 10912.2080078125 
 4480.66162109375 , 10992.9560546875 
 4480.01025390625 , 11073.703125 
 4479.3125 , 11154.4443359375 
 4478.61376953125 , 11235.19140625 
 4477.86328125 , 11315.94921875 
 4476.99658203125 , 11396.689453125 
 4475.9306640625 , 11477.4267578125 
 4474.416015625 , 11558.1669921875 
 4471.625 , 11638.861328125 
 4461.1845703125 , 11718.7109375 
 4413.7578125 , 11782.75 
 4341.12158203125 , 11816.5537109375 
 4261.12060546875 , 11816.095703125 
 4192.845703125 , 11775.3759765625 
 4170.51123046875 , 11698.640625 
 4164.638671875 , 11618.1220703125 
 4162.1884765625 , 11537.4052734375 
 4161.0244140625 , 11456.66796875 
 4160.44140625 , 11375.921875 
 4160.16015625 , 11295.1669921875 
 4160.0537109375 , 11214.4169921875 
 4160.01318359375 , 11133.671875 
 4159.9794921875 , 11052.916015625 
 4159.90380859375 , 10972.166015625 
 4159.77783203125 , 10891.41015625 
 4159.48681640625 , 10810.65625 
 4158.99658203125 , 10729.90234375 
 4158.14990234375 , 10649.162109375 
 4156.6181640625 , 10568.421875 
 4152.8955078125 , 10487.7822265625 
 4095.239013671875 , 10451.4365234375 
 4014.5498046875 , 10449.025390625 
 3933.9228515625 , 10452.8720703125 
 3887.074951171875 , 10499.59765625 
 3883.78466796875 , 10580.26953125 
 3881.98681640625 , 10660.994140625 
 3880.7783203125 , 10741.759765625 
 3879.86376953125 , 10822.49609375 
 3879.17236328125 , 10903.2490234375 
 3878.63720703125 , 10984.001953125 
 3878.181884765625 , 11064.7509765625 
 3877.75244140625 , 11145.49609375 
 3877.33984375 , 11226.2451171875 
 3876.919677734375 , 11307.0029296875 
 3876.420654296875 , 11387.751953125 
 3875.772216796875 , 11468.498046875 
 3874.8388671875 , 11549.234375 
 3873.0830078125 , 11629.974609375 
 3867.68359375 , 11710.505859375 
 3826.14404296875 , 11777.5859375 
 3755.358154296875 , 11814.2958984375 
 3675.01708984375 , 11818.98046875 
 3605.153564453125 , 11782.4775390625 
 3576.951416015625 , 11708.41796875 
 3570.32275390625 , 11627.9521484375 
 3567.3125 , 11547.263671875 
 3565.517333984375 , 11466.544921875 
 3564.25341796875 , 11385.796875 
 3563.2734375 , 11305.0537109375 
 3562.42626953125 , 11224.3134765625 
 3561.641845703125 , 11143.5595703125 
 3560.8818359375 , 11062.7998046875 
 3560.1005859375 , 10982.0537109375 
 3559.319091796875 , 10901.3076171875 
 3558.53759765625 , 10820.560546875 
 3557.75634765625 , 10739.814453125 
 3556.974853515625 , 10659.068359375 
 3556.193359375 , 10578.322265625 
 3555.412109375 , 10497.576171875 
 3516.828125 , 10455 
 3436.078125 , 10455 
 3355.328125 , 10455 
 3294.835205078125 , 10475.42578125 
 3294.183837890625 , 10556.1884765625 
 3293.53271484375 , 10636.9365234375 
 3292.881591796875 , 10717.68359375 
 3292.23046875 , 10798.4306640625 
 3291.5791015625 , 10879.1787109375 
 3290.927978515625 , 10959.92578125 
 3290.27685546875 , 11040.6728515625 
 3289.626708984375 , 11121.4228515625 
 3288.9775390625 , 11202.169921875 
 3288.28759765625 , 11282.9091796875 
 3287.454345703125 , 11363.6591796875 
 3286.43017578125 , 11444.396484375 
 3285.06005859375 , 11525.16015625 
 3282.894775390625 , 11605.873046875 
 3278.19140625 , 11686.4697265625 
 3250.98974609375 , 11761.046875 
 3185.573486328125 , 11806.2802734375 
 3105.998779296875 , 11818.314453125 
 "/>
</svg>
