<svg xmlns="http://www.w3.org/2000/svg">
    <polyline points="
 114 , 9038 
 182.41502380371094 , 8947.52734375 
 248.96945190429688 , 8806.0439453125 
 317.0792541503906 , 8659.0556640625 
 383.3350830078125 , 8511.2197265625 
 446.8442077636719 , 8362.181640625 
 502.9232177734375 , 8210.4599609375 
 562.7897338867188 , 8059.96435546875 
 617.8641357421875 , 7907.68505859375 
 665.4365234375 , 7752.85693359375 
 714.1783447265625 , 7598.65966796875 
 759.6760864257812 , 7443.1728515625 
 809.8685302734375 , 7289.1552734375 
 869.7725830078125 , 7138.732421875 
 936.6740112304688 , 6991.22412109375 
 979.7676391601562 , 6835.6328125 
 1022.305908203125 , 6680.83349609375 
 1033.1090087890625 , 6519.3359375 
 1025.4180908203125 , 6357.58154296875 
 1001.7034912109375 , 6197.38525390625 
 963.2164916992188 , 6040.05224609375 
 926.889892578125 , 5882.18017578125 
 891.5859375 , 5724.08056640625 
 850.9183959960938 , 5567.26416015625 
 811.18603515625 , 5410.2041015625 
 771.0620727539062 , 5253.24365234375 
 729.1693115234375 , 5096.74755859375 
 683.922607421875 , 4941.19189453125 
 634.648681640625 , 4786.86279296875 
 582.7348022460938 , 4633.3984375 
 529.509765625 , 4480.38427734375 
 473.2977600097656 , 4328.45068359375 
 411.1737976074219 , 4178.83251953125 
 352.82574462890625 , 4027.76806640625 
 326.23626708984375 , 3868.73583984375 
 360.1728820800781 , 3711.07861328125 
 437.85052490234375 , 3569.402099609375 
 542.8020629882812 , 3446.201904296875 
 644.7565307617188 , 3320.412353515625 
 741.735595703125 , 3191.142333984375 
 827.9612426757812 , 3054.0205078125 
 904.10009765625 , 2911.072509765625 
 969.7967529296875 , 2762.998779296875 
 1040.8079833984375 , 2617.406005859375 
 1119.2105712890625 , 2475.654052734375 
 1206.8798828125 , 2339.48828125 
 1300.488037109375 , 2207.401123046875 
 1378.38671875 , 2065.876708984375 
 1471.366943359375 , 1933.3145751953125 
 1594.9158935546875 , 1829.880126953125 
 1723.8575439453125 , 1732.101318359375 
 1849.997802734375 , 1630.53564453125 
 1968.60546875 , 1520.1845703125 
 2091.255615234375 , 1414.3829345703125 
 2219.4130859375 , 1315.287353515625 
 2348.499267578125 , 1217.399169921875 
 2474.834716796875 , 1115.996337890625 
 2604.64404296875 , 1019.5595092773438 
 2753.869384765625 , 957.2039794921875 
 2902.764404296875 , 894.4658203125 
 3039.329833984375 , 807.3526000976562 
 3176.983642578125 , 722.022705078125 
 3333.0947265625 , 707.9183959960938 
 3455.210693359375 , 808.0317993164062 
 3482.135986328125 , 964.8074340820312 
 3434.25146484375 , 1119.1627197265625 
 3392.769287109375 , 1275.6607666015625 
 3329.719482421875 , 1424.6461181640625 
 3235.76171875 , 1554.8695068359375 
 3112.337158203125 , 1659.8057861328125 
 2993.832763671875 , 1770.206298828125 
 2985.251953125 , 1931.293701171875 
 2926.61083984375 , 2080.5068359375 
 2852.6484375 , 2224.64013671875 
 2774.70263671875 , 2366.6357421875 
 2689.3681640625 , 2504.322265625 
 2620.94091796875 , 2650.698974609375 
 2558.930908203125 , 2800.346923828125 
 2489.42822265625 , 2946.6630859375 
 2447.889892578125 , 3096.21923828125 
 2466.361328125 , 3257.168212890625 
 2480 , 3418.5322265625 
 2623.53271484375 , 3435.5009765625 
 2785.531494140625 , 3433.80908203125 
 2947.530517578125 , 3432.012451171875 
 3109.5341796875 , 3431.09228515625 
 3266.9111328125 , 3447.908935546875 
 3318.93603515625 , 3601.08642578125 
 3365.339111328125 , 3756.239501953125 
 3391.466552734375 , 3606.025146484375 
 3416.59716796875 , 3445.979736328125 
 3440.8369140625 , 3285.798095703125 
 3467.31396484375 , 3125.990478515625 
 3492.71728515625 , 2965.986572265625 
 3518.019775390625 , 2805.96533203125 
 3543.20361328125 , 2645.92724609375 
 3568.229736328125 , 2485.864013671875 
 3593.1103515625 , 2325.7783203125 
 3618.04541015625 , 2165.70068359375 
 3643.2216796875 , 2005.6614990234375 
 3669.29736328125 , 1845.765869140625 
 3708.691650390625 , 1689.9837646484375 
 3802.1455078125 , 1764.804443359375 
 3817.547119140625 , 1926.0611572265625 
 3830.20947265625 , 2087.572265625 
 3844.1435546875 , 2248.97900390625 
 3857.28125 , 2410.453125 
 3870.114501953125 , 2571.950439453125 
 3883.56201171875 , 2733.400146484375 
 3897.28466796875 , 2894.825439453125 
 3910.511962890625 , 3056.292724609375 
 3923.766845703125 , 3217.756591796875 
 3937.527587890625 , 3379.17822265625 
 3950.8994140625 , 3540.634765625 
 3963.711181640625 , 3702.13525390625 
 3977.111328125 , 3863.58740234375 
 3991.070556640625 , 4024.99072265625 
 4003.9755859375 , 4186.482421875 
 4016.7080078125 , 4347.98828125 
 4031.567626953125 , 4509.31005859375 
 4041.2578125 , 4671.00146484375 
 4066.248046875 , 4574.43212890625 
 4080.33154296875 , 4413.03955078125 
 4094.937255859375 , 4251.6904296875 
 4110.1240234375 , 4090.39453125 
 4126.2412109375 , 3929.193115234375 
 4141.73291015625 , 3767.927001953125 
 4157.884765625 , 3606.727294921875 
 4173.3935546875 , 3445.46337890625 
 4187.83203125 , 3284.10205078125 
 4205.50439453125 , 3123.102783203125 
 4317.00830078125 , 3105.154541015625 
 4403.162109375 , 3242.173583984375 
 4481.65478515625 , 3383.89208984375 
 4614.16796875 , 3430 
 4776.17578125 , 3430 
 4938.18359375 , 3430 
 5100.19140625 , 3430 
 5262.19921875 , 3430 
 5424.20703125 , 3430 
 5586.21484375 , 3430 
 5748.22265625 , 3430 
 5910.23046875 , 3430 
 6072.23828125 , 3430 
 6130 , 3534.24609375 
 6011.564453125 , 3639.080078125 
 5882.34912109375 , 3736.79736328125 
 5751.8330078125 , 3832.77685546875 
 5621.1259765625 , 3928.495849609375 
 5492.0322265625 , 4026.36962890625 
 5367.83251953125 , 4130.3349609375 
 5253.2861328125 , 4244.8310546875 
 5153.3603515625 , 4372.09375 
 5083.396484375 , 4517.74560546875 
 5048.0341796875 , 4675.6025390625 
 5051.50048828125 , 4836.89990234375 
 5107.94970703125 , 4987.9599609375 
 5206.02783203125 , 5116.23828125 
 5334.82861328125 , 5213.82666015625 
 5482.33837890625 , 5280.1064453125 
 5640.216796875 , 5314.85791015625 
 5802.033203125 , 5316.0537109375 
 5961.5654296875 , 5289.5478515625 
 6111.00244140625 , 5227.82470703125 
 6243.60546875 , 5135.31689453125 
 6351.111328125 , 5014.70068359375 
 6441.42822265625 , 4938.9228515625 
 6532.85888671875 , 5072.39501953125 
 6651.61962890625 , 5182.03515625 
 6792.73193359375 , 5260.83251953125 
 6948.05517578125 , 5305.931640625 
 7109.1875 , 5320.1220703125 
 7270.03466796875 , 5303.05224609375 
 7424.2421875 , 5254.337890625 
 7564.2236328125 , 5173.49609375 
 7680.15087890625 , 5060.99853515625 
 7762.53466796875 , 4921.93115234375 
 7785 , 4765.224609375 
 7778.62158203125 , 4603.49755859375 
 7724.2919921875 , 4451.47412109375 
 7635.97998046875 , 4316.02392578125 
 7525.3779296875 , 4197.80615234375 
 7403.7177734375 , 4090.872314453125 
 7276.7744140625 , 3990.230224609375 
 7147.1318359375 , 3893.077392578125 
 7017.4833984375 , 3795.931640625 
 6888.86962890625 , 3697.418701171875 
 6761.84130859375 , 3596.872802734375 
 6697 , 3466.02734375 
 6827.97802734375 , 3434.172119140625 
 6989.982421875 , 3433.14794921875 
 7151.9873046875 , 3432.1240234375 
 7313.99169921875 , 3431.099853515625 
 7475.99609375 , 3430.075927734375 
 7638.0009765625 , 3429.052978515625 
 7800.005859375 , 3428.0302734375 
 7962.01025390625 , 3427.007568359375 
 8124.0146484375 , 3425.98486328125 
 8282.9208984375 , 3419.736328125 
 8361.521484375 , 3278.0712890625 
 8442.2880859375 , 3137.65234375 
 8566.091796875 , 3084.3173828125 
 8592.66015625 , 3242.914306640625 
 8608.3681640625 , 3404.159912109375 
 8623.6142578125 , 3565.4521484375 
 8638.65625 , 3726.76220703125 
 8654.96875 , 3887.941650390625 
 8670.75 , 4049.17578125 
 8685.0712890625 , 4210.5498046875 
 8700.591796875 , 4371.8095703125 
 8715.703125 , 4533.10888671875 
 8737.5654296875 , 4671.6220703125 
 8753.37109375 , 4510.412109375 
 8767.6611328125 , 4349.03759765625 
 8781.2470703125 , 4187.60205078125 
 8794.11328125 , 4026.104736328125 
 8807.2890625 , 3864.635986328125 
 8820.9287109375 , 3703.203369140625 
 8834.44921875 , 3541.762451171875 
 8847.552734375 , 3380.283935546875 
 8860.732421875 , 3218.81396484375 
 8874.359375 , 3057.37841796875 
 8888.0556640625 , 2895.948974609375 
 8901.2470703125 , 2734.4814453125 
 8914.1884765625 , 2572.98779296875 
 8927.27734375 , 2411.51025390625 
 8940.70703125 , 2250.0546875 
 8954.5537109375 , 2088.646240234375 
 8966.896484375 , 1927.1083984375 
 8979.7939453125 , 1765.617919921875 
 9075.1103515625 , 1682.444091796875 
 9114.259765625 , 1836.3399658203125 
 9139.4267578125 , 1996.3809814453125 
 9165.1748046875 , 2156.33056640625 
 9190.060546875 , 2316.408203125 
 9214.4482421875 , 2476.569580078125 
 9240.2099609375 , 2636.48046875 
 9265.802734375 , 2796.453857421875 
 9291.0205078125 , 2956.488037109375 
 9315.9541015625 , 3116.567138671875 
 9341.5517578125 , 3276.536865234375 
 9367.427734375 , 3436.462890625 
 9392.00390625 , 3596.593994140625 
 9426.41796875 , 3730.72705078125 
 9472.5830078125 , 3575.490966796875 
 9542.3447265625 , 3436.75439453125 
 9703.982421875 , 3429.97314453125 
 9865.98828125 , 3431.237548828125 
 10027.9853515625 , 3433.20751953125 
 10189.9794921875 , 3435.3115234375 
 10320.0087890625 , 3405.0224609375 
 10335.052734375 , 3243.734375 
 10353.697265625 , 3082.804443359375 
 10304.4013671875 , 2934.64697265625 
 10235.61328125 , 2787.990478515625 
 10174.3779296875 , 2638.02783203125 
 10103.6689453125 , 2492.752197265625 
 10018.509765625 , 2354.962890625 
 9941.3544921875 , 2212.54541015625 
 9866.9951171875 , 2068.615478515625 
 9813.814453125 , 1917.82763671875 
 9796.521484375 , 1760.7655029296875 
 9677.447265625 , 1650.983642578125 
 9554.2255859375 , 1545.819091796875 
 9464.2734375 , 1412.56005859375 
 9403.5185546875 , 1262.6854248046875 
 9361.296875 , 1106.4239501953125 
 9316.21875 , 951.4150390625 
 9351.6103515625 , 796.3892822265625 
 9479.90234375 , 704.2861938476562 
 9634.8701171875 , 728.476806640625 
 9771.9375 , 814.7860717773438 
 9908.9775390625 , 901.1256103515625 
 10058.943359375 , 961.4471435546875 
 10207.013671875 , 1026.3616943359375 
 10335.4921875 , 1124.67822265625 
 10462.169921875 , 1225.6610107421875 
 10591.35546875 , 1323.4200439453125 
 10719.2294921875 , 1422.87890625 
 10841.3291015625 , 1529.3133544921875 
 10960.1376953125 , 1639.4454345703125 
 11087.142578125 , 1739.9169921875 
 11214.3486328125 , 1839.6871337890625 
 11337.13671875 , 1943.7899169921875 
 11428.814453125 , 2077.283447265625 
 11506.703125 , 2218.8134765625 
 11600.9892578125 , 2350.44384765625 
 11687.603515625 , 2487.2978515625 
 11765.3994140625 , 2629.38330078125 
 11835.7216796875 , 2775.30859375 
 11901.783203125 , 2923.21630859375 
 11978.888671875 , 3065.6474609375 
 12065.8486328125 , 3202.30712890625 
 12163.8134765625 , 3330.83544921875 
 12266.6064453125 , 3455.875 
 12369.8916015625 , 3580.4560546875 
 12444.51953125 , 3723.726806640625 
 12473.8525390625 , 3882.2255859375 
 12442.9990234375 , 4040.594970703125 
 12383.568359375 , 4191.2568359375 
 12321.7685546875 , 4341.0048828125 
 12266.009765625 , 4493.109375 
 12212.9013671875 , 4646.16455078125 
 12161.119140625 , 4799.67333984375 
 12112.150390625 , 4954.09716796875 
 12067.240234375 , 5109.751953125 
 12025.5517578125 , 5266.3037109375 
 11985.5166015625 , 5423.28564453125 
 11945.755859375 , 5580.337890625 
 11905.126953125 , 5737.16455078125 
 11870.25390625 , 5895.36279296875 
 11833.41015625 , 6053.11572265625 
 11795.71875 , 6210.62890625 
 11773.314453125 , 6371.015625 
 11767.0107421875 , 6532.82861328125 
 11780.0166015625 , 6694.12353515625 
 11821.521484375 , 6849.06494140625 
 11868.3828125 , 7003.73583984375 
 11935.734375 , 7151.0556640625 
 11994.287109375 , 7301.9970703125 
 12044.2001953125 , 7456.10009765625 
 12089.515625 , 7611.640625 
 12139.1396484375 , 7765.5517578125 
 12186.55859375 , 7920.43359375 
 12241.7265625 , 8072.6806640625 
 12302.1337890625 , 8222.9677734375 
 12358.3564453125 , 8374.6337890625 
 12422.0771484375 , 8523.578125 
 12488.6435546875 , 8671.2734375 
 12556.462890625 , 8818.39453125 
 12622.36328125 , 8960.138671875 
 12673.015625 , 9040.9912109375 
 12511.1435546875 , 9046.6787109375 
 12349.1416015625 , 9048.3798828125 
 12187.13671875 , 9049.234375 
 12025.130859375 , 9049.6494140625 
 11863.12109375 , 9049.890625 
 11701.11328125 , 9049.98046875 
 11539.10546875 , 9050 
 11377.09765625 , 9050 
 11215.08984375 , 9050 
 11053.08203125 , 9050 
 10891.07421875 , 9050 
 10729.06640625 , 9050 
 10637.1826171875 , 8963.8828125 
 10604.33984375 , 8805.2392578125 
 10570.8662109375 , 8646.7275390625 
 10536.0556640625 , 8488.505859375 
 10499.16015625 , 8330.755859375 
 10459.37109375 , 8173.71484375 
 10416.287109375 , 8017.544921875 
 10370.265625 , 7862.2099609375 
 10322.2216796875 , 7707.49462890625 
 10275.3115234375 , 7552.42626953125 
 10230.6611328125 , 7396.69287109375 
 10188.7919921875 , 7240.18896484375 
 10145.482421875 , 7084.0810546875 
 10097.4677734375 , 6929.35888671875 
 10047.0625 , 6775.3896484375 
 9995.5205078125 , 6621.7998046875 
 9941.8046875 , 6468.95947265625 
 9884.0361328125 , 6317.61083984375 
 9815.00390625 , 6171.20068359375 
 9748.880859375 , 6023.56201171875 
 9711.705078125 , 5866.10986328125 
 9700.1328125 , 5704.64111328125 
 9706.4560546875 , 5542.80908203125 
 9724.1953125 , 5381.79833984375 
 9749.28125 , 5221.75830078125 
 9783.07421875 , 5063.341796875 
 9827.794921875 , 4907.671875 
 9885.1376953125 , 4756.2109375 
 9957.20703125 , 4611.20654296875 
 10045.0625 , 4475.17333984375 
 10122.576171875 , 4333.01025390625 
 10188.0986328125 , 4184.87158203125 
 10244.42578125 , 4032.998046875 
 10288.958984375 , 3877.319580078125 
 10310.1201171875 , 3716.875 
 10313.8330078125 , 3554.91650390625 
 10161.91015625 , 3545 
 9999.90234375 , 3545 
 9837.89453125 , 3545 
 9675.88671875 , 3545 
 9575.2900390625 , 3625.234130859375 
 9532.9736328125 , 3781.6181640625 
 9488.8359375 , 3937.4912109375 
 9427.59765625 , 4083.652587890625 
 9340.837890625 , 3983.552490234375 
 9314.998046875 , 3823.61962890625 
 9288.9716796875 , 3663.71484375 
 9263.4541015625 , 3503.732666015625 
 9238.5458984375 , 3343.6484375 
 9213.7724609375 , 3183.548095703125 
 9188.6240234375 , 3023.504150390625 
 9162.45703125 , 2863.6474609375 
 9138.2900390625 , 2703.4638671875 
 9112.9345703125 , 2543.44775390625 
 9086.56640625 , 2383.60205078125 
 9055.3349609375 , 2254.733154296875 
 9039.3701171875 , 2415.93115234375 
 9025.94921875 , 2577.384033203125 
 9012.76171875 , 2738.852294921875 
 8999.1181640625 , 2900.28466796875 
 8985.5205078125 , 3061.723388671875 
 8972.681640625 , 3223.214599609375 
 8959.1884765625 , 3384.656982421875 
 8945.6328125 , 3546.0986328125 
 8932.7607421875 , 3707.607177734375 
 8918.8662109375 , 3869.0146484375 
 8905.8994140625 , 4030.506591796875 
 8893.103515625 , 4192.0078125 
 8879.85546875 , 4353.4755859375 
 8865.990234375 , 4514.89013671875 
 8852.40625 , 4676.3271484375 
 8839.298828125 , 4837.80224609375 
 8826.1015625 , 4999.26953125 
 8812.2509765625 , 5160.6875 
 8796.1474609375 , 5321.88720703125 
 8709.0087890625 , 5410.2783203125 
 8673.0615234375 , 5256.3974609375 
 8657.654296875 , 5095.12109375 
 8641.7119140625 , 4933.8984375 
 8626.6875 , 4772.59033203125 
 8611.607421875 , 4611.2880859375 
 8595.8720703125 , 4450.04833984375 
 8580.8388671875 , 4288.7412109375 
 8565.3115234375 , 4127.478515625 
 8549.8935546875 , 3966.204345703125 
 8534.541015625 , 3804.9228515625 
 8518.908203125 , 3643.669921875 
 8503.005859375 , 3482.4482421875 
 8489.0673828125 , 3321.04736328125 
 8417.7197265625 , 3406.13916015625 
 8324.607421875 , 3527.94482421875 
 8162.6923828125 , 3533.349609375 
 8000.7119140625 , 3536.1435546875 
 7838.7138671875 , 3538.081298828125 
 7676.716796875 , 3539.48193359375 
 7514.71142578125 , 3540.59228515625 
 7352.70751953125 , 3541.69140625 
 7190.70361328125 , 3542.790283203125 
 7028.69921875 , 3543.889404296875 
 6866.6953125 , 3544.988525390625 
 6993.34423828125 , 3641.056640625 
 7123.04833984375 , 3738.130615234375 
 7252.59375 , 3835.415771484375 
 7380.96923828125 , 3934.230712890625 
 7506.935546875 , 4036.097900390625 
 7627.884765625 , 4143.84228515625 
 7737.71240234375 , 4262.7783203125 
 7826.76806640625 , 4397.8603515625 
 7888.61279296875 , 4547.1494140625 
 7909.55322265625 , 4707.419921875 
 7900.98974609375 , 4868.96533203125 
 7848.876953125 , 5021.46923828125 
 7751.7548828125 , 5150.6474609375 
 7631.47412109375 , 5258.75830078125 
 7491.06298828125 , 5338.96826171875 
 7337.919921875 , 5391.2353515625 
 7178.1845703125 , 5416.4208984375 
 7016.2919921875 , 5415.30712890625 
 6856.28564453125 , 5391.3330078125 
 6704.529296875 , 5335.291015625 
 6564.62939453125 , 5253.9794921875 
 6443.978515625 , 5146.490234375 
 6328.21826171875 , 5210.69140625 
 6195.650390625 , 5303.36279296875 
 6047.9560546875 , 5369.39794921875 
 5890.9365234375 , 5408.45458984375 
 5729.5791015625 , 5420.74169921875 
 5568.39990234375 , 5406.33203125 
 5411.9736328125 , 5364.96435546875 
 5265.498046875 , 5296.294921875 
 5135.07275390625 , 5200.6640625 
 5028.29443359375 , 5079.32568359375 
 4955.3134765625 , 4935.22607421875 
 4923.07958984375 , 4776.9462890625 
 4931.9677734375 , 4615.5751953125 
 4976.6474609375 , 4460.16455078125 
 5050.97265625 , 4316.5009765625 
 5149.96875 , 4188.46826171875 
 5264.693359375 , 4074.177001953125 
 5388.041015625 , 3969.180908203125 
 5516.14306640625 , 3870.024658203125 
 5646.95361328125 , 3774.45068359375 
 5777.716796875 , 3678.808837890625 
 5907.45751953125 , 3581.789306640625 
 5870.5 , 3540 
 5708.4921875 , 3540 
 5546.484375 , 3540 
 5384.4765625 , 3540 
 5222.46875 , 3540 
 5060.453125 , 3539.951416015625 
 4898.447265625 , 3539.8212890625 
 4736.435546875 , 3539.322509765625 
 4574.44482421875 , 3537.550537109375 
 4424.6328125 , 3502.082763671875 
 4342.796875 , 3362.3701171875 
 4292.25439453125 , 3362.678955078125 
 4276.1240234375 , 3523.881103515625 
 4261.30419921875 , 3685.203857421875 
 4246.3671875 , 3846.519775390625 
 4231.42236328125 , 4007.838623046875 
 4214.966796875 , 4169.00732421875 
 4199.51708984375 , 4330.2744140625 
 4184.591796875 , 4491.59521484375 
 4169.2265625 , 4652.87353515625 
 4154.130859375 , 4814.1689453125 
 4138.53125 , 4975.421875 
 4123.95458984375 , 5136.77294921875 
 4107.1240234375 , 5297.90380859375 
 4037.633056640625 , 5419.9765625 
 3983.61767578125 , 5281.98193359375 
 3969.130126953125 , 5120.62109375 
 3955.882568359375 , 4959.162109375 
 3942.480712890625 , 4797.70703125 
 3928.580322265625 , 4636.29833984375 
 3915.456298828125 , 4474.8232421875 
 3902.68603515625 , 4313.31201171875 
 3889.155517578125 , 4151.87548828125 
 3875.477783203125 , 3990.444091796875 
 3861.91259765625 , 3829 
 3849.0361328125 , 3667.507568359375 
 3835.525146484375 , 3506.063232421875 
 3821.83447265625 , 3344.63720703125 
 3808.62548828125 , 3183.162841796875 
 3795.4443359375 , 3021.692138671875 
 3782.021484375 , 2860.243896484375 
 3769.583740234375 , 2698.715087890625 
 3756.13134765625 , 2537.26220703125 
 3741.845703125 , 2375.8876953125 
 3723.302490234375 , 2228.5322265625 
 3696.518798828125 , 2388.273681640625 
 3671.189453125 , 2548.284912109375 
 3645.88330078125 , 2708.30712890625 
 3620.57958984375 , 2868.334716796875 
 3595.3388671875 , 3028.361083984375 
 3569.724365234375 , 3188.333740234375 
 3544.606689453125 , 3348.38330078125 
 3519.757080078125 , 3508.4736328125 
 3494.140380859375 , 3668.44384765625 
 3469.22705078125 , 3828.522216796875 
 3444.197509765625 , 3988.580810546875 
 3353.666015625 , 4083.9306640625 
 3294.802734375 , 3935.9638671875 
 3251.6611328125 , 3779.805908203125 
 3208.876708984375 , 3623.549560546875 
 3110.62060546875 , 3540.4306640625 
 2948.615234375 , 3541.3564453125 
 2786.614013671875 , 3542.42333984375 
 2624.612060546875 , 3543.811767578125 
 2486.39306640625 , 3568.388427734375 
 2490.697265625 , 3730.32177734375 
 2513.975830078125 , 3890.469970703125 
 2559.892822265625 , 4045.757080078125 
 2616.9990234375 , 4197.34423828125 
 2683.325439453125 , 4345.11962890625 
 2762.26171875 , 4486.47705078125 
 2849.4033203125 , 4622.94091796875 
 2920.160400390625 , 4768.59521484375 
 2976.38623046875 , 4920.47314453125 
 3020.137939453125 , 5076.42236328125 
 3053.08740234375 , 5235.015625 
 3077.606689453125 , 5395.14697265625 
 3094.578125 , 5556.24365234375 
 3099.691650390625 , 5718.11083984375 
 3086.2744140625 , 5879.43505859375 
 3046.703125 , 6036.28955078125 
 2978.3271484375 , 6182.91552734375 
 2910.908447265625 , 6330.10205078125 
 2853.621337890625 , 6481.634765625 
 2800.126708984375 , 6634.55810546875 
 2748.718505859375 , 6788.18798828125 
 2698.38623046875 , 6942.185546875 
 2650.75537109375 , 7097.02685546875 
 2607.719482421875 , 7253.20947265625 
 2565.7392578125 , 7409.68017578125 
 2520.86767578125 , 7565.34814453125 
 2473.74169921875 , 7720.3564453125 
 2425.812255859375 , 7875.10986328125 
 2380.01123046875 , 8030.51171875 
 2337.184326171875 , 8186.75 
 2297.673583984375 , 8343.861328125 
 2260.982666015625 , 8501.66015625 
 2226.31396484375 , 8659.9111328125 
 2192.908203125 , 8818.443359375 
 2160.084716796875 , 8977.0908203125 
 2057.4453125 , 9050 
 1895.4375 , 9050 
 1733.4296875 , 9050 
 1571.421875 , 9050 
 1409.4140625 , 9050 
 1247.40625 , 9050 
 1085.400390625 , 9049.9736328125 
 923.392578125 , 9049.8828125 
 761.383544921875 , 9049.671875 
 599.3798217773438 , 9049.1826171875 
 437.3738098144531 , 9048.279296875 
 275.3703918457031 , 9046.462890625 
 "/>
</svg>
