<svg xmlns="http://www.w3.org/2000/svg">
    <line x1="1" x2="1400" y1="800" y2="1"/>
    <polyline fill="none" stroke="green" stroke-linejoin="round" stroke-width="1" points="
 48.5 , 71.10416412353516 
 47.16856384277344 , 78.28770446777344 
 46.5093879699707 , 85.5655517578125 
 46.156612396240234 , 92.865966796875 
 45.88249588012695 , 100.16991424560547 
 45.58488082885742 , 107.4729232788086 
 45.21143341064453 , 114.77240753173828 
 44.73371124267578 , 122.0657958984375 
 44.16427993774414 , 129.3526611328125 
 43.6116943359375 , 136.6408233642578 
 43.0822639465332 , 143.9307098388672 
 42.56556701660156 , 151.2215118408203 
 42.05231857299805 , 158.51255798339844 
 41.53176498413086 , 165.80307006835938 
 40.991851806640625 , 173.09219360351562 
 40.42035675048828 , 180.37890625 
 39.804012298583984 , 187.6619415283203 
 39.128746032714844 , 194.9397430419922 
 38.38092803955078 , 202.21041870117188 
 37.55051040649414 , 209.47213745117188 
 36.61115264892578 , 216.72052001953125 
 35.50100326538086 , 223.94448852539062 
 34.4892463684082 , 229.13058471679688 
 39.34988784790039 , 224.416259765625 
 44.06870651245117 , 218.8500213623047 
 49.17708206176758 , 213.63938903808594 
 54.27760696411133 , 208.4271697998047 
 58.07377243041992 , 202.1900177001953 
 60.24559020996094 , 195.22726440429688 
 62.55289840698242 , 188.29261779785156 
 64.57559967041016 , 181.2697296142578 
 66.7625732421875 , 174.3438720703125 
 66.3016128540039 , 176.3417205810547 
 67.18579864501953 , 183.59657287597656 
 68.11907958984375 , 190.84548950195312 
 68.69764709472656 , 198.130859375 
 69.0505142211914 , 205.43128967285156 
 69.38520812988281 , 212.732421875 
 70.13656616210938 , 220.0023651123047 
 70.5 , 227.29762268066406 
 69.9805679321289 , 223.2908935546875 
 70.28789520263672 , 215.9938201904297 
 71.37580871582031 , 208.76934814453125 
 73.08892822265625 , 201.66552734375 
 75.24144744873047 , 194.68153381347656 
 77.82230377197266 , 187.84620666503906 
 81.21186828613281 , 181.3766632080078 
 86.072265625 , 176.0645751953125 
 92.4049301147461 , 178.0445556640625 
 95.6888198852539 , 184.56263732910156 
 97.301513671875 , 191.66928100585938 
 97.8969955444336 , 198.95355224609375 
 98.63414764404297 , 206.2244110107422 
 99.17888641357422 , 213.5116729736328 
 99.47354888916016 , 220.81431579589844 
 101.42042541503906 , 227.79824829101562 
 107.52039337158203 , 230.10267639160156 
 114.72441864013672 , 228.9302215576172 
 121.58395385742188 , 226.43759155273438 
 127.89029693603516 , 222.75994873046875 
 133.54049682617188 , 218.13461303710938 
 138.18252563476562 , 212.50634765625 
 141.69863891601562 , 206.10789489746094 
 144.28231811523438 , 199.27540588378906 
 146.15573120117188 , 192.21279907226562 
 147.51145935058594 , 185.0316925048828 
 148.35580444335938 , 177.7732696533203 
 148.7572479248047 , 170.47604370117188 
 148.79234313964844 , 163.16778564453125 
 148.4286346435547 , 155.868896484375 
 147.5226287841797 , 148.6188201904297 
 145.71043395996094 , 141.54537963867188 
 143.04879760742188 , 134.74212646484375 
 139.67190551757812 , 128.26344299316406 
 135.77378845214844 , 122.08509826660156 
 132.79739379882812 , 126.15316009521484 
 132.30162048339844 , 133.44500732421875 
 131.95529174804688 , 140.74575805664062 
 131.75486755371094 , 148.05198669433594 
 131.712890625 , 155.36080932617188 
 131.83522033691406 , 162.66876220703125 
 132.12521362304688 , 169.97189331054688 
 132.58738708496094 , 177.26620483398438 
 133.326416015625 , 184.53717041015625 
 134.348388671875 , 191.77413940429688 
 135.59194946289062 , 198.97642517089844 
 137.003173828125 , 206.1478271484375 
 138.52980041503906 , 213.295654296875 
 140.11917114257812 , 220.4298553466797 
 141.7101287841797 , 227.56361389160156 
 143.22418212890625 , 234.71412658691406 
 144.52159118652344 , 241.9065399169922 
 145.53717041015625 , 249.14443969726562 
 146.4329833984375 , 256.3984069824219 
 147.68502807617188 , 263.5950012207031 
 149.10470581054688 , 264.3105163574219 
 147.08042907714844 , 257.28765869140625 
 145.1478271484375 , 250.23902893066406 
 142.98219299316406 , 243.25843811035156 
 140.64520263671875 , 236.33311462402344 
 138.19448852539062 , 229.44720458984375 
 135.67051696777344 , 222.5877227783203 
 133.11268615722656 , 215.74081420898438 
 130.52886962890625 , 208.9036865234375 
 127.8753890991211 , 202.09329223632812 
 128.1539764404297 , 196.11538696289062 
 135.45555114746094 , 195.89007568359375 
 142.74745178222656 , 196.37225341796875 
 150.02452087402344 , 197.05621337890625 
 157.29769897460938 , 197.77999877929688 
 164.5717315673828 , 198.49488830566406 
 171.85035705566406 , 199.16087341308594 
 179.13751220703125 , 199.72491455078125 
 186.4375 , 200.0782928466797 
 193.746337890625 , 200.1041717529297 
 198.04470825195312 , 197.63169860839844 
 191.76275634765625 , 194.23724365234375 
 184.52056884765625 , 194.09939575195312 
 178.90774536132812 , 198.4488067626953 
 176.16062927246094 , 205.2017822265625 
 175.0032196044922 , 212.39195251464844 
 177.1680908203125 , 219.21446228027344 
 182.79803466796875 , 223.80975341796875 
 189.53768920898438 , 226.582763671875 
 196.7895965576172 , 227.35475158691406 
 203.3919677734375 , 225.11090087890625 
 204.53843688964844 , 218.02622985839844 
 203.8716583251953 , 210.7688446044922 
 200.66552734375 , 204.2569580078125 
 195.38470458984375 , 199.23788452148438 
 189.3628387451172 , 195.1016387939453 
 182.84048461914062 , 191.82281494140625 
 175.75726318359375 , 190.14210510253906 
 179.30343627929688 , 193.53245544433594 
 186.40757751464844 , 195.2013397216797 
 193.66403198242188 , 196.06724548339844 
 200.95115661621094 , 196.63113403320312 
 208.24850463867188 , 197.04336547851562 
 215.55381774902344 , 197.24366760253906 
 222.8526611328125 , 196.9101104736328 
 229.97567749023438 , 195.40933227539062 
 231.50424194335938 , 194.73997497558594 
 231.87338256835938 , 202.03863525390625 
 232.5216522216797 , 209.3186492919922 
 233.63638305664062 , 216.53965759277344 
 234.4969482421875 , 219.9448699951172 
 233.6729736328125 , 212.6924591064453 
 231.70635986328125 , 205.6585235595703 
 229.1603240966797 , 198.80799865722656 
 226.5194091796875 , 191.99331665039062 
 227.7274169921875 , 186.11761474609375 
 234.9950408935547 , 186.63380432128906 
 242.2667999267578 , 187.3694305419922 
 249.5562744140625 , 187.89901733398438 
 256.8614501953125 , 188.1013641357422 
 260.5 , 191.3588104248047 
 260.5 , 198.6678924560547 
 260.2727966308594 , 205.97174072265625 
 261.41473388671875 , 213.01547241210938 
 265.0103454589844 , 207.17279052734375 
 268.0462951660156 , 200.52383422851562 
 271.15838623046875 , 193.91091918945312 
 274.8419189453125 , 187.60696411132812 
 279.0280456542969 , 186.15248107910156 
 281.6693420410156 , 192.91806030273438 
 283.13372802734375 , 200.0789337158203 
 284.3916015625 , 207.2779541015625 
 287.9290466308594 , 205.2256317138672 
 291.33026123046875 , 198.75689697265625 
 295.1097412109375 , 192.50259399414062 
 299.39208984375 , 186.58316040039062 
 304.40771484375 , 181.27694702148438 
 309.9059753417969 , 179.69053649902344 
 313.2718200683594 , 186.14430236816406 
 315.34881591796875 , 193.1499481201172 
 317.44134521484375 , 200.1530303955078 
 319.4424743652344 , 207.18228149414062 
 322.0152893066406 , 211.80813598632812 
 326.16094970703125 , 205.78961181640625 
 330.45538330078125 , 199.87506103515625 
 334.65484619140625 , 193.89317321777344 
 338.7187194824219 , 187.81858825683594 
 343.322021484375 , 182.1515655517578 
 349.79681396484375 , 180.7620849609375 
 355.4666442871094 , 185.27224731445312 
 355.9002685546875 , 186.02737426757812 
 350.38494873046875 , 181.23985290527344 
 344.65765380859375 , 182.89866638183594 
 342.5428771972656 , 189.8711700439453 
 341.71038818359375 , 197.1260223388672 
 342.1546325683594 , 204.40843200683594 
 346.82098388671875 , 208.50047302246094 
 352.460693359375 , 204.33975219726562 
 355.5240173339844 , 197.71380615234375 
 357.7336730957031 , 190.75650024414062 
 360.39105224609375 , 187.7872314453125 
 361.13470458984375 , 195.05445861816406 
 363.2589111328125 , 202.0310516357422 
 366.65576171875 , 208.49090576171875 
 371.4208068847656 , 214.00106811523438 
 377.9662780761719 , 216.58087158203125 
 383.7283935546875 , 212.31304931640625 
 387.5562744140625 , 206.10154724121094 
 390.3771057128906 , 199.36334228515625 
 392.5279541015625 , 192.37998962402344 
 394.171875 , 185.2594451904297 
 395.3902282714844 , 178.0536651611328 
 396.22198486328125 , 170.79295349121094 
 396.695556640625 , 163.49974060058594 
 396.9269714355469 , 156.19459533691406 
 396.9601135253906 , 148.8858184814453 
 396.8351745605469 , 141.5779266357422 
 396.62158203125 , 134.27194213867188 
 396.49090576171875 , 126.96431732177734 
 396.7478332519531 , 128.17922973632812 
 398.2319030761719 , 135.33335876464844 
 400.1470642089844 , 142.38673400878906 
 402.2802429199219 , 149.37742614746094 
 404.5547790527344 , 156.32342529296875 
 406.93450927734375 , 163.23423767089844 
 409.398193359375 , 170.11550903320312 
 411.94635009765625 , 176.96591186523438 
 414.5809020996094 , 183.78358459472656 
 417.3071594238281 , 190.565185546875 
 420.1348571777344 , 197.30502319335938 
 423.0782775878906 , 203.99505615234375 
 426.1968994140625 , 210.60470581054688 
 429.6795654296875 , 217.02976989746094 
 433.2779235839844 , 223.3899688720703 
 429.4044494628906 , 227.36012268066406 
 423.1806640625 , 223.89019775390625 
 418.8593444824219 , 218.0109405517578 
 415.283935546875 , 211.6374969482422 
 411.90692138671875 , 205.15541076660156 
 408.2919006347656 , 198.80545043945312 
 403.6695251464844 , 193.16502380371094 
 398.6878967285156 , 187.81686401367188 
 394.4927978515625 , 181.91384887695312 
 401.6602478027344 , 181.1300048828125 
 408.9692687988281 , 181.10887145996094 
 416.2771301269531 , 181.23191833496094 
 423.5845031738281 , 181.3919677734375 
 430.8930969238281 , 181.38894653320312 
 438.1903991699219 , 180.99867248535156 
 445.4287109375 , 180.0058135986328 
 452.5219421386719 , 178.2578887939453 
 458.5505676269531 , 175.1060333251953 
 458.4999694824219 , 182.0919647216797 
 458.5 , 189.4010467529297 
 458.5 , 196.7101287841797 
 458.66680908203125 , 204.01422119140625 
 460.6175231933594 , 210.99154663085938 
 466.05914306640625 , 209.97422790527344 
 468.9378662109375 , 203.26004028320312 
 471.38861083984375 , 196.37454223632812 
 473.611083984375 , 189.41171264648438 
 475.6786804199219 , 182.4013214111328 
 477.6318054199219 , 175.35812377929688 
 479.501953125 , 168.29237365722656 
 481.33599853515625 , 161.21714782714844 
 483.12646484375 , 154.1307830810547 
 484.8581237792969 , 147.0298614501953 
 486.5119323730469 , 139.9103546142578 
 488.0655212402344 , 132.7684326171875 
 489.48785400390625 , 125.59913635253906 
 490.7352600097656 , 118.39755249023438 
 491.7578430175781 , 111.16068267822266 
 492.780029296875 , 103.92337799072266 
 493.452880859375 , 96.65570068359375 
 490.861083984375 , 99.7308349609375 
 490.5615539550781 , 107.03356170654297 
 490.1612548828125 , 114.33161926269531 
 489.89971923828125 , 121.63601684570312 
 489.7962341308594 , 128.94415283203125 
 489.8525390625 , 136.2528839111328 
 490.0647888183594 , 143.55870056152344 
 490.4247131347656 , 150.85874938964844 
 491.00341796875 , 158.14414978027344 
 491.92230224609375 , 165.39468383789062 
 493.1178283691406 , 172.6050567626953 
 494.44573974609375 , 179.79238891601562 
 495.4939880371094 , 187.02261352539062 
 495.81732177734375 , 181.00596618652344 
 497.72332763671875 , 173.95892333984375 
 500.7852783203125 , 167.3323516845703 
 505.1182556152344 , 161.47239685058594 
 511.4578552246094 , 161.0372314453125 
 511.0370788574219 , 168.00320434570312 
 505.49676513671875 , 172.66815185546875 
 499.2778015136719 , 176.5034942626953 
 494.3886413574219 , 181.84568786621094 
 493.79412841796875 , 188.8352813720703 
 498.5620422363281 , 194.2987823486328 
 504.6503601074219 , 198.32681274414062 
 511.23724365234375 , 201.48619079589844 
 518.10498046875 , 203.9803924560547 
 525.1365356445312 , 205.97108459472656 
 532.275146484375 , 207.53477478027344 
 539.5101928710938 , 208.5540008544922 
 546.6292724609375 , 207.9457550048828 
 "/>
</svg>
