<svg xmlns="http://www.w3.org/2000/svg">
    <line x1="1" x2="1400" y1="800" y2="1"/>
    <path d=" M 82.6261978149414, 243.3209991455078 
 L 79.12957000732422, 247.73646545410156 
 83.32365417480469, 251.26309204101562 
 89.0325927734375, 252.44256591796875 
 94.82737731933594, 253.14126586914062 
 100.63109588623047, 253.7612762451172 
 106.44837188720703, 254.23663330078125 
 112.27784729003906, 254.52366638183594 
 118.11397552490234, 254.58389282226562 
 123.94740295410156, 254.39678955078125 
 129.7681121826172, 253.96812438964844 
 135.56939697265625, 253.32723999023438 
 141.34925842285156, 252.5147705078125 
 147.10931396484375, 251.57154846191406 
 152.85308837890625, 250.5335693359375 
 158.17945861816406, 251.77377319335938 
 163.34877014160156, 254.48257446289062 
 168.6640167236328, 256.8924560546875 
 170.77452087402344, 259.06610107421875 
 165.32215881347656, 261.1479797363281 
 159.77857971191406, 262.9732971191406 
 154.15895080566406, 264.54913330078125 
 148.47698974609375, 265.8829650878906 
 142.74472045898438, 266.9808349609375 
 136.97312927246094, 267.8486022949219 
 131.1719970703125, 268.4901428222656 
 125.35053253173828, 268.90875244140625 
 119.5173110961914, 269.1037902832031 
 113.68089294433594, 269.0743713378906 
 107.85025787353516, 268.8137512207031 
 102.0355224609375, 268.3110656738281 
 96.24923706054688, 267.5486755371094 
 90.5087890625, 266.4961853027344 
 84.8416976928711, 265.10321044921875 
 79.29937744140625, 263.2787780761719 
 74.00322723388672, 260.8375549316406 
 69.38243103027344, 257.3151550292969 
 67.97136688232422, 251.95762634277344 
 71.86580657958984, 247.74261474609375 
 77.08809661865234, 245.1570281982422 
 M 74.83976745605469, 209.58079528808594 
 L 70.88004302978516, 214.77853393554688 
 74.20878601074219, 219.776611328125 
 80.63414764404297, 221.34707641601562 
 87.2359390258789, 222.00039672851562 
 93.84845733642578, 222.5380859375 
 100.46990966796875, 222.95045471191406 
 107.09932708740234, 223.20303344726562 
 113.7331771850586, 223.2690887451172 
 120.36591339111328, 223.13304138183594 
 126.9912338256836, 222.7908935546875 
 133.6032257080078, 222.2487335205078 
 140.19741821289062, 221.5210723876953 
 146.77093505859375, 220.62542724609375 
 153.3225860595703, 219.58148193359375 
 159.8522186279297, 218.40760803222656 
 166.0269775390625, 218.232421875 
 171.31520080566406, 222.21920776367188 
 177.30349731445312, 225.046142578125 
 171.55247497558594, 226.86123657226562 
 165.11563110351562, 228.4672393798828 
 158.6343994140625, 229.8834991455078 
 152.11532592773438, 231.1140594482422 
 145.5647735595703, 232.1642608642578 
 138.98817443847656, 233.03675842285156 
 132.39053344726562, 233.73245239257812 
 125.77664184570312, 234.2515411376953 
 119.15116119384766, 234.59133911132812 
 112.51879119873047, 234.7471466064453 
 105.88472747802734, 234.7103271484375 
 99.25504302978516, 234.4677276611328 
 92.63761901855469, 233.99839782714844 
 86.04376983642578, 233.27061462402344 
 79.49217224121094, 232.23052978515625 
 73.01869201660156, 230.78485107421875 
 66.7119369506836, 228.73875427246094 
 60.90858459472656, 225.57061767578125 
 58.42531204223633, 219.8785858154297 
 62.78521728515625, 215.03756713867188 
 68.64183807373047, 211.93905639648438 
 M 218.1067657470703, 268.7561950683594 
 L 215.04925537109375, 279.0185546875 
 202.61886596679688, 283.2012939453125 
 189.6937255859375, 285.6227111816406 
 176.65469360351562, 287.3426208496094 
 163.56434631347656, 288.6190490722656 
 150.4453582763672, 289.5584716796875 
 137.3089141845703, 290.21112060546875 
 124.16195678710938, 290.59881591796875 
 111.00988006591797, 290.72442626953125 
 97.85813903808594, 290.5735168457031 
 84.71373748779297, 290.1114196777344 
 71.58804321289062, 289.2746887207031 
 58.503944396972656, 287.9421691894531 
 45.518707275390625, 285.8672180175781 
 32.84907150268555, 282.3900146484375 
 32.880794525146484, 274.1636047363281 
 45.25687026977539, 269.7947692871094 
 58.22590255737305, 267.7181396484375 
 45.3763313293457, 266.41180419921875 
 32.52915954589844, 269.1605529785156 
 20.23944091796875, 273.8094787597656 
 9.629043579101562, 281.36993408203125 
 15.86536693572998, 290.26959228515625 
 28.74336051940918, 292.8710021972656 
 41.7669677734375, 294.7081604003906 
 54.83198547363281, 296.2232360839844 
 67.93022155761719, 297.4172668457031 
 81.05390930175781, 298.28839111328125 
 94.19512939453125, 298.8345642089844 
 107.34589385986328, 299.0500793457031 
 120.49779510498047, 298.92474365234375 
 133.64149475097656, 298.4446105957031 
 146.76596069335938, 297.5871887207031 
 159.85694885253906, 296.31915283203125 
 172.89437866210938, 294.5863952636719 
 185.84584045410156, 292.30059814453125 
 198.64820861816406, 289.2948913574219 
 211.13514709472656, 285.1864013671875 
 222.36378479003906, 278.5184631347656 
 M 88.33576965332031, 174.2830047607422 
 L 78.87350463867188, 176.80422973632812 
 69.534912109375, 179.74888610839844 
 60.497310638427734, 183.4988250732422 
 58.014739990234375, 190.0959014892578 
 67.50421142578125, 192.3731689453125 
 77.25194549560547, 193.28945922851562 
 87.03669738769531, 193.67880249023438 
 96.82909393310547, 193.77133178710938 
 106.621337890625, 193.65550231933594 
 116.41031646728516, 193.3750762939453 
 126.19420623779297, 192.9525909423828 
 135.97152709960938, 192.3986358642578 
 145.73635864257812, 191.66363525390625 
 155.47421264648438, 190.62660217285156 
 165.19168090820312, 189.412841796875 
 174.8892364501953, 188.048828125 
 184.5659637451172, 186.54446411132812 
 185.26641845703125, 187.69439697265625 
 176.62672424316406, 192.29806518554688 
 167.25088500976562, 194.9149932861328 
 157.6261749267578, 196.71905517578125 
 147.9395294189453, 198.1556396484375 
 138.21241760253906, 199.2876434326172 
 128.4582061767578, 200.15611267089844 
 118.68571472167969, 200.78741455078125 
 108.90135192871094, 201.19601440429688 
 99.11035919189453, 201.3882293701172 
 89.31752014160156, 201.3602294921875 
 79.52825164794922, 201.09664916992188 
 69.74999237060547, 200.56463623046875 
 59.99583053588867, 199.6993865966797 
 50.29594802856445, 198.3625030517578 
 40.75897979736328, 196.1692352294922 
 33.45329284667969, 190.64125061035156 
 40.9317626953125, 184.8054962158203 
 49.98616409301758, 181.08131408691406 
 59.314292907714844, 178.10877990722656 
 68.85740661621094, 175.92337036132812 
 78.55485534667969, 174.5830078125 
 M 189.55776977539062, 230.86289978027344 
 L 194.3792724609375, 228.26040649414062 
 199.09849548339844, 225.47691345214844 
 203.68832397460938, 222.48516845703125 
 208.11044311523438, 219.25112915039062 
 212.30935668945312, 215.73281860351562 
 216.2012939453125, 211.87875366210938 
 219.65621948242188, 207.63038635253906 
 222.4684295654297, 202.9351043701172 
 224.32337951660156, 197.79148864746094 
 224.8146209716797, 192.35317993164062 
 223.63143920898438, 187.02761840820312 
 220.83160400390625, 182.3433380126953 
 216.79051208496094, 178.6690673828125 
 211.92213439941406, 176.18833923339844 
 206.57772827148438, 175.05850219726562 
 201.14190673828125, 175.5224151611328 
 195.90550231933594, 177.1195526123047 
 198.5906524658203, 174.03627014160156 
 203.75575256347656, 172.24868774414062 
 209.15049743652344, 171.3225860595703 
 214.6230010986328, 171.29177856445312 
 220.01303100585938, 172.23214721679688 
 225.1225128173828, 174.1856689453125 
 229.7162628173828, 177.1525421142578 
 233.52134704589844, 181.07716369628906 
 236.2395782470703, 185.81689453125 
 237.60679626464844, 191.1052703857422 
 237.50804138183594, 196.56756591796875 
 236.051513671875, 201.8365936279297 
 233.50228881835938, 206.67697143554688 
 230.1488037109375, 211.0032196044922 
 226.22557067871094, 214.82322692871094 
 221.90090942382812, 218.18406677246094 
 217.29005432128906, 221.14144897460938 
 212.47146606445312, 223.7477264404297 
 207.49961853027344, 226.04893493652344 
 202.41261291503906, 228.08346557617188 
 197.2378387451172, 229.8834991455078 
 191.9952850341797, 231.4756622314453 
 M 94.04606628417969, 312.8782043457031 
 L 103.81517028808594, 313.40240478515625 
 113.59302520751953, 313.7255859375 
 123.37529754638672, 313.8609924316406 
 133.15838623046875, 313.8125915527344 
 142.9387969970703, 313.5793762207031 
 152.71258544921875, 313.15069580078125 
 162.474853515625, 312.51220703125 
 172.21890258789062, 311.6390380859375 
 181.9346466064453, 310.494140625 
 191.60633850097656, 309.0240783691406 
 201.20675659179688, 307.14593505859375 
 210.6842041015625, 304.7260437011719 
 219.9254913330078, 301.5279541015625 
 228.62632751464844, 297.0855407714844 
 235.69842529296875, 290.4278259277344 
 235.76210021972656, 286.8157043457031 
 227.53172302246094, 292.04669189453125 
 218.47679138183594, 295.7362365722656 
 209.12155151367188, 298.59173583984375 
 199.61392211914062, 300.89373779296875 
 190.01670837402344, 302.7901611328125 
 180.362060546875, 304.3695983886719 
 170.66688537597656, 305.67791748046875 
 160.9419403076172, 306.7431640625 
 151.1951904296875, 307.58642578125 
 141.43276977539062, 308.22344970703125 
 131.65957641601562, 308.66546630859375 
 121.87969207763672, 308.920166015625 
 112.09674072265625, 308.99066162109375 
 102.31417083740234, 308.8774719238281 
 92.5356216430664, 308.575927734375 
 82.76522064208984, 308.076171875 
 73.00828552246094, 307.3605041503906 
 63.272647857666016, 306.3988952636719 
 53.570980072021484, 305.14080810546875 
 55.4415283203125, 307.1060485839844 
 64.9089126586914, 309.54632568359375 
 74.56304168701172, 311.1203918457031 
 84.2881088256836, 312.17950439453125 
 M 154.25999450683594, 2.985389471054077 
 L 159.703125, 11.82188606262207 
 162.28067016601562, 21.889320373535156 
 162.0166015625, 32.284000396728516 
 159.2960205078125, 42.329959869384766 
 154.7342071533203, 51.693973541259766 
 148.87918090820312, 60.31479263305664 
 142.12118530273438, 68.2512435913086 
 134.71942138671875, 75.5931396484375 
 126.84500885009766, 82.4269027709961 
 118.78185272216797, 89.03770446777344 
 111.28843688964844, 96.28236389160156 
 104.82270812988281, 104.44893646240234 
 100.17008972167969, 113.74996948242188 
 98.49756622314453, 123.99105834960938 
 100.32462310791016, 134.2140655517578 
 104.67829132080078, 143.67172241210938 
 110.2806396484375, 152.46311950683594 
 116.22509002685547, 161.0305938720703 
 121.72537231445312, 169.88449096679688 
 119.1045913696289, 169.67245483398438 
 111.48738861083984, 162.5512237548828 
 104.11034393310547, 155.18214416503906 
 97.12857818603516, 147.43899536132812 
 90.81392669677734, 139.14645385742188 
 85.69268798828125, 130.07823181152344 
 82.80909729003906, 120.09720611572266 
 83.64452362060547, 109.77716064453125 
 88.38458251953125, 100.54609680175781 
 95.05421447753906, 92.54174041748047 
 102.59461975097656, 85.34357452392578 
 110.5860824584961, 78.64594268798828 
 118.7503662109375, 72.1587905883789 
 126.86962890625, 65.61567687988281 
 134.71832275390625, 58.75225830078125 
 142.00450134277344, 51.29835891723633 
 148.30491638183594, 43.00135803222656 
 153.04429626464844, 33.73273468017578 
 155.6617889404297, 23.66244125366211 
 155.96868896484375, 13.259132385253906 
 M 137.64950561523438, 151.96238708496094 
 L 141.9876708984375, 158.7400360107422 
 143.38832092285156, 166.63333129882812 
 141.37376403808594, 174.4092254638672 
 136.9695281982422, 181.15867614746094 
 136.22775268554688, 183.11050415039062 
 142.9082794189453, 178.5663299560547 
 149.01742553710938, 173.2816162109375 
 154.2327423095703, 167.1210479736328 
 157.87002563476562, 159.93370056152344 
 158.82461547851562, 151.9620819091797 
 156.54620361328125, 144.25848388671875 
 152.13951110839844, 137.49085998535156 
 147.58975219726562, 130.81005859375 
 143.65463256835938, 123.75827026367188 
 141.5926971435547, 115.98680877685547 
 142.8975830078125, 108.07695770263672 
 146.96337890625, 101.12033081054688 
 152.37403869628906, 95.12467193603516 
 158.4302215576172, 89.7745132446289 
 164.84103393554688, 84.85250091552734 
 171.47061157226562, 80.22843170166016 
 178.2473602294922, 75.82241821289062 
 185.12892150878906, 71.58177185058594 
 192.0886993408203, 67.47064971923828 
 186.64796447753906, 68.71721649169922 
 178.9862518310547, 71.29193878173828 
 171.44143676757812, 74.1913833618164 
 164.0367431640625, 77.43163299560547 
 156.81057739257812, 81.0519027709961 
 149.8225860595703, 85.11194610595703 
 143.16665649414062, 89.69449615478516 
 136.99339294433594, 94.90636444091797 
 131.54931640625, 100.87134552001953 
 127.22403717041016, 107.68421936035156 
 124.5399169921875, 115.28652954101562 
 123.92596435546875, 123.32218170166016 
 125.36735534667969, 131.2567138671875 
 128.4393768310547, 138.72129821777344 
 132.6549835205078, 145.61117553710938 
 M 99.23719787597656, 430.71038818359375 
 L 99.23719787597656, 423.005126953125 
 99.23719787597656, 415.2998962402344 
 99.23719787597656, 407.5946350097656 
 99.23719787597656, 399.889404296875 
 99.23719787597656, 392.18414306640625 
 99.23719787597656, 384.4788818359375 
 99.0928726196289, 376.77825927734375 
 97.15425872802734, 369.3596496582031 
 92.4738998413086, 363.32037353515625 
 85.7165756225586, 359.7096252441406 
 78.17305755615234, 358.224609375 
 70.47479248046875, 358.12774658203125 
 62.825172424316406, 359.0111999511719 
 55.32866287231445, 360.7757568359375 
 48.038936614990234, 363.2646179199219 
 48.518123626708984, 369.89923095703125 
 53.566162109375, 371.6885681152344 
 61.0374641418457, 369.82196044921875 
 68.6873550415039, 368.9637451171875 
 76.33470153808594, 369.6448059082031 
 82.6642074584961, 373.74774169921875 
 84.69979095458984, 381.0604553222656 
 84.08231353759766, 388.14544677734375 
 76.37763214111328, 388.1972351074219 
 68.7020263671875, 388.8312683105469 
 61.1698112487793, 390.4200134277344 
 54.074676513671875, 393.3811340332031 
 48.10991287231445, 398.19989013671875 
 44.33980178833008, 404.8623046875 
 43.17616653442383, 412.4464416503906 
 44.3050651550293, 420.033935546875 
 48.27668380737305, 426.55596923828125 
 54.75153350830078, 430.6214904785156 
 62.272701263427734, 432.1718444824219 
 69.94749450683594, 431.810546875 
 77.22819519042969, 429.361083984375 
 83.76657104492188, 425.3052062988281 
 87.28988647460938, 426.7547302246094 
 91.53193664550781, 430.7103576660156 
 M 84.70259857177734, 414.0994873046875 
 L 83.05817413330078, 415.4964294433594 
 81.33264923095703, 416.791748046875 
 79.52572631835938, 417.9707336425781 
 77.63825988769531, 419.0157470703125 
 75.67266845703125, 419.90478515625 
 73.63457489013672, 420.6114501953125 
 71.53474426269531, 421.104248046875 
 69.39195251464844, 421.3474426269531 
 67.23609161376953, 421.3065490722656 
 65.11222839355469, 420.93914794921875 
 63.0950927734375, 420.1831970214844 
 61.29478454589844, 419.00244140625 
 59.827842712402344, 417.42694091796875 
 58.76205062866211, 415.5555419921875 
 58.09230422973633, 413.5073547363281 
 57.76697540283203, 411.37603759765625 
 57.725135803222656, 409.2197570800781 
 57.967201232910156, 407.0775451660156 
 58.58525085449219, 405.0138854980469 
 59.64579391479492, 403.14044189453125 
 61.118927001953125, 401.5700988769531 
 62.889652252197266, 400.34228515625 
 64.83893585205078, 399.4206848144531 
 66.88689422607422, 398.74359130859375 
 68.98836517333984, 398.2554931640625 
 71.1187744140625, 397.91387939453125 
 73.26459503173828, 397.68719482421875 
 75.41824340820312, 397.55291748046875 
 77.57532501220703, 397.4944152832031 
 79.73328399658203, 397.489013671875 
 81.89126586914062, 397.489013671875 
 84.04924011230469, 397.489013671875 
 84.70252990722656, 398.99371337890625 
 84.70252990722656, 401.15167236328125 
 84.70252990722656, 403.3096618652344 
 84.70252990722656, 405.4676513671875 
 84.70252990722656, 407.6256103515625 
 84.70252990722656, 409.7835998535156 
 84.70252990722656, 411.94158935546875 
 M 148.03109741210938, 430.71038818359375 
 L 140.1388397216797, 430.71038818359375 
 132.24658203125, 430.71038818359375 
 128.24818420410156, 425.4439392089844 
 125.9349365234375, 417.8982849121094 
 123.62169647216797, 410.3526611328125 
 121.30845642089844, 402.8070068359375 
 118.9952163696289, 395.2613830566406 
 116.68197631835938, 387.71575927734375 
 114.36872863769531, 380.17010498046875 
 112.05548858642578, 372.6244812011719 
 109.74224853515625, 365.0788269042969 
 110.21855163574219, 359.595703125 
 118.11080932617188, 359.595703125 
 124.3344955444336, 361.85882568359375 
 126.6680908203125, 369.398193359375 
 129.00169372558594, 376.93756103515625 
 131.33529663085938, 384.4769287109375 
 133.6688995361328, 392.01629638671875 
 136.00250244140625, 399.5556640625 
 138.08192443847656, 407.164794921875 
 139.92369079589844, 414.8391418457031 
 142.40127563476562, 410.0254211425781 
 144.85061645507812, 402.5231018066406 
 147.105224609375, 394.9599914550781 
 149.14259338378906, 387.3355407714844 
 150.93966674804688, 379.6510009765625 
 152.4690704345703, 371.9088134765625 
 153.6992645263672, 364.11358642578125 
 157.5996551513672, 359.595703125 
 165.49191284179688, 359.595703125 
 169.19085693359375, 363.0888366699219 
 167.62611389160156, 370.82421875 
 165.87213134765625, 378.5189208984375 
 163.92913818359375, 386.1679992675781 
 161.79605102539062, 393.76629638671875 
 159.46859741210938, 401.30731201171875 
 156.93890380859375, 408.7829284667969 
 154.1979217529297, 416.1835632324219 
 151.23406982421875, 423.4977722167969 
 M 232.12249755859375, 430.71038818359375 
 L 232.12249755859375, 422.9920959472656 
 232.12249755859375, 415.2737731933594 
 232.12249755859375, 407.55548095703125 
 232.12249755859375, 399.837158203125 
 232.12249755859375, 392.1188659667969 
 232.12249755859375, 384.40057373046875 
 231.96914672851562, 376.68731689453125 
 229.99497985839844, 369.2651672363281 
 225.2681121826172, 363.2461242675781 
 218.4778289794922, 359.66888427734375 
 210.91529846191406, 358.2120361328125 
 203.20367431640625, 358.1363830566406 
 195.5434112548828, 359.0410461425781 
 188.03857421875, 360.82720947265625 
 180.74163818359375, 363.3354187011719 
 181.12513732910156, 370.1842346191406 
 186.29124450683594, 371.6657409667969 
 193.78721618652344, 369.84075927734375 
 201.44888305664062, 368.96832275390625 
 209.11288452148438, 369.616455078125 
 215.4930877685547, 373.66778564453125 
 217.5839080810547, 380.97552490234375 
 217.03976440429688, 388.14544677734375 
 209.322021484375, 388.1952819824219 
 201.63294982910156, 388.8249816894531 
 194.0867462158203, 390.4106750488281 
 186.97735595703125, 393.37139892578125 
 180.9998016357422, 398.1949157714844 
 177.22335815429688, 404.8684387207031 
 176.06167602539062, 412.4659423828125 
 177.1392059326172, 420.07708740234375 
 181.02626037597656, 426.66326904296875 
 187.50938415527344, 430.7304382324219 
 195.05947875976562, 432.1996154785156 
 202.74652099609375, 431.777099609375 
 210.05343627929688, 429.3620300292969 
 216.61965942382812, 425.3276062011719 
 220.17196655273438, 426.7286071777344 
 224.40423583984375, 430.7103576660156 
 M 217.58810424804688, 414.0994873046875 
 L 215.94354248046875, 415.4962463378906 
 214.2179718017578, 416.79150390625 
 212.4112091064453, 417.9707336425781 
 210.5237274169922, 419.0157470703125 
 208.55812072753906, 419.90478515625 
 206.52001953125, 420.6114501953125 
 204.42018127441406, 421.104248046875 
 202.27737426757812, 421.3474426269531 
 200.1215057373047, 421.3065490722656 
 197.99761962890625, 420.9391784667969 
 195.98046875, 420.1832275390625 
 194.18020629882812, 419.00244140625 
 192.71319580078125, 417.427001953125 
 191.64736938476562, 415.55560302734375 
 190.9776153564453, 413.50738525390625 
 190.6522674560547, 411.3760681152344 
 190.6104278564453, 409.2198181152344 
 190.8527069091797, 407.0776062011719 
 191.47055053710938, 405.013916015625 
 192.5310821533203, 403.14044189453125 
 194.00421142578125, 401.5700988769531 
 195.77496337890625, 400.34228515625 
 197.72425842285156, 399.4206848144531 
 199.7722930908203, 398.74383544921875 
 201.8737030029297, 398.2554931640625 
 204.00411987304688, 397.9138488769531 
 206.1499481201172, 397.68719482421875 
 208.30361938476562, 397.5528869628906 
 210.46070861816406, 397.4944152832031 
 212.61868286132812, 397.489013671875 
 214.77667236328125, 397.489013671875 
 216.93466186523438, 397.489013671875 
 217.58804321289062, 398.9936218261719 
 217.58804321289062, 401.151611328125 
 217.58804321289062, 403.3096008300781 
 217.58804321289062, 405.46759033203125 
 217.58804321289062, 407.6255798339844 
 217.58804321289062, 409.7835693359375 
 217.58804321289062, 411.9415588378906 
 M 27.0841007232666, 442.6490783691406 
 L 22.63344383239746, 447.9828796386719 
 17.164566040039062, 452.2682189941406 
 10.961223602294922, 455.40191650390625 
 5.899557113647461, 452.43212890625 
 3.055478572845459, 447.2919006347656 
 8.618780136108398, 443.12127685546875 
 13.33459758758545, 438.0225524902344 
 16.183975219726562, 431.72479248046875 
 17.02115249633789, 424.8232421875 
 17.210886001586914, 417.8663330078125 
 17.221784591674805, 410.90625 
 17.221784591674805, 403.94610595703125 
 17.221782684326172, 396.9859924316406 
 17.221782684326172, 390.0258483886719 
 17.221782684326172, 383.06573486328125 
 17.221782684326172, 376.1055908203125 
 17.221782684326172, 369.1454772949219 
 17.221782684326172, 362.18536376953125 
 17.22178077697754, 355.2252197265625 
 17.22178077697754, 348.26507568359375 
 17.22178077697754, 341.3049621582031 
 17.22178077697754, 334.3448486328125 
 23.997909545898438, 334.16082763671875 
 30.958038330078125, 334.16082763671875 
 32.79428482055664, 339.2846984863281 
 32.79428482055664, 346.24481201171875 
 32.79428482055664, 353.2049560546875 
 32.79428482055664, 360.16510009765625 
 32.79428482055664, 367.1252136230469 
 32.794281005859375, 374.0853271484375 
 32.794281005859375, 381.04547119140625 
 32.794281005859375, 388.005615234375 
 32.794281005859375, 394.9657287597656 
 32.794281005859375, 401.92584228515625 
 32.794281005859375, 408.885986328125 
 32.78754425048828, 415.8460693359375 
 32.59080123901367, 422.80279541015625 
 31.917760848999023, 429.7275390625 
 30.260581970214844, 436.4757080078125 
 "/>
</svg>
