<svg xmlns="http://www.w3.org/2000/svg">
    <line x1="1" x2="1400" y1="800" y2="1"/>
    <path d=" M 60.510154724121094, 6.39797306060791 
 L 53.70573043823242, 6.708101749420166 
 46.95756912231445, 7.628148078918457 
 40.45238494873047, 9.594223022460938 
 35.5506591796875, 14.128959655761719 
 34.29670715332031, 20.77066421508789 
 34.291404724121094, 27.58407974243164 
 37.04095458984375, 31.647972106933594 
 43.854400634765625, 31.647972106933594 
 50.667842864990234, 31.647972106933594 
 57.481285095214844, 31.647972106933594 
 61.103904724121094, 34.83879852294922 
 54.505889892578125, 35.054222106933594 
 47.69244384765625, 35.054222106933594 
 40.879005432128906, 35.054222106933594 
 34.06555938720703, 35.054222106933594 
 27.25211524963379, 35.054222106933594 
 20.46457862854004, 35.43535614013672 
 14.255670547485352, 38.12089538574219 
 9.689146995544434, 43.11103439331055 
 7.287633419036865, 49.4544792175293 
 6.018572807312012, 56.14610290527344 
 5.597198963165283, 62.93987274169922 
 6.218292713165283, 69.71915435791016 
 7.600902080535889, 76.38873291015625 
 10.131071090698242, 82.69025421142578 
 14.768816947937012, 87.59335327148438 
 21.230804443359375, 89.48384857177734 
 28.044153213500977, 89.4917221069336 
 30.947656631469727, 85.58177947998047 
 30.947656631469727, 78.7683334350586 
 31.83615493774414, 72.05529022216797 
 35.30052185058594, 66.24041748046875 
 40.72001647949219, 62.182918548583984 
 47.29323959350586, 60.59064483642578 
 54.10663604736328, 60.585472106933594 
 60.920082092285156, 60.585472106933594 
 67.73352813720703, 60.585472106933594 
 74.54696655273438, 60.58525466918945 
 81.05522918701172, 58.84115982055664 
 85.8810043334961, 54.133304595947266 
 87.86626434326172, 47.68840408325195 
 87.8851547241211, 40.875267028808594 
 87.8851547241211, 34.06182098388672 
 87.8851547241211, 27.248374938964844 
 87.84651184082031, 20.43596076965332 
 85.53858184814453, 14.112772941589355 
 80.4952621459961, 9.613221168518066 
 74.08304595947266, 7.4269700050354 
 67.3176498413086, 6.636598587036133 
 M 46.010154724121094, 14.61672306060791 
 L 46.64558029174805, 14.65751838684082 
 47.27042770385742, 14.779905319213867 
 47.874210357666016, 14.982063293457031 
 48.44704055786133, 15.260090827941895 
 48.97998046875, 15.608539581298828 
 49.46507263183594, 16.02102279663086 
 49.8952522277832, 16.49050521850586 
 50.26420593261719, 17.00948715209961 
 50.56633758544922, 17.570011138916016 
 50.7969970703125, 18.163528442382812 
 50.95259475708008, 18.780990600585938 
 51.031150817871094, 19.412899017333984 
 51.03232192993164, 20.049678802490234 
 50.955718994140625, 20.68181800842285 
 50.8012809753418, 21.299560546875 
 50.57102584838867, 21.89322853088379 
 50.26852798461914, 22.45354461669922 
 49.898685455322266, 22.97188377380371 
 49.46727752685547, 23.440227508544922 
 48.98085403442383, 23.85113525390625 
 48.44669723510742, 24.197717666625977 
 47.87293243408203, 24.47380828857422 
 47.2685661315918, 24.674226760864258 
 46.643455505371094, 24.79531478881836 
 46.00798416137695, 24.835464477539062 
 45.37252426147461, 24.795019149780273 
 44.747406005859375, 24.67395782470703 
 44.14298629760742, 24.47369384765625 
 43.569175720214844, 24.197702407836914 
 43.035064697265625, 23.851057052612305 
 42.54884719848633, 23.439905166625977 
 42.117862701416016, 22.971176147460938 
 41.74864959716797, 22.452388763427734 
 41.44694137573242, 21.891645431518555 
 41.217525482177734, 21.29765510559082 
 41.06386184692383, 20.679718017578125 
 40.987815856933594, 20.047508239746094 
 40.9892578125, 19.410724639892578 
 41.06776428222656, 18.778806686401367 
 41.22311019897461, 18.16128158569336 
 41.45343780517578, 17.56763458251953 
 41.75525665283203, 17.006940841674805 
 42.124019622802734, 16.48782730102539 
 42.554176330566406, 16.018327713012695 
 43.03941345214844, 15.606019020080566 
 43.57261276245117, 15.257967948913574 
 44.14573287963867, 14.980545043945312 
 44.74974060058594, 14.779060363769531 
 45.37471008300781, 14.657270431518555 
 M 91.2289047241211, 35.054222106933594 
 L 91.2289047241211, 41.85660934448242 
 91.14054107666016, 48.655921936035156 
 89.08688354492188, 55.092105865478516 
 84.72123718261719, 60.254234313964844 
 78.72515869140625, 63.36872482299805 
 71.97736358642578, 63.96047592163086 
 65.17498016357422, 63.960472106933594 
 58.37259292602539, 63.960472106933594 
 51.57020568847656, 63.960472106933594 
 44.79335403442383, 64.29430389404297 
 38.84419250488281, 67.4398422241211 
 35.09074020385742, 73.0323257446289 
 34.291404724121094, 79.74185943603516 
 34.291404724121094, 86.54424285888672 
 34.291404724121094, 93.34663391113281 
 34.291404724121094, 100.14901733398438 
 34.916954040527344, 106.88142395019531 
 38.856624603271484, 112.32386016845703 
 44.724029541015625, 115.71207427978516 
 51.233375549316406, 117.66252136230469 
 57.9536247253418, 118.67476654052734 
 64.74842071533203, 118.62015533447266 
 71.45760345458984, 117.53278350830078 
 77.95226287841797, 115.53504943847656 
 83.76152801513672, 112.05546569824219 
 87.4320068359375, 106.43951416015625 
 87.8851547241211, 99.67896270751953 
 87.86376190185547, 92.8979721069336 
 81.06136322021484, 92.8979721069336 
 74.25897979736328, 92.8979721069336 
 67.45659637451172, 92.8979721069336 
 61.103904724121094, 92.44828033447266 
 64.9497299194336, 89.4917221069336 
 71.75211334228516, 89.4917221069336 
 78.55451202392578, 89.4917221069336 
 85.35689544677734, 89.4917221069336 
 92.15928649902344, 89.4917221069336 
 98.961669921875, 89.4917221069336 
 105.6806640625, 88.76700592041016 
 110.84674835205078, 84.51494598388672 
 113.8174819946289, 78.41398620605469 
 115.81031799316406, 71.91552734375 
 116.71049499511719, 65.1819076538086 
 116.48566436767578, 58.389652252197266 
 115.39810943603516, 51.67793273925781 
 113.63778686523438, 45.11269760131836 
 110.39601135253906, 39.17221450805664 
 104.79414367675781, 35.504119873046875 
 98.03130340576172, 35.054222106933594 
 M 76.1664047241211, 99.7104721069336 
 L 76.8018798828125, 99.75066375732422 
 77.42705535888672, 99.8714370727539 
 78.03155517578125, 100.07144927978516 
 78.6054916381836, 100.34718322753906 
 79.13975524902344, 100.69358825683594 
 79.62615203857422, 101.10453033447266 
 80.05732727050781, 101.57308959960938 
 80.4267578125, 102.09171295166016 
 80.72871398925781, 102.65232849121094 
 80.9583740234375, 103.24622344970703 
 81.11231231689453, 103.86408996582031 
 81.1885986328125, 104.49626922607422 
 81.18743133544922, 105.13304901123047 
 81.10919189453125, 105.76499938964844 
 80.9541015625, 106.3825912475586 
 80.72402954101562, 106.97633361816406 
 80.42244720458984, 107.53715515136719 
 80.05390167236328, 108.0564193725586 
 79.62393951416016, 108.5261001586914 
 79.1388931274414, 108.93862915039062 
 78.6058349609375, 109.28690338134766 
 78.0328369140625, 109.5645751953125 
 77.42892456054688, 109.76632690429688 
 76.80400848388672, 109.8884048461914 
 76.1685791015625, 109.92921447753906 
 75.53313446044922, 109.88870239257812 
 74.90823364257812, 109.7666015625 
 74.30436706542969, 109.56468963623047 
 73.73141479492188, 109.28692626953125 
 73.19831085205078, 108.93870544433594 
 72.71305084228516, 108.52642822265625 
 72.28267669677734, 108.05712890625 
 71.91350555419922, 107.53829956054688 
 71.61112976074219, 106.9779052734375 
 71.38021850585938, 106.38448333740234 
 71.224365234375, 105.76708984375 
 71.14555358886719, 105.13521575927734 
 71.14411163330078, 104.4984359741211 
 71.22045135498047, 103.86626434326172 
 71.3746109008789, 103.24845886230469 
 71.60462188720703, 102.65469360351562 
 71.90689086914062, 102.0942611694336 
 72.27650451660156, 101.57575225830078 
 72.70770263671875, 101.10721588134766 
 73.19395446777344, 100.69609832763672 
 73.72795867919922, 100.34928894042969 
 74.3016128540039, 100.07295989990234 
 74.90589141845703, 99.87227630615234 
 75.53095245361328, 99.75090789794922 
 M 184.61343383789062, 61.92936325073242 
 L 184.5721435546875, 59.49029541015625 
 184.43869018554688, 57.05459213256836 
 184.19363403320312, 54.62765884399414 
 183.8125, 52.21848678588867 
 183.2611541748047, 49.84273910522461 
 182.4950408935547, 47.52777862548828 
 181.456787109375, 45.32234573364258 
 180.0828399658203, 43.31057357788086 
 178.3315887451172, 41.619606018066406 
 176.23289489746094, 40.38786697387695 
 173.9026641845703, 39.683349609375 
 171.47645568847656, 39.45944595336914 
 169.0393524169922, 39.53950119018555 
 166.62405395507812, 39.87434387207031 
 164.25692749023438, 40.45978546142578 
 161.9549560546875, 41.265785217285156 
 159.7117462158203, 42.22209548950195 
 157.65460205078125, 43.52116394042969 
 157.40931701660156, 45.85433578491211 
 157.40931701660156, 48.293880462646484 
 157.40931701660156, 50.73342514038086 
 157.40931701660156, 53.172969818115234 
 157.40931701660156, 55.612510681152344 
 157.40931701660156, 58.05205535888672 
 157.40931701660156, 60.491600036621094 
 157.40931701660156, 62.93114471435547 
 157.40931701660156, 65.37068939208984 
 157.40931701660156, 67.81023406982422 
 157.40931701660156, 70.2497787475586 
 157.40931701660156, 72.68931579589844 
 157.40931701660156, 75.12886047363281 
 157.40931701660156, 77.56840515136719 
 158.69122314453125, 79.28563690185547 
 160.83323669433594, 80.45233917236328 
 163.04916381835938, 81.47129821777344 
 165.34217834472656, 82.30140686035156 
 167.70872497558594, 82.88800811767578 
 170.13063049316406, 83.16246032714844 
 172.5645751953125, 83.05005645751953 
 174.94424438476562, 82.52802276611328 
 177.1750946044922, 81.55211639404297 
 179.14065551757812, 80.11561584472656 
 180.75828552246094, 78.29505157470703 
 182.01644897460938, 76.2082290649414 
 182.95620727539062, 73.95880126953125 
 183.6341552734375, 71.61642456054688 
 184.1019744873047, 69.2228012084961 
 184.4011993408203, 66.80207061767578 
 184.5635986328125, 64.36820983886719 
 M 194.85763549804688, 62.53368377685547 
 L 194.60716247558594, 67.21875 
 193.78196716308594, 71.83609008789062 
 192.27642822265625, 76.2767562866211 
 190.0263671875, 80.38906860351562 
 187.0555419921875, 84.01309204101562 
 183.34130859375, 86.86349487304688 
 179.0284423828125, 88.68453979492188 
 174.40560913085938, 89.44564819335938 
 169.72109985351562, 89.29723358154297 
 165.14881896972656, 88.26293182373047 
 160.80392456054688, 86.4973373413086 
 157.40931701660156, 85.41986083984375 
 157.40931701660156, 90.11402893066406 
 157.40931701660156, 94.80818939208984 
 157.40931701660156, 99.50234985351562 
 157.40931701660156, 104.1965103149414 
 157.40931701660156, 108.89067077636719 
 157.40931701660156, 113.5848388671875 
 155.45223999023438, 115.50312042236328 
 151.0308837890625, 113.9261474609375 
 148.50047302246094, 111.01600646972656 
 148.50047302246094, 106.32185363769531 
 148.50047302246094, 101.627685546875 
 148.50047302246094, 96.93351745605469 
 148.50047302246094, 92.23936462402344 
 148.50047302246094, 87.54519653320312 
 148.50047302246094, 82.85104370117188 
 148.50047302246094, 78.15687561035156 
 148.50047302246094, 73.46272277832031 
 148.50047302246094, 68.7685546875 
 148.50047302246094, 64.07438659667969 
 148.50047302246094, 59.38022994995117 
 148.50047302246094, 54.68606185913086 
 148.50047302246094, 49.99190902709961 
 148.50047302246094, 45.2977409362793 
 150.06898498535156, 41.2238883972168 
 153.83192443847656, 38.43363571166992 
 158.0299530029297, 36.34282684326172 
 162.483154296875, 34.869503021240234 
 167.08641052246094, 33.96357727050781 
 171.76048278808594, 33.55017852783203 
 176.3964080810547, 33.76918411254883 
 180.9480743408203, 34.863380432128906 
 185.03343200683594, 37.14326858520508 
 188.36346435546875, 40.4342041015625 
 190.9149169921875, 44.36717987060547 
 192.77777099609375, 48.6705207824707 
 193.99545288085938, 53.20039367675781 
 194.6568603515625, 57.84535217285156 
 M 249.30487060546875, 83.26573944091797 
 L 249.09620666503906, 90.49808502197266 
 248.25930786132812, 97.68170928955078 
 245.97308349609375, 104.50955200195312 
 241.04421997070312, 109.7354965209961 
 234.66709899902344, 113.11772155761719 
 227.7218475341797, 115.1170425415039 
 220.5399932861328, 115.94365692138672 
 219.7132110595703, 110.19963073730469 
 226.8450469970703, 108.98153686523438 
 233.6384735107422, 106.57292938232422 
 238.81881713867188, 101.65125274658203 
 240.5689239501953, 94.67837524414062 
 240.8833465576172, 87.4516830444336 
 236.3416290283203, 86.8857421875 
 229.32540893554688, 88.62602233886719 
 222.12220764160156, 89.23895263671875 
 215.0367431640625, 88.01847839355469 
 209.00363159179688, 84.10325622558594 
 205.1702423095703, 78.05953979492188 
 204.5267333984375, 70.8865966796875 
 204.5267333984375, 63.650054931640625 
 204.5267333984375, 56.41349792480469 
 204.5267333984375, 49.17694091796875 
 204.5267333984375, 41.94038391113281 
 206.28060913085938, 35.95707702636719 
 213.12684631347656, 33.61257553100586 
 213.43557739257812, 40.417076110839844 
 213.43557739257812, 47.65363311767578 
 213.43557739257812, 54.89019012451172 
 213.43557739257812, 62.126731872558594 
 213.43557739257812, 69.36328887939453 
 214.54356384277344, 76.44696044921875 
 219.51329040527344, 81.52235412597656 
 226.49691772460938, 83.14981079101562 
 233.5848388671875, 81.9122085571289 
 240.020751953125, 78.63850402832031 
 240.39602661132812, 71.60454559326172 
 240.39602661132812, 64.36797332763672 
 240.39602661132812, 57.131431579589844 
 240.39602661132812, 49.894859313964844 
 240.39602661132812, 42.65831756591797 
 240.39602661132812, 35.421775817871094 
 247.06277465820312, 34.851951599121094 
 249.30487060546875, 39.846397399902344 
 249.30487060546875, 47.082969665527344 
 249.30487060546875, 54.31951141357422 
 249.30487060546875, 61.55608367919922 
 249.30487060546875, 68.7926254272461 
 249.30487060546875, 76.0291976928711 
 "/>
</svg>
