<svg xmlns="http://www.w3.org/2000/svg" width="1000" height="1000">	
	<path 
	d="
    M915 2069 c-22 -5 -52 -22 -67 -36 -23 -22 -28 -35 -28 -72 0 -56 26 -116 68 -158 25 -25 45 -33 100 -43 l69 -11 -34 -34 c-22 -22 -33 -42 -33 -63 0 -39 38 -93 80 -114 l35 -18 -75 0 -75 0 -19 53 c-36 104 -77 195 -90 200 -7 3 -18 2 -25 -2 -12 -8 -164 -365 -176 -414 -9 -35 17 -47 78 -37 l48 7 -7 -26 c-4 -14 -8 -42 -8 -61 -1 -29 3 -36 21 -38 24 -3 79 14 173 53 33 14 61 25 64 25 3 0 36 -75 36 -84 0 -2 -89 -6 -197 -8 -260 -5 -273 -11 -273 -127 0 -61 20 -149 48 -215 18 -40 18 -43 0 -101 -35 -111 -33 -321 4 -448 27 -91 53 -74 134 86 37 73 68 134 70 136 1 2 29 -17 61 -41 98 -76 193 -118 193 -87 0 6 -11 30 -25 53 -14 23 -29 67 -35 97 -11 54 -4 143 10 134 4 -2 76 -96 160 -207 279 -371 286 -366 115 89 -63 169 -115 310 -115 314 0 25 144 40 153 15 3 -7 36 -126 72 -262 37 -137 73 -255 81 -263 12 -13 18 -11 50 15 93 75 130 226 85 344 -20 53 -79 125 -129 158 -13 9 -51 25 -85 36 -52 18 -62 26 -69 51 -4 17 -19 69 -32 118 l-24 87 68 0 68 0 12 -52 c22 -93 45 -101 90 -30 47 75 40 92 -40 102 -44 5 -45 6 -58 55 -7 28 -24 90 -38 139 -13 49 -23 91 -20 93 2 3 57 -59 121 -136 128 -154 153 -171 145 -98 -2 21 -65 176 -123 300 l-40 88 22 46 c17 35 19 48 10 59 -10 12 -17 12 -45 -5 -28 -17 -35 -18 -51 -6 -10 8 -40 22 -66 31 l-48 16 36 31 c30 26 38 41 41 77 9 83 -54 143 -150 144 -42 0 -52 -4 -77 -32 -36 -40 -39 -104 -9 -171 11 -24 18 -46 15 -49 -6 -6 -215 15 -223 22 -3 3 22 31 56 62 69 62 91 109 73 156 -19 50 -84 74 -156 57z m110 -44 c31 -30 32 -62 2 -106 -22 -33 -100 -99 -118 -99 -13 0 -47 57 -60 102 -18 56 -5 86 44 108 59 27 102 26 132 -5z m273 -39 c112 -58 74 -181 -66 -211 -32 -7 -33 -5 -58 50 -45 98 -18 175 63 175 19 0 46 -6 61 -14z m-95 -290 c14 -39 16 -55 7 -82 -24 -70 -101 -85 -156 -30 -63 63 -40 126 56 154 60 18 73 12 93 -42z m116 44 c28 -5 62 -17 77 -26 l25 -17 -50 -51 c-28 -29 -51 -58 -51 -65 0 -8 12 -29 26 -48 31 -41 26 -49 -17 -34 -18 6 -48 11 -68 11 -20 0 -53 3 -75 7 l-38 6 29 12 c30 13 63 66 63 103 0 11 -7 39 -15 62 -8 23 -15 44 -15 46 0 7 57 4 109 -6z m-432 -110 l41 -111 -33 -14 c-32 -13 -59 -47 -96 -120 -12 -25 -23 -31 -68 -38 -29 -5 -55 -6 -58 -3 -3 3 20 70 52 148 83 202 104 248 112 248 5 0 27 -50 50 -110z m618 -92 c87 -199 125 -291 122 -295 -3 -2 -48 49 -102 114 -54 65 -104 125 -111 133 -11 13 -8 23 18 63 17 26 34 47 38 47 4 0 20 -28 35 -62z m-187 -59 c12 -5 22 -13 22 -18 0 -24 -71 -126 -87 -126 -13 0 -17 -7 -15 -22 3 -24 -28 -92 -51 -112 -9 -7 -35 -11 -62 -9 -46 3 -47 4 -65 51 l-18 47 74 35 c142 65 102 100 -81 69 -28 -5 -31 -2 -47 44 -10 27 -18 53 -18 57 0 9 319 -5 348 -16z m52 -54 c0 -2 14 -54 30 -115 17 -61 30 -113 30 -116 0 -3 -30 -4 -66 -2 l-67 3 -14 47 -13 47 42 70 c37 61 58 85 58 66z m-376 -81 c3 -9 6 -22 6 -29 0 -17 -209 -100 -221 -88 -7 7 15 100 24 104 6 2 155 27 168 28 9 0 20 -6 23 -15z m89 -235 l20 -56 -62 -111 c-35 -62 -66 -114 -71 -117 -5 -3 -22 13 -39 34 -17 22 -51 49 -76 61 -59 28 -108 16 -159 -40 l-36 -40 -16 38 c-45 109 -56 215 -25 253 23 28 84 35 305 35 l139 -1 20 -56z m222 -46 c15 -60 30 -114 32 -120 4 -9 -5 -13 -24 -13 -17 0 -51 -6 -76 -14 -26 -8 -49 -10 -52 -6 -3 5 -17 39 -30 75 l-25 67 36 59 c33 55 38 59 73 59 l38 0 28 -107z m-165 -112 l22 -59 -46 -42 c-25 -23 -55 -58 -67 -77 -20 -32 -22 -33 -40 -17 -11 9 -19 24 -19 32 0 19 114 222 125 222 1 0 12 -27 25 -59z m-291 -56 c32 -16 101 -92 101 -109 -1 -6 -27 -57 -59 -113 l-57 -103 -26 28 c-41 43 -128 183 -128 205 0 11 20 39 44 63 47 48 76 55 125 29z m619 -25 c179 -90 225 -307 96 -448 -31 -35 -44 -43 -48 -32 -8 22 -136 495 -136 503 0 14 28 6 88 -23z m-200 -263 c52 -138 102 -273 113 -299 10 -27 17 -48 14 -48 -6 0 -336 430 -342 447 -10 27 85 153 115 153 4 0 49 -114 100 -253z m-490 -9 c23 -28 42 -54 40 -58 -18 -48 -136 -260 -145 -260 -41 0 -62 322 -29 434 l17 58 37 -62 c20 -34 56 -84 80 -112z m220 135 c15 -23 17 -35 10 -68 -14 -58 -2 -148 26 -208 14 -28 24 -52 23 -54 -4 -3 -146 90 -180 119 l-29 23 34 60 c18 33 44 81 58 108 14 26 28 47 32 47 4 0 15 -12 26 -27z
    
    
    "
	stroke="green" stroke-width="2" stroke-linecap="round" stroke-linejoin="round"
	fill="none"
	/>
</svg>
