<svg xmlns="http://www.w3.org/2000/svg" xmlns:se="http://svg-edit.googlecode.com" xmlns:xlink="http://www.w3.org/1999/xlink" xmlns:dc="http://purl.org/dc/elements/1.1/" xmlns:cc="http://creativecommons.org/ns#" xmlns:rdf="http://www.w3.org/1999/02/22-rdf-syntax-ns#" xmlns:inkscape="http://www.inkscape.org/namespaces/inkscape" width="777" height="480" style="">
	<title>my vector image</title>
	<!-- Created with Vector Paint - http://www.vectorpaint.yaks.com/ https://chrome.google.com/webstore/detail/hnbpdiengicdefcjecjbnjnoifekhgdo -->

	<path stroke="#222222" stroke-width="2" fill="none" 
	d="M211.66730816512427,237.78220972828007 Q288.0544773533493,290.2435133551132 364.26331513054635,237.78220972828007 M228.2227577112459,134.17019935545218 C228.2227577112459,126.06229697022144 234.79550227216555,119.48955240928933 242.90339523435034,119.48955240928933 C251.01128819650825,119.48955240928933 257.5840327574551,126.06229697022144 257.5840327574551,134.17019935545218 C257.5840327574551,142.27809231763723 251.01128819650825,148.85082745550957 242.90339523435034,148.85082745550957 C234.79550227216555,148.85082745550957 228.2227577112459,142.27809231763723 228.2227577112459,134.17019935545218 M318.52496906454064,134.17019935545218 C318.52496906454064,126.06229697022144 325.0977136254608,119.48955240928933 333.20560658764236,119.48955240928933 C341.31349954982693,119.48955240928933 347.8862346876857,126.06229697022144 347.8862346876857,134.17019935545218 C347.8862346876857,142.27809231763723 341.31349954982693,148.85082745550957 333.20560658764236,148.85082745550957 C325.0977324715767,148.85082745550957 318.52496906454064,142.27809231763723 318.52496906454064,134.17019935545218 M147.1204212083122,176.31990493298304 L147.1204212083122,176.31990493298304 C147.1204212083122,98.48417584211006 210.21875768552445,35.3858299418264 288.0544961994658,35.3858299418264 C365.8902441364448,35.3858299418264 428.9885711906228,98.48416641905041 428.9885711906228,176.31990493298304 C428.9885711906228,254.15565286996167 365.8902441364448,317.2539799241255 288.0544961994658,317.2539799241255 C210.21876710860965,317.2539799241255 147.1204212083122,254.15565286996167 147.1204212083122,176.31990493298304 M147.1204212083122,176.31990493298304 L147.1204212083122,176.31990493298304 C147.1204212083122,98.48417584211006 210.21875768552445,35.3858299418264 288.0544961994658,35.3858299418264 C365.8902441364448,35.3858299418264 428.9885711906228,98.48416641905041 428.9885711906228,176.31990493298304 C428.9885711906228,254.15565286996167 365.8902441364448,317.2539799241255 288.0544961994658,317.2539799241255 C210.21876710860965,317.2539799241255 147.1204212083122,254.15565286996167 147.1204212083122,176.31990493298304 "/>

</svg>