<svg xmlns="http://www.w3.org/2000/svg" xmlns:cc="http://creativecommons.org/ns#" xmlns:dc="http://purl.org/dc/elements/1.1/" xmlns:inkscape="http://www.inkscape.org/namespaces/inkscape" xmlns:rdf="http://www.w3.org/1999/02/22-rdf-syntax-ns#" xmlns:se="http://svg-edit.googlecode.com" xmlns:xlink="http://www.w3.org/1999/xlink" width="777" height="480" style="">
    <path d=" M 211.6673126220703, 237.78221130371094 
 L 216.2133026123047, 240.8111572265625 
 220.8452911376953, 243.7068328857422 
 225.5641326904297, 246.45864868164062 
 230.3699951171875, 249.05545043945312 
 235.26217651367188, 251.4856719970703 
 240.2389678955078, 253.73745727539062 
 245.2980194091797, 255.79769897460938 
 250.43511962890625, 257.65472412109375 
 255.64540100097656, 259.2951354980469 
 260.9219665527344, 260.7076416015625 
 266.2568054199219, 261.8810119628906 
 271.6403503417969, 262.8053283691406 
 277.06170654296875, 263.4725341796875 
 282.5090637207031, 263.8762512207031 
 287.9696044921875, 264.01275634765625 
 293.4302673339844, 263.8803405761719 
 298.8778991699219, 263.4803161621094 
 304.2997131347656, 262.8164978027344 
 309.6837463378906, 261.8951110839844 
 315.0190734863281, 260.72412109375 
 320.2961120605469, 259.3133544921875 
 325.5066223144531, 257.67376708984375 
 330.643798828125, 255.81690979003906 
 335.70263671875, 253.75616455078125 
 340.67877197265625, 251.50291442871094 
 345.5698547363281, 249.07054138183594 
 350.3741760253906, 246.47091674804688 
 355.09100341796875, 243.715576171875 
 359.7204284667969, 240.81581115722656 
 M 228.22276306152344, 134.17019653320312 
 L 228.5406951904297, 131.1171417236328 
 229.48858642578125, 128.19773864746094 
 231.02552795410156, 125.5407485961914 
 233.08016967773438, 123.26023864746094 
 235.56214904785156, 121.45417785644531 
 238.3656005859375, 120.20430755615234 
 241.36856079101562, 119.56889343261719 
 244.43821716308594, 119.56889343261719 
 247.44117736816406, 120.20430755615234 
 250.24464416503906, 121.45417022705078 
 252.72662353515625, 123.26022338867188 
 254.78125, 125.54074096679688 
 256.3182373046875, 128.19772338867188 
 257.2661437988281, 131.11712646484375 
 257.58404541015625, 134.17018127441406 
 257.2661437988281, 137.22323608398438 
 256.3182373046875, 140.14263916015625 
 254.78125, 142.7996063232422 
 252.72662353515625, 145.08013916015625 
 250.24464416503906, 146.88619995117188 
 247.44119262695312, 148.1360626220703 
 244.43824768066406, 148.771484375 
 241.3685760498047, 148.77149963378906 
 238.36561584472656, 148.13607788085938 
 235.56216430664062, 146.88619995117188 
 233.08018493652344, 145.08013916015625 
 231.0255584716797, 142.79962158203125 
 229.48858642578125, 140.1426544189453 
 228.5406951904297, 137.22325134277344 
 M 318.52496337890625, 134.17019653320312 
 L 318.8428649902344, 131.1171417236328 
 319.790771484375, 128.19775390625 
 321.3277282714844, 125.54076385498047 
 323.3823547363281, 123.26023864746094 
 325.8643493652344, 121.45419311523438 
 328.66778564453125, 120.2043228149414 
 331.6707458496094, 119.56889343261719 
 334.74041748046875, 119.56889343261719 
 337.7433776855469, 120.20431518554688 
 340.5468444824219, 121.45418548583984 
 343.02880859375, 123.26022338867188 
 345.08343505859375, 125.5407485961914 
 346.62042236328125, 128.19772338867188 
 347.5683288574219, 131.11712646484375 
 347.88623046875, 134.17018127441406 
 347.5683288574219, 137.22323608398438 
 346.62042236328125, 140.1426239013672 
 345.08343505859375, 142.7996063232422 
 343.0288391113281, 145.08013916015625 
 340.5468444824219, 146.8861846923828 
 337.7433776855469, 148.1360626220703 
 334.7404479980469, 148.77149963378906 
 331.6707763671875, 148.77149963378906 
 328.6678161621094, 148.1360626220703 
 325.8643798828125, 146.88619995117188 
 323.38238525390625, 145.0801544189453 
 321.3277587890625, 142.79962158203125 
 319.790771484375, 140.1426544189453 
 318.8428649902344, 137.2232666015625 
 M 147.12042236328125, 176.3199005126953 
 L 150.17233276367188, 147.01055908203125 
 159.27212524414062, 118.98430633544922 
 174.02700805664062, 93.47724151611328 
 193.7512664794922, 71.58402252197266 
 217.57830810546875, 54.24568557739258 
 244.4917449951172, 42.24744415283203 
 273.3200988769531, 36.146949768066406 
 302.7889099121094, 36.146949768066406 
 331.6173095703125, 42.247459411621094 
 358.53076171875, 54.24570083618164 
 382.3577880859375, 71.58399963378906 
 402.08203125, 93.47728729248047 
 416.8369140625, 118.9843978881836 
 425.93670654296875, 147.01063537597656 
 428.98858642578125, 176.3199462890625 
 425.9366760253906, 205.62928771972656 
 416.83685302734375, 233.65554809570312 
 402.0819396972656, 259.16259765625 
 382.3577575683594, 281.0558166503906 
 358.53070068359375, 298.3940734863281 
 331.6172790527344, 310.392333984375 
 302.7889709472656, 316.4928283691406 
 273.3201599121094, 316.49285888671875 
 244.49168395996094, 310.392333984375 
 217.57830810546875, 298.3940734863281 
 193.75125122070312, 281.0557556152344 
 174.02700805664062, 259.1625671386719 
 159.2721405029297, 233.655517578125 
 150.17234802246094, 205.62928771972656 
 M 147.12042236328125, 176.3199005126953 
 L 150.17233276367188, 147.01055908203125 
 159.27212524414062, 118.98430633544922 
 174.02700805664062, 93.47724151611328 
 193.7512664794922, 71.58402252197266 
 217.57830810546875, 54.24568557739258 
 244.4917449951172, 42.24744415283203 
 273.3200988769531, 36.146949768066406 
 302.7889099121094, 36.146949768066406 
 331.6173095703125, 42.247459411621094 
 358.53076171875, 54.24570083618164 
 382.3577880859375, 71.58399963378906 
 402.08203125, 93.47728729248047 
 416.8369140625, 118.9843978881836 
 425.93670654296875, 147.01063537597656 
 428.98858642578125, 176.3199462890625 
 425.9366760253906, 205.62928771972656 
 416.83685302734375, 233.65554809570312 
 402.0819396972656, 259.16259765625 
 382.3577575683594, 281.0558166503906 
 358.53070068359375, 298.3940734863281 
 331.6172790527344, 310.392333984375 
 302.7889709472656, 316.4928283691406 
 273.3201599121094, 316.49285888671875 
 244.49168395996094, 310.392333984375 
 217.57830810546875, 298.3940734863281 
 193.75125122070312, 281.0557556152344 
 174.02700805664062, 259.1625671386719 
 159.2721405029297, 233.655517578125 
 150.17234802246094, 205.62928771972656 
 "/>
</svg>
