<svg xmlns="http://www.w3.org/2000/svg">
<line x1="1" y1="800" x2="1400" y2="1"></line>
<polyline id="linien" points="71.630859, 533.833284
72.509766, 528.558642
70.422363, 526.497292
68.005371, 526.097194 
67.236328, 524.693968 
70.092773, 524.225230
71.081543, 522.210695
68.994141, 521.402312
67.456055, 520.524905
67.236328, 518.764910
65.039063, 518.289884
62.402344, 518.357775
61.083984, 518.697080
59.985352, 518.154070
59.985352, 517.134161
61.523438, 515.292514
61.962891, 513.306116
60.974121, 511.242128
59.545898, 510.137547
59.765625, 509.618867
60.754395, 508.787773
60.095215, 507.955194
61.029053, 506.947178
62.347412, 506.041595
63.061523, 504.505091
64.050293, 502.963580
63.061523, 502.331518
61.743164, 501.557859
61.633301, 499.724224
63.500977, 498.096316
65.039063, 496.605167
64.160156, 495.180764
65.148926, 493.966751
66.137695, 492.928891
67.675781, 491.493768
68.609619, 491.493768
69.763184, 491.852939
70.367432, 491.242192
71.905518, 491.098378
73.114014, 491.098378
73.718262, 491.457836
74.816895, 491.529697
76.025391, 490.558702
78.771973, 490.090508
81.353760, 489.621874
82.122803, 489.621874
81.298828, 487.923902
79.156494, 486.728264
77.975464, 484.984076
77.563477, 482.758815
76.135254, 481.294344
76.135254, 479.605024
75.695801, 477.540980
76.135254, 475.542867
80.639648, 475.023590
81.367493, 475.774521
82.919312, 475.987553
84.127808, 475.663340
84.773254, 475.709668
86.022949, 476.061630
88.824463, 476.468870
91.928101, 476.561380
94.647217, 475.765257
98.217773, 475.023590
101.953125, 473.611530
103.161621, 472.717751
104.150391, 473.834739
105.029297, 475.542867
108.215332, 475.097803
110.412598, 474.132203
118.981934, 475.246200
122.607422, 476.875792
126.452637, 476.135698
129.418945, 474.652362
130.517578, 476.875792
129.309082, 478.795129
130.078125, 481.807385
134.143066, 483.343432
135.791016, 485.020475
137.548828, 485.384318
138.098145, 486.474278
137.768555, 488.574870
132.604980, 490.882578
129.199219, 493.322820
125.024414, 497.528799
124.584961, 499.794878
121.948242, 501.628243
124.145508, 503.454604
128.979492, 503.314363
131.506348, 504.784827
134.362793, 505.902119
136.779785, 506.599084
139.855957, 507.642594
141.174316, 508.128770
143.371582, 508.683781
143.261719, 510.137547
145.788574, 509.722649
146.008301, 509.238133
147.052002, 508.441045
148.535156, 508.336977
149.029541, 509.445844
149.853516, 511.069711
150.347900, 512.859704
149.633789, 513.717804
149.688721, 514.403128
147.546387, 515.087425
147.656250, 516.282475
147.106934, 517.474386
146.557617, 518.900539
147.546387, 519.848801
147.656250, 521.469733
146.557617, 522.614336
145.898438, 523.957155
146.447754, 525.362730
143.811035, 527.163309
141.833496, 528.293209
141.833496, 529.618751
143.481445, 530.544219
143.920898, 531.797039
144.689941, 532.717835
143.591309, 534.422635
143.371582, 536.185794
142.932129, 536.902014
142.382813, 538.978652
140.625000, 540.013119
137.768555, 541.109429
134.143066, 541.366965
132.495117, 541.817266
133.703613, 542.395505
135.131836, 542.908816
137.109375, 542.972935
136.779785, 544.381028
136.340332, 545.656926
134.033203, 545.911628
134.143066, 546.674778
132.934570, 546.611237
131.945801, 545.847967
130.407715, 544.891865
128.649902, 544.189300
127.331543, 544.189300
126.013184, 544.317129
125.244141, 544.700376
124.255371, 543.869553
123.266602, 542.972935
121.728516, 542.267078
120.410156, 541.560011
118.322754, 541.045021
116.674805, 540.787285
115.356445, 540.271334
114.477539, 539.366878
112.719727, 539.237509
112.170410, 539.948540
110.632324, 539.754743
109.863281, 539.496206
108.215332, 539.625494
108.105469, 540.593879
110.412598, 541.109429
111.071777, 541.881555
111.291504, 542.780549
110.852051, 543.805574
112.280273, 544.061431
112.719727, 544.125370
112.060547, 544.764216
110.852051, 545.083265
110.192871, 544.508797
109.643555, 543.549557
108.544922, 543.165232
107.336426, 543.037044
105.798340, 543.485528
103.601074, 543.805574
102.172852, 543.933522
101.843262, 543.357440
101.513672, 544.572667
100.415039, 544.764216
98.986816, 544.636526
99.206543, 545.274575
100.195313, 545.720617
100.524902, 546.547686
99.645996, 547.373076
98.437500, 547.436498
96.789551, 548.070171
95.471191, 548.070171
93.823242, 547.816821
92.834473, 548.070171
90.747070, 548.386636
88.879395, 548.766067
86.791992, 548.702853
86.022949, 548.386636
87.121582, 547.182750
88.439941, 546.038919
89.868164, 545.083265
89.428711, 544.125370
86.901855, 543.869553
86.352539, 543.229311
88.110352, 542.716400
88.989258, 542.138610
88.220215, 541.431323
89.099121, 540.851734
88.439941, 540.206796
89.318848, 539.172810
89.758301, 538.395637
87.890625, 538.201118
86.901855, 538.784404
85.693359, 538.265967
85.363770, 537.292167
84.814453, 536.316106
84.704590, 535.729383
83.276367, 535.990250
81.518555, 536.120622
80.419922, 536.706802
79.760742, 537.292167
78.112793, 537.097136
76.464844, 536.771883
74.816895, 536.641711
72.619629, 536.055441
71.520996, 535.403074
71.411133, 533.898808" fill="none" stroke="green" stroke-width="5" stroke-linejoin="round">
</polyline>
</svg>